<?xml version="1.0" encoding="UTF-8" standalone="no"?>
<svg
   xmlns:dc="http://purl.org/dc/elements/1.1/"
   xmlns:cc="http://creativecommons.org/ns#"
   xmlns:rdf="http://www.w3.org/1999/02/22-rdf-syntax-ns#"
   xmlns:svg="http://www.w3.org/2000/svg"
   xmlns="http://www.w3.org/2000/svg"
   xmlns:sodipodi="http://sodipodi.sourceforge.net/DTD/sodipodi-0.dtd"
   xmlns:inkscape="http://www.inkscape.org/namespaces/inkscape"
   viewBox="0 -200 1000 1000"
   id="svg2"
   version="1.1"
   inkscape:version="0.48.2 r9819"
   width="100%"
   height="100%"
   sodipodi:docname="bb.svg">
  <metadata
     id="metadata12">
    <rdf:RDF>
      <cc:Work
         rdf:about="">
        <dc:format>image/svg+xml</dc:format>
        <dc:type
           rdf:resource="http://purl.org/dc/dcmitype/StillImage" />
      </cc:Work>
    </rdf:RDF>
  </metadata>
  <defs
     id="defs10" />
  <sodipodi:namedview
     pagecolor="#ffffff"
     bordercolor="#666666"
     borderopacity="1"
     objecttolerance="10"
     gridtolerance="10"
     guidetolerance="10"
     inkscape:pageopacity="0"
     inkscape:pageshadow="2"
     inkscape:window-width="1680"
     inkscape:window-height="994"
     id="namedview8"
     showgrid="false"
     inkscape:zoom="0.236"
     inkscape:cx="-199.15254"
     inkscape:cy="500"
     inkscape:window-x="-4"
     inkscape:window-y="-4"
     inkscape:window-maximized="1"
     inkscape:current-layer="svg2" />
  <g
     transform="matrix(1.12,0,0,-1.12,-60,860)"
     id="g4">
    <path
       d="m 780,380 q 41,41 41,66 0,13 -13,22 l 32,32 -32,32 q 13,9 13,23 0,24 -41,65 L 640,760 480,600 l -40,40 160,160 -49,49 q 9,14 9,31 0,25 -17.5,42.5 Q 525,940 500,940 475,940 457.5,922.5 440,905 440,880 q 0,-17 9,-31 L 220,620 q -41,-41 -41,-65 0,-14 13,-23 l -32,-32 32,-32 q -13,-9 -13,-22 0,-25 41,-66 L 361,241 520,400 560,360 401,201 421,181 450,153 Q 440,139 440,120 440,95 457.5,77.5 475,60 500,60 525,60 542.5,77.5 560,95 560,120 q 0,18 -9,33 z M 460,500 440,480 H 260 l -20,20 20,20 h 180 z m 80,0 20,20 h 180 l 20,-20 -20,-20 H 560 z m -40,400 q 8,0 14,-6 6,-6 6,-14 0,-8 -6,-14 -6,-6 -14,-6 -8,0 -14,6 -6,6 -6,14 0,8 6,14 6,6 14,6 z m 0,-760 q 8,0 14,-6 6,-6 6,-14 0,-8 -6,-14 -6,-6 -14,-6 -8,0 -14,6 -6,6 -6,14 0,8 6,14 6,6 14,6 z"
       id="path6"
       inkscape:connector-curvature="0"
       style="fill:currentColor" />
  </g>
  <path
     style="fill:#ececec;fill-opacity:1;stroke:#000000;stroke-width:0;stroke-linecap:round;stroke-linejoin:miter;stroke-miterlimit:3.79999995;stroke-opacity:1;stroke-dasharray:none;stroke-dashoffset:0"
     d="m 488.5266,739.85581 c -10.08145,-7.37173 -8.53402,-21.44481 3.16832,-28.8144 17.73477,-11.16854 36.69089,16.44776 19.77848,28.8144 -10.60325,7.7533 -12.34355,7.7533 -22.9468,0 l 0,0 z"
     id="path2989"
     inkscape:connector-curvature="0" />
  <path
     style="fill:none;stroke:#000000;stroke-width:0;stroke-linecap:round;stroke-linejoin:miter;stroke-miterlimit:3.79999995;stroke-opacity:1;stroke-dasharray:none;stroke-dashoffset:0"
     d="m 559.32203,309.49153 c -8.28911,-9.15937 -8.28911,-9.8237 0,-18.98306 8.0749,-8.92266 14.6168,-9.49152 109.15255,-9.49152 94.53575,0 101.07763,0.56886 109.15254,9.49152 8.2891,9.15936 8.2891,9.82369 0,18.98306 -8.07491,8.92266 -14.61679,9.49152 -109.15254,9.49152 -94.53575,0 -101.07765,-0.56886 -109.15255,-9.49152 z"
     id="path2991"
     inkscape:connector-curvature="0" />
  <path
     style="fill:none;stroke:#000000;stroke-width:0;stroke-linecap:round;stroke-linejoin:miter;stroke-miterlimit:3.79999995;stroke-opacity:1;stroke-dasharray:none;stroke-dashoffset:0"
     d="m 222.37288,309.49153 c -8.28911,-9.15937 -8.28911,-9.8237 0,-18.98306 8.07491,-8.92266 14.61679,-9.49152 109.15254,-9.49152 94.53575,0 101.07765,0.56886 109.15255,9.49152 8.28911,9.15936 8.28911,9.82369 0,18.98306 -8.0749,8.92266 -14.6168,9.49152 -109.15255,9.49152 -94.53575,0 -101.07763,-0.56886 -109.15254,-9.49152 z"
     id="path2993"
     inkscape:connector-curvature="0" />
  <path
     style="fill:#ececec;fill-opacity:1;stroke:#000000;stroke-width:0;stroke-linecap:round;stroke-linejoin:miter;stroke-miterlimit:3.79999995;stroke-opacity:1;stroke-dasharray:none;stroke-dashoffset:0"
     d="m 486.71186,-113.83051 c -15.12634,-15.12634 3.62069,-37.77899 22.77967,-27.52543 16.16506,8.65129 9.14534,33.22035 -9.49153,33.22035 -4.17627,0 -10.15594,-2.56272 -13.28814,-5.69492 z"
     id="path2995"
     inkscape:connector-curvature="0" />
  <path
     style="fill:#ececec;fill-opacity:1;fill-rule:nonzero;stroke-linecap:butt;stroke-linejoin:round"
     d="m 221.05385,508.81178 -9.23696,-9.83228 9.83076,-9.23551 c 9.52527,-8.94853 12.92645,-9.23552 109.45463,-9.23552 l 99.62387,0 9.9101,10.54883 c 9.62134,10.24144 9.68546,10.79705 2.20054,19.06779 -7.31788,8.08617 -12.91296,8.51898 -110.12778,8.51898 -101.65374,0 -102.48716,-0.0734 -111.65516,-9.83229 z"
     id="path3008"
     inkscape:connector-curvature="0"
     transform="translate(0,-200)" />
  <path
     style="fill:#ececec;fill-opacity:1;fill-rule:nonzero;stroke-linecap:butt;stroke-linejoin:round"
     d="m 557.16321,510.12509 c -7.48492,-8.27074 -7.4208,-8.82635 2.20053,-19.06779 l 9.91011,-10.54883 100.21768,0 c 99.35191,0 100.29747,0.0849 109.45462,9.83229 l 9.23696,9.83228 -9.83076,9.23552 c -9.53771,8.96021 -12.86601,9.23551 -111.65516,9.23551 -96.61999,0 -102.21846,-0.43542 -109.53398,-8.51898 z"
     id="path3010"
     inkscape:connector-curvature="0"
     transform="translate(0,-200)" />
</svg>
