<?xml version="1.0" encoding="UTF-8" standalone="no"?>
<svg
   xmlns:dc="http://purl.org/dc/elements/1.1/"
   xmlns:cc="http://creativecommons.org/ns#"
   xmlns:rdf="http://www.w3.org/1999/02/22-rdf-syntax-ns#"
   xmlns:svg="http://www.w3.org/2000/svg"
   xmlns="http://www.w3.org/2000/svg"
   xmlns:sodipodi="http://sodipodi.sourceforge.net/DTD/sodipodi-0.dtd"
   xmlns:inkscape="http://www.inkscape.org/namespaces/inkscape"
   viewBox="0 -200 1000 1000"
   id="svg2"
   version="1.1"
   inkscape:version="0.48.2 r9819"
   width="100%"
   height="100%"
   sodipodi:docname="bk.svg">
  <metadata
     id="metadata12">
    <rdf:RDF>
      <cc:Work
         rdf:about="">
        <dc:format>image/svg+xml</dc:format>
        <dc:type
           rdf:resource="http://purl.org/dc/dcmitype/StillImage" />
      </cc:Work>
    </rdf:RDF>
  </metadata>
  <defs
     id="defs10" />
  <sodipodi:namedview
     pagecolor="#ffffff"
     bordercolor="#666666"
     borderopacity="1"
     objecttolerance="10"
     gridtolerance="10"
     guidetolerance="10"
     inkscape:pageopacity="0"
     inkscape:pageshadow="2"
     inkscape:window-width="1036"
     inkscape:window-height="944"
     id="namedview8"
     showgrid="false"
     inkscape:zoom="0.236"
     inkscape:cx="-199.15254"
     inkscape:cy="500"
     inkscape:window-x="0"
     inkscape:window-y="0"
     inkscape:window-maximized="0"
     inkscape:current-layer="svg2" />
  <g
     transform="matrix(1.12,0,0,-1.12,-60,860)"
     id="g4">
    <path
       d="m 397,353 q 16,-11 31,-18 -19,-87 -65,-141 -46,-54 -103,-54 -50,0 -85,35 -35,35 -35,85 0,57 54,103 54,46 141,66 5,-15 17,-32 -74,-11 -123,-49 -49,-38 -49,-88 0,-33 23.5,-56.5 Q 227,180 260,180 q 50,0 88,49 38,49 49,124 z M 500,600 Q 459,600 429.5,570.5 400,541 400,500 400,459 429.5,429.5 459,400 500,400 q 41,0 70.5,29.5 Q 600,459 600,500 600,541 570.5,570.5 541,600 500,600 z M 665,429 q 87,-20 141,-66 54,-46 54,-103 0,-50 -35,-85 -35,-35 -85,-35 -57,0 -103,54 -46,54 -65,141 15,7 31,18 11,-75 49,-124 38,-49 88,-49 33,0 56.5,23.5 23.5,23.5 23.5,56.5 0,50 -49,88 -49,38 -123,49 12,17 17,32 z m -18,174 q 75,11 124,49 49,38 49,88 0,33 -23.5,56.5 Q 773,820 740,820 q -50,0 -88,-49 -38,-49 -49,-124 -12,9 -31,18 19,87 65,141 46,54 103,54 50,0 85,-35 35,-35 35,-85 0,-57 -54,-103 -54,-46 -141,-65 -9,19 -18,31 z m -250,44 q -11,75 -49,124 -38,49 -88,49 -33,0 -56.5,-23.5 Q 180,773 180,740 q 0,-50 49,-88 49,-38 124,-49 -9,-12 -18,-31 -86,19 -139.5,65 -53.5,46 -53.5,103 0,49 35,84.5 35,35.5 83,35.5 57,0 103,-54 46,-54 66,-141 -18,-8 -32,-18 z m 103,-7 q 58,0 99,-41 41,-41 41,-99 0,-58 -41,-99 -41,-41 -99,-41 -58,0 -99,41 -41,41 -41,99 0,58 41,99 41,41 99,41 z m -60,171 q -36,61 -82,95 -46,34 -98,34 -41,0 -77,-15.5 Q 147,909 119,881.5 91,854 75.5,817.5 60,781 60,740 q 0,-52 34,-98 34,-46 95,-82 H 120 V 440 h 69 Q 128,404 94,358 60,312 60,260 60,219 75.5,183 91,147 119,119 147,91 183,75.5 219,60 260,60 q 52,0 98,34 46,34 82,95 v -69 h 120 v 69 Q 596,128 642.5,94 689,60 740,60 q 41,0 77.5,15.5 36.5,15.5 64,43.5 27.5,28 43,64 15.5,36 15.5,77 0,52 -34,98 -34,46 -95,82 h 69 v 120 h -69 q 61,36 95,82 34,46 34,98 0,41 -15.5,77.5 -15.5,36.5 -43,64 -27.5,27.5 -64,43 Q 781,940 740,940 689,940 642.5,906 596,872 560,811 v 69 H 440 v -69 z"
       id="path6"
       inkscape:connector-curvature="0"
       style="fill:currentColor" />
  </g>
  <path
     style="fill:#f9f9f9;fill-opacity:1;stroke:#000000;stroke-width:0;stroke-linecap:round;stroke-linejoin:miter;stroke-miterlimit:3.79999995;stroke-opacity:1;stroke-dasharray:none;stroke-dashoffset:0"
     d="m 677.92201,201.20287 c -5.8142,-11.2434 -6.09546,-14.69697 -1.3083,-16.06419 3.35398,-0.9579 19.97195,-5.34602 36.92879,-9.75137 C 773.27516,159.8689 828.78412,120.83695 848.93892,80.181285 862.83763,52.145221 861.68204,5.113128 846.53725,-17.566054 818.71026,-59.236707 768.49152,-71.46527 720.87073,-48.166594 675.10882,-25.777368 637.412,29.290893 620.25537,98.814333 l -7.61992,30.878067 -13.60586,-7.03588 c -16.25618,-8.40639 -16.43222,-10.79657 -3.67561,-49.906626 24.2334,-74.296398 72.13938,-138.103268 120.57822,-160.600428 63.29149,-29.395396 140.964,-0.51902 171.38227,63.71494 41.1199,86.832514 -25.21963,183.119214 -156.49846,227.145384 -20.52577,6.8836 -39.15737,12.51563 -41.40355,12.51563 -2.24618,0 -7.41688,-6.44514 -11.49045,-14.32255 z"
     id="path2989"
     inkscape:connector-curvature="0" />
  <path
     style="fill:#f9f9f9;fill-opacity:1;stroke:#000000;stroke-width:0;stroke-linecap:round;stroke-linejoin:miter;stroke-miterlimit:3.79999995;stroke-opacity:1;stroke-dasharray:none;stroke-dashoffset:0"
     d="M 272.08133,204.22822 C 144.35956,159.93362 78.564406,71.752624 110.36796,-12.50576 c 11.87185,-31.452557 41.7595,-63.702733 71.31853,-76.956051 29.61199,-13.277059 71.75306,-12.613839 102.38131,1.611277 50.62263,23.511409 101.2398,93.5987468 125.27818,173.467134 l 8.7506,29.07424 -15.40426,7.34577 -15.40427,7.34579 -7.58167,-30.723064 C 369.42887,57.01199 347.71109,12.957384 324.40502,-13.519707 271.84471,-73.231376 191.89885,-75.123762 153.46275,-17.566054 c -15.1448,22.679182 -16.30038,69.711275 -2.40167,97.747339 20.1548,40.655665 75.66376,79.687615 135.39642,95.206025 16.95684,4.40535 33.57481,8.79347 36.92879,9.75137 4.78716,1.36722 4.5059,4.82079 -1.3083,16.06419 -8.72984,16.88165 -9.84752,16.94928 -49.99666,3.02535 z"
     id="path2991"
     inkscape:connector-curvature="0" />
  <path
     style="fill:#f9f9f9;fill-opacity:1;stroke:#000000;stroke-width:0;stroke-linecap:round;stroke-linejoin:miter;stroke-miterlimit:3.79999995;stroke-opacity:1;stroke-dasharray:none;stroke-dashoffset:0"
     d="m 444.74294,442.93171 c -33.93915,-13.0521 -64.72078,-41.72179 -82.0686,-76.43786 -12.15968,-24.33366 -14.53875,-34.6566 -14.53875,-63.08441 0,-45.8024 10.26339,-73.27952 39.19667,-104.93713 27.47429,-30.06124 46.85688,-41.22473 85.3796,-49.17475 52.18342,-10.76919 100.77402,6.30355 139.95588,49.17475 28.93328,31.65761 39.19667,59.13473 39.19667,104.93713 0,28.42781 -2.37907,38.75075 -14.53876,63.08441 -35.791,71.62414 -119.1091,104.69386 -192.58271,76.43786 z m 87.29811,-33.62562 c 30.38184,-7.65024 69.32727,-45.54656 77.17838,-75.09935 13.7061,-51.5919 -6.03887,-103.45715 -49.6507,-130.42026 C 539.00553,191.07322 532.16435,189.42373 500,189.42373 c -32.16435,0 -39.00553,1.64949 -59.56873,14.36275 -43.61183,26.96311 -63.35681,78.82836 -49.6507,130.42026 4.08347,15.37082 12.61032,28.08716 30.56248,45.57867 33.53708,32.67651 64.92399,41.0467 110.698,29.52068 l 0,0 z"
     id="path2993"
     inkscape:connector-curvature="0" />
  <path
     style="fill:#f9f9f9;fill-opacity:1;stroke:#000000;stroke-width:0;stroke-linecap:round;stroke-linejoin:miter;stroke-miterlimit:3.79999995;stroke-opacity:1;stroke-dasharray:none;stroke-dashoffset:0"
     d="m 189.15255,693.76896 c -58.8943,-20.99308 -93.004513,-76.15473 -86.80153,-140.37192 6.21878,-64.38067 70.9167,-124.55548 169.5559,-157.70201 l 40.60968,-13.64641 7.78259,15.04987 7.78258,15.04987 -38.45357,11.10159 c -88.15372,25.45008 -141.64918,73.44165 -148.75648,133.45162 -7.30789,61.70366 44.27657,112.20418 104.57802,102.38051 60.25388,-9.81592 110.59674,-68.74827 133.23706,-155.96993 3.99833,-15.40358 8.30352,-29.04032 9.56707,-30.30388 3.40861,-3.40859 26.3224,12.63524 26.3224,18.43048 0,11.90094 -25.65774,79.99974 -38.82182,103.03792 -21.74154,38.04938 -62.40682,79.39494 -91.73458,93.2692 -27.67616,13.09293 -68.14682,15.74771 -94.86732,6.22309 z"
     id="path2995"
     inkscape:connector-curvature="0" />
  <path
     style="fill:#f9f9f9;fill-opacity:1;stroke:#000000;stroke-width:0;stroke-linecap:round;stroke-linejoin:miter;stroke-miterlimit:3.79999995;stroke-opacity:1;stroke-dasharray:none;stroke-dashoffset:0"
     d="m 715.05832,687.59311 c -28.43433,-14.05124 -69.82058,-56.5785 -90.81277,-93.31644 -13.16408,-23.03818 -38.82182,-91.13698 -38.82182,-103.03792 0,-5.79524 22.91379,-21.83907 26.3224,-18.43048 1.26355,1.26356 5.56874,14.9003 9.56707,30.30388 22.64032,87.22166 72.98318,146.15401 133.23706,155.96993 60.30145,9.82367 111.88591,-40.67685 104.57802,-102.38051 C 852.02098,496.6916 798.52552,448.70003 710.3718,423.24995 l -38.45357,-11.10159 7.78258,-15.04987 7.78259,-15.04987 40.60968,13.64641 c 51.50917,17.30905 95.16097,42.82799 125.6351,73.44656 34.82066,34.98572 42.56125,53.64056 42.45473,102.31604 -0.0999,45.6395 -5.89694,60.56149 -34.72827,89.39282 -25.47981,25.47981 -49.72037,35.7255 -88.57328,37.43703 -27.92274,1.23005 -37.14369,-0.47536 -57.82304,-10.69437 z"
     id="path2997"
     inkscape:connector-curvature="0" />
  <path
     style="fill:#ececec;fill-opacity:1;stroke:#000000;stroke-width:0;stroke-linecap:round;stroke-linejoin:miter;stroke-miterlimit:3.79999995;stroke-opacity:1;stroke-dasharray:none;stroke-dashoffset:0"
     d="m 745.60659,694.43252 c -51.68807,-8.12218 -108.26277,-65.72011 -138.3144,-140.81602 -23.27241,-58.15537 -24.77934,-70.56883 -9.046,-74.51764 6.61448,-1.66013 12.55242,-2.38059 13.1954,-1.60101 0.64299,0.77957 6.02677,16.36656 11.96396,34.63774 15.59473,47.99141 31.0161,76.37201 56.02945,103.11331 30.21256,32.29967 53.14844,43.52455 89.47822,43.79089 25.00987,0.18333 32.23661,-1.85954 49.83051,-14.08632 23.86207,-16.58279 41.93424,-48.43312 41.93424,-73.90476 0,-62.16676 -52.8866,-116.40693 -140.9219,-144.52862 -22.98448,-7.34209 -42.67078,-14.03078 -43.74732,-14.86376 -1.07653,-0.83299 0.59468,-7.11557 3.7138,-13.96132 4.97468,-10.91824 7.5463,-12.04229 20.94039,-9.1531 21.15427,4.56313 22.91203,5.09455 38.99808,11.79013 22.77978,9.48175 37.78407,15.17349 40.33898,15.30223 1.30508,0.0657 3.44067,1.58739 4.74576,3.38142 1.30508,1.79404 13.55858,10.33831 27.22998,18.98728 32.89038,20.80752 71.02821,63.04824 76.80615,85.06904 5.62502,21.43796 7.40843,75.74695 2.91357,88.7246 -6.71958,19.40092 -18.96621,38.0454 -32.43356,49.37743 -7.6267,6.41744 -16.35999,14.16133 -19.40731,17.20865 -13.30393,13.30393 -60.53607,21.34727 -94.248,16.04983 z"
     id="path2988"
     inkscape:connector-curvature="0" />
  <path
     style="fill:#ececec;fill-opacity:1;stroke:#000000;stroke-width:0;stroke-linecap:round;stroke-linejoin:miter;stroke-miterlimit:3.79999995;stroke-opacity:1;stroke-dasharray:none;stroke-dashoffset:0"
     d="m 467.47355,448.35816 c -29.58592,-7.50755 -53.15806,-20.78309 -74.11641,-41.74143 -11.47756,-11.47756 -21.36504,-22.32948 -21.97218,-24.11539 -0.60716,-1.78591 -5.54183,-12.85728 -10.96597,-24.60303 -7.7189,-16.715 -9.67695,-29.60649 -9.01025,-59.32204 1.23363,-54.98415 6.35628,-68.28498 39.43871,-102.40179 31.94784,-32.94672 56.2463,-43.64742 104.69059,-46.10425 36.73971,-1.86324 42.98076,-0.86531 65.29045,10.43987 38.44327,19.48068 76.53562,61.14247 85.01509,92.98143 1.04273,3.91525 2.27919,24.20339 2.74768,45.08474 0.70577,31.45696 -1.10147,42.03433 -10.54115,61.69492 -6.26613,13.05084 -11.48935,24.79661 -11.60716,26.10169 -0.27147,3.00691 -38.34982,39.66636 -43.95499,42.3171 -43.65094,20.6429 -83.98908,27.54097 -115.01441,19.66818 l 0,0 z m 83.61434,-47.17891 c 41.61003,-21.22785 66.80379,-68.1837 61.33923,-114.32337 -11.08572,-93.60157 -125.56444,-133.39522 -192.16253,-66.79713 -20.52427,20.52426 -29.34622,38.54965 -32.69171,66.79713 -6.54855,55.29227 27.34855,105.31035 83.92182,123.83384 18.43657,6.03659 58.50257,1.24917 79.59319,-9.51047 l 0,0 z"
     id="path2990"
     inkscape:connector-curvature="0" />
  <path
     style="fill:#ececec;fill-opacity:1;stroke:#000000;stroke-width:0;stroke-linecap:round;stroke-linejoin:miter;stroke-miterlimit:3.79999995;stroke-opacity:1;stroke-dasharray:none;stroke-dashoffset:0"
     d="M 198.64406,695.19489 C 161.27998,684.85237 130.96429,659.531 114.10477,624.5829 98.626787,592.4986 99.703499,545.34879 116.67282,512.12592 c 13.37598,-26.18779 54.44665,-67.70259 79.87367,-80.73744 8.98417,-4.60563 17.40267,-10.00755 18.70775,-12.00426 1.30509,-1.99673 3.44068,-3.34167 4.74576,-2.98878 1.30508,0.3529 14.11864,-4.5176 28.47458,-10.82331 14.35593,-6.30571 28.23728,-11.97605 30.84745,-12.60074 33.97797,-8.13188 35.16018,-7.99552 40.95542,4.72362 3.11912,6.84575 4.79033,13.12833 3.7138,13.96132 -1.07654,0.83298 -20.76284,7.52167 -43.74732,14.86376 -88.0353,28.12169 -140.9219,82.36186 -140.9219,144.52862 0,25.47164 18.07217,57.32197 41.93424,73.90476 17.5939,12.22678 24.82064,14.26966 49.83051,14.08632 63.94893,-0.46881 114.51173,-51.5169 145.50767,-146.9042 5.93719,-18.27118 11.32097,-33.85817 11.96396,-34.63774 0.64298,-0.77958 6.58092,-0.0591 13.1954,1.60101 15.73334,3.94881 14.22641,16.36227 -9.046,74.51764 -23.43234,58.55498 -66.45194,110.628 -108.64001,131.5031 -21.81162,10.79264 -64.60018,15.83931 -85.42374,10.07529 l 0,0 z"
     id="path2992"
     inkscape:connector-curvature="0" />
  <path
     style="fill:#ececec;fill-opacity:1;stroke:#000000;stroke-width:0;stroke-linecap:round;stroke-linejoin:miter;stroke-miterlimit:3.79999995;stroke-opacity:1;stroke-dasharray:none;stroke-dashoffset:0"
     d="m 680.70913,204.05501 c -12.83691,-13.66426 -8.7275,-17.20973 32.8502,-28.34205 57.89346,-15.50082 114.5269,-56.21997 135.13618,-97.162194 13.71443,-27.244974 14.36944,-61.448576 1.64311,-85.801094 -26.07592,-49.897702 -77.7574,-66.215845 -129.51444,-40.893485 -43.01637,21.045943 -77.52035,69.789407 -97.83045,138.204203 -10.57278,35.6145 -16.86455,41.68885 -28.57088,27.5836 -10.17747,-12.26312 -5.059,-33.858803 20.45927,-86.321003 47.62798,-97.916817 116.54134,-145.346957 182.91449,-125.892267 11.09322,3.25155 20.20219,4.412352 20.24216,2.579573 0.0399,-1.832779 1.64167,-1.084003 3.55933,1.66395 1.91765,2.747954 11.34971,9.772941 20.96014,15.611087 34.6742,21.063929 59.44047,73.5412268 54.49208,115.463376 -5.14077,43.551827 -47.55649,102.518564 -89.79869,124.838974 -9.76806,5.16136 -17.7601,11.03424 -17.7601,13.05084 0,2.01661 -2.20418,3.66656 -4.8982,3.66656 -2.694,0 -11.77027,2.87134 -20.16948,6.38076 -8.39922,3.50942 -17.4069,6.93406 -20.01707,7.61031 -2.61017,0.67625 -10.61864,4.26653 -17.79661,7.9784 -7.17797,3.71187 -13.05084,5.67907 -13.05084,4.37156 0,-1.30751 -5.10129,-0.43779 -11.33618,1.93272 -9.0818,3.45289 -13.3602,2.15553 -21.51402,-6.52382 l 0,0 z"
     id="path2994"
     inkscape:connector-curvature="0" />
  <path
     style="fill:#ececec;fill-opacity:1;stroke:#000000;stroke-width:0;stroke-linecap:round;stroke-linejoin:miter;stroke-miterlimit:3.79999995;stroke-opacity:1;stroke-dasharray:none;stroke-dashoffset:0"
     d="m 293.55933,210.64575 c -15.55018,-3.71122 -49.77434,-17.95788 -82.72202,-34.43512 -30.46873,-15.23752 -78.74944,-62.26576 -92.73327,-90.32766 -13.13922,-26.366962 -16.40196,-71.621581 -6.96887,-96.658767 19.93583,-52.913392 75.04161,-91.336403 125.475,-87.488576 47.82362,3.648703 98.52415,40.124235 130.38856,93.805589 9.06965,15.279454 18.67982,29.349813 21.35594,31.267466 2.67612,1.917664 3.18883,3.519353 1.13938,3.559326 -2.04947,0.03987 -1.07538,4.877757 2.16463,10.750634 8.32609,15.091966 22.57825,56.587272 22.76266,66.273708 0.14495,7.61378 -12.82458,17.96359 -22.51051,17.96359 -2.3685,0 -8.22768,-13.34747 -13.02038,-29.66102 C 366.87364,54.791758 341.70626,5.3829136 321.49011,-16.993936 281.39992,-61.368974 216.73997,-72.927419 178.54744,-42.545997 c -26.76271,21.289229 -40.44312,50.6806498 -37.58916,80.757779 1.27243,13.409693 5.92822,31.562228 10.34621,40.338984 20.62727,40.977954 77.34752,81.736764 135.13618,97.107994 40.35036,10.73281 46.27275,16.02548 32.13172,28.7151 -8.24793,7.40138 -14.11567,8.87269 -25.01306,6.27189 z"
     id="path2996"
     inkscape:connector-curvature="0" />
  <path
     style="fill:#ececec;fill-opacity:1;fill-rule:nonzero;stroke-linecap:butt;stroke-linejoin:round"
     d="m 451.90349,441.6733 c -22.9139,-8.4045 -59.44891,-35.05498 -72.27697,-52.72244 -24.56512,-33.83236 -33.41086,-95.02545 -20.47312,-141.62883 2.89847,-10.44067 5.55605,-20.01504 5.90574,-21.27635 0.34968,-1.26132 14.75392,-15.24952 32.00943,-31.08489 34.0328,-31.23188 49.5077,-37.86002 100.41087,-43.00754 30.03883,-3.03763 34.08856,-2.25103 62.4035,12.12087 53.95638,27.38683 81.05294,64.05324 85.94929,116.30451 4.95396,52.86605 -7.96521,91.62963 -41.45986,124.39903 -40.01165,39.14532 -104.07168,54.64707 -152.46888,36.89564 z m 96.76159,-39.30782 c 22.42083,-9.71723 33.10931,-20.11819 52.03646,-50.63667 16.73438,-26.9828 16.61538,-76.82756 -0.25048,-104.92174 -29.45009,-49.05629 -85.9026,-70.89928 -137.94627,-53.37514 -24.28877,8.17852 -56.55343,36.46272 -66.44935,58.25156 -11.24899,24.76803 -11.65954,67.7573 -0.87462,91.57923 10.45681,23.09716 48.5023,60.02296 68.71249,66.69028 21.12424,6.96885 59.00945,3.57793 84.77177,-7.58752 l 0,0 z"
     id="path2998"
     inkscape:connector-curvature="0" />
</svg>
