<?xml version="1.0" encoding="UTF-8" standalone="no"?>
<svg
   xmlns:dc="http://purl.org/dc/elements/1.1/"
   xmlns:cc="http://creativecommons.org/ns#"
   xmlns:rdf="http://www.w3.org/1999/02/22-rdf-syntax-ns#"
   xmlns:svg="http://www.w3.org/2000/svg"
   xmlns="http://www.w3.org/2000/svg"
   xmlns:sodipodi="http://sodipodi.sourceforge.net/DTD/sodipodi-0.dtd"
   xmlns:inkscape="http://www.inkscape.org/namespaces/inkscape"
   viewBox="0 -200 1000 1000"
   id="svg2"
   version="1.1"
   inkscape:version="0.48.2 r9819"
   width="100%"
   height="100%"
   sodipodi:docname="bn.svg">
  <metadata
     id="metadata12">
    <rdf:RDF>
      <cc:Work
         rdf:about="">
        <dc:format>image/svg+xml</dc:format>
        <dc:type
           rdf:resource="http://purl.org/dc/dcmitype/StillImage" />
      </cc:Work>
    </rdf:RDF>
  </metadata>
  <defs
     id="defs10" />
  <sodipodi:namedview
     pagecolor="#ffffff"
     bordercolor="#666666"
     borderopacity="1"
     objecttolerance="10"
     gridtolerance="10"
     guidetolerance="10"
     inkscape:pageopacity="0"
     inkscape:pageshadow="2"
     inkscape:window-width="696"
     inkscape:window-height="735"
     id="namedview8"
     showgrid="false"
     inkscape:zoom="0.236"
     inkscape:cx="500"
     inkscape:cy="500"
     inkscape:window-x="0"
     inkscape:window-y="0"
     inkscape:window-maximized="0"
     inkscape:current-layer="svg2" />
  <g
     transform="matrix(1.1,0,0,-1.1,-50,850)"
     id="g4">
    <path
       d="m 631,347 149,93 60,60 -60,60 q 14,7 22.5,25.5 8.5,18.5 12,39 3.5,20.5 4.5,35 1,14.5 1,20.5 0,56 -24.5,104.5 Q 771,833 733,869.5 695,906 654,929 613,952 580,960 V 880 H 300 Q 264,866 244.5,838.5 225,811 225,780 225,749 244.5,722 264,695 300,680 h 60 q 0,-13 9,-27 L 220,560 160,500 220,440 Q 206,433 197.5,414.5 189,396 185.5,375.5 182,355 181,340.5 180,326 180,320 180,264 204.5,215.5 229,167 267,130.5 305,94 346,71 387,48 420,40 v 80 h 280 q 36,15 55.5,42 19.5,27 19.5,58 0,31 -19.5,58.5 Q 736,306 700,320 h -60 q 0,14 -9,27 z m -171,13 20,40 z m -160,80 q -14,-7 -22.5,-25.5 -8.5,-18.5 -12,-39 -3.5,-20.5 -4.5,-35 -1,-14.5 -1,-20.5 0,-48 17,-83 17,-35 39.5,-56 22.5,-21 39,-29.5 Q 372,143 380,140 v -40 q -10,4 -32.5,16 Q 325,128 295,154.5 265,181 242.5,223 220,265 220,320 q 0,6 1,20.5 1,14.5 4.5,35 3.5,20.5 12,39 Q 246,433 260,440 h 40 z m 305,-70 -20,-40 q -23,14 -55.5,22 -32.5,8 -69.5,8 l 20,40 q 37,0 69.5,-8 32.5,-8 55.5,-22 z m -210,260 20,40 q 23,-14 55.5,-22 32.5,-8 69.5,-8 l -20,-40 q -37,0 -69.5,8 -32.5,8 -55.5,22 z m 345,-70 h -40 q 14,7 22.5,25.5 8.5,18.5 12,39 3.5,20.5 4.5,35 1,14.5 1,20.5 0,48 -17,83 -17,35 -39.5,56 -22.5,21 -39,30 -16.5,9 -24.5,11 v 40 q 10,-4 32.5,-16 Q 675,872 705,845.5 735,819 757.5,777 780,735 780,680 q 0,-6 -1,-20.5 -1,-14.5 -4.5,-35 -3.5,-20.5 -12,-39 Q 754,567 740,560 z M 420,200 q -8,0 -14,6 -6,6 -6,14 0,8 6,14 6,6 14,6 8,0 14,-6 6,-6 6,-14 0,-8 -6,-14 -6,-6 -14,-6 z m 160,600 q 8,0 14,-6 6,-6 6,-14 0,-8 -6,-14 -6,-6 -14,-6 -8,0 -14,6 -6,6 -6,14 0,8 6,14 6,6 14,6 z M 780,500 760,480 H 560 l -20,20 20,20 h 200 z m -560,0 20,20 h 200 l 20,-20 -20,-20 H 240 z"
       id="path6"
       inkscape:connector-curvature="0"
       style="fill:currentColor" />
  </g>
  <path
     style="fill:#ececec;fill-opacity:1;stroke:#000000;stroke-width:0;stroke-linecap:round;stroke-linejoin:miter;stroke-miterlimit:3.79999995;stroke-opacity:1;stroke-dasharray:none;stroke-dashoffset:0"
     d="M 334.52811,719.75762 C 291.2408,693.69136 257.98082,662.52503 233.60902,625.19117 200.8618,575.02747 190.10153,527.17726 197.59454,465.03718 c 8.23696,-68.30967 24.90299,-96.98633 56.36561,-96.98633 17.91571,0 17.96527,0.0514 9.15882,9.50401 -23.84635,25.59606 -36.12911,122.82005 -22.30423,176.54884 4.23269,16.44982 13.89805,40.74919 21.47858,53.99859 16.9071,29.55053 56.16718,67.33044 82.60763,79.49318 18.59531,8.55393 19.69574,10.15751 19.80931,28.86639 0.0661,10.89514 -0.5275,19.80933 -1.31921,19.80933 -0.7917,0 -13.78003,-7.43111 -28.86294,-16.51357 l 0,0 z"
     id="path2989"
     inkscape:connector-curvature="0" />
  <path
     style="fill:#ececec;fill-opacity:1;stroke:#000000;stroke-width:0;stroke-linecap:round;stroke-linejoin:miter;stroke-miterlimit:3.79999995;stroke-opacity:1;stroke-dasharray:none;stroke-dashoffset:0"
     d="m 400.12107,621.74335 c -9.29684,-9.29685 -9.29684,-18.00341 0,-27.30026 8.66525,-8.66523 9.28825,-8.73957 20.94807,-2.49944 11.73168,6.27862 11.73168,26.02052 0,32.29914 -11.65982,6.24014 -12.28282,6.16579 -20.94807,-2.49944 z"
     id="path2991"
     inkscape:connector-curvature="0" />
  <path
     style="fill:#ececec;fill-opacity:1;stroke:#000000;stroke-width:0;stroke-linecap:round;stroke-linejoin:miter;stroke-miterlimit:3.79999995;stroke-opacity:1;stroke-dasharray:none;stroke-dashoffset:0"
     d="m 574.57627,475.41556 c -18.68876,-9.55928 -76.55189,-23.46641 -97.63621,-23.46641 -16.6452,0 -16.51025,0.44076 -6.3734,-20.81644 7.47627,-15.6779 9.00143,-16.47169 31.64785,-16.47169 27.2647,0 70.19033,10.20279 93.1246,22.13434 l 15.68913,8.16227 -10.06921,19.40115 -10.0692,19.40114 -16.31356,-8.34436 z"
     id="path2993"
     inkscape:connector-curvature="0" />
  <path
     style="fill:none;stroke:#000000;stroke-width:0;stroke-linecap:round;stroke-linejoin:miter;stroke-miterlimit:3.79999995;stroke-opacity:1;stroke-dasharray:none;stroke-dashoffset:0"
     d="m 207.14228,310.62516 -10.16064,-10.8155 10.81382,-10.15908 c 10.46405,-9.83045 14.28311,-10.15906 118.06959,-10.15906 106.16607,0 107.35898,0.10989 117.4164,10.81552 l 10.16064,10.81551 -10.81382,10.15906 c -10.46405,9.83047 -14.28311,10.15907 -118.06959,10.15907 -106.16607,0 -107.35898,-0.10989 -117.4164,-10.81552 z"
     id="path2995"
     inkscape:connector-curvature="0" />
  <path
     style="fill:none;stroke:#000000;stroke-width:0;stroke-linecap:round;stroke-linejoin:miter;stroke-miterlimit:3.79999995;stroke-opacity:1;stroke-dasharray:none;stroke-dashoffset:0"
     d="m 556.71855,310.62516 -10.16064,-10.8155 10.81382,-10.15908 c 10.46405,-9.83045 14.28311,-10.15906 118.06959,-10.15906 106.16607,0 107.35898,0.10989 117.4164,10.81552 l 10.16064,10.81551 -10.81382,10.15906 c -10.46405,9.83047 -14.2831,10.15907 -118.06959,10.15907 -106.16607,0 -107.35898,-0.10989 -117.4164,-10.81552 z"
     id="path2997"
     inkscape:connector-curvature="0" />
  <path
     style="fill:#ececec;fill-opacity:1;stroke:#000000;stroke-width:0;stroke-linecap:round;stroke-linejoin:miter;stroke-miterlimit:3.79999995;stroke-opacity:1;stroke-dasharray:none;stroke-dashoffset:0"
     d="m 460.38136,181.50757 c -20.96025,-4.20714 -72.24577,-22.70194 -72.24577,-26.05357 0,-1.19972 4.12713,-10.27115 9.1714,-20.15873 l 9.17139,-17.97742 26.95149,10.81164 c 14.82331,5.9464 44.25551,13.31236 65.40488,16.36881 21.14936,3.05644 38.45339,6.29344 38.45339,7.19333 0,0.8999 -3.53467,9.04844 -7.8548,18.10786 -7.3682,15.45125 -9.17292,16.44006 -29.13136,15.96101 -11.7021,-0.28088 -29.66639,-2.1947 -39.92062,-4.25293 z"
     id="path2999"
     inkscape:connector-curvature="0" />
  <path
     style="fill:#ececec;fill-opacity:1;stroke:#000000;stroke-width:0;stroke-linecap:round;stroke-linejoin:miter;stroke-miterlimit:3.79999995;stroke-opacity:1;stroke-dasharray:none;stroke-dashoffset:0"
     d="m 571.73026,-2.894493 c -3.83233,-15.269232 7.10036,-27.477714 20.73192,-23.151227 21.17325,6.720142 15.74008,35.198262 -6.71528,35.198262 -7.93465,0 -11.83423,-3.351612 -14.01664,-12.047035 z"
     id="path3001"
     inkscape:connector-curvature="0" />
  <path
     style="fill:#ececec;fill-opacity:1;stroke:#000000;stroke-width:0;stroke-linecap:round;stroke-linejoin:miter;stroke-miterlimit:3.79999995;stroke-opacity:1;stroke-dasharray:none;stroke-dashoffset:0"
     d="m 740.11625,216.01548 c 6.29503,-9.27622 13.59226,-24.48278 16.21609,-33.79237 8.47479,-30.0693 11.05624,-95.933651 4.98872,-127.283761 C 750.56455,-0.638063 709.98937,-56.504478 659.63983,-85.061666 636.571,-98.145814 635.1695,-99.998698 635.1695,-117.41318 l 0,-18.47246 28.93919,15.42163 c 16.43599,8.7587 44.23338,30.525109 64.33821,50.379262 61.04056,60.279494 84.27123,124.961452 74.06709,206.227568 -5.33775,42.51006 -11.68227,62.42159 -25.99756,81.59023 -9.40157,12.58901 -14.39896,15.1483 -29.57927,15.1483 l -18.26639,0 11.44548,-16.86587 0,0 z"
     id="path3003"
     inkscape:connector-curvature="0" />
  <path
     style="fill:#ececec;fill-opacity:1;fill-rule:nonzero;stroke-linecap:butt;stroke-linejoin:round"
     d="m 208.07449,310.62516 -10.16065,-10.8155 10.81383,-10.15908 c 10.46458,-9.83096 14.28063,-10.15906 118.15966,-10.15906 101.61287,0 107.79875,0.50047 115.82636,9.37088 8.23342,9.09781 8.16287,9.70899 -2.42059,20.97457 l -10.90111,11.60371 -105.57843,0 c -104.41155,0 -105.69073,-0.11953 -115.73907,-10.81552 z"
     id="path2996"
     inkscape:connector-curvature="0" />
  <path
     style="fill:#ececec;fill-opacity:1;fill-rule:nonzero;stroke-linecap:butt;stroke-linejoin:round"
     d="m 557.65076,310.62516 -10.16065,-10.8155 10.81383,-10.15908 c 10.46405,-9.83045 14.2831,-10.15906 118.06958,-10.15906 106.16608,0 107.35898,0.10989 117.4164,10.81552 l 10.16065,10.81551 -10.81384,10.15906 c -10.46403,9.83047 -14.28309,10.15907 -118.06957,10.15907 -106.16608,0 -107.35898,-0.10989 -117.4164,-10.81552 z"
     id="path2998"
     inkscape:connector-curvature="0" />
</svg>
