<?xml version="1.0" encoding="UTF-8" standalone="no"?>
<svg
   xmlns:dc="http://purl.org/dc/elements/1.1/"
   xmlns:cc="http://creativecommons.org/ns#"
   xmlns:rdf="http://www.w3.org/1999/02/22-rdf-syntax-ns#"
   xmlns:svg="http://www.w3.org/2000/svg"
   xmlns="http://www.w3.org/2000/svg"
   xmlns:sodipodi="http://sodipodi.sourceforge.net/DTD/sodipodi-0.dtd"
   xmlns:inkscape="http://www.inkscape.org/namespaces/inkscape"
   viewBox="0 -200 1000 1000"
   id="svg2"
   version="1.1"
   inkscape:version="0.48.2 r9819"
   width="100%"
   height="100%"
   sodipodi:docname="bp.svg">
  <metadata
     id="metadata12">
    <rdf:RDF>
      <cc:Work
         rdf:about="">
        <dc:format>image/svg+xml</dc:format>
        <dc:type
           rdf:resource="http://purl.org/dc/dcmitype/StillImage" />
      </cc:Work>
    </rdf:RDF>
  </metadata>
  <defs
     id="defs10" />
  <sodipodi:namedview
     pagecolor="#ffffff"
     bordercolor="#666666"
     borderopacity="1"
     objecttolerance="10"
     gridtolerance="10"
     guidetolerance="10"
     inkscape:pageopacity="0"
     inkscape:pageshadow="2"
     inkscape:window-width="696"
     inkscape:window-height="709"
     id="namedview8"
     showgrid="false"
     inkscape:zoom="0.236"
     inkscape:cx="500"
     inkscape:cy="500"
     inkscape:window-x="0"
     inkscape:window-y="0"
     inkscape:window-maximized="0"
     inkscape:current-layer="svg2" />
  <g
     transform="matrix(1.12,0,0,-1.12,-60,860)"
     id="g4">
    <path
       d="m 500,620 q -50,0 -85,-35 -35,-35 -35,-85 0,-50 35,-85 35,-35 85,-35 50,0 85,35 35,35 35,85 0,50 -35,85 -35,35 -85,35 z m 0,40 q 32,0 61.5,-12.5 Q 591,635 613,613 635,591 647.5,561.5 660,532 660,500 660,468 647.5,438.5 635,409 613,387 591,365 561.5,352.5 532,340 500,340 468,340 438.5,352.5 409,365 387,387 365,409 352.5,438.5 340,468 340,500 q 0,32 12.5,61.5 Q 365,591 387,613 409,635 438.5,647.5 468,660 500,660 z m 0,60 Q 455,720 415,703 375,686 344.5,655.5 314,625 297,585 q -17,-40 -17,-85 0,-45 17,-85 17,-40 47.5,-70.5 Q 375,314 415,297 q 40,-17 85,-17 45,0 85,17 40,17 70.5,47.5 30.5,30.5 47.5,70.5 17,40 17,85 0,45 -17,85 -17,40 -47.5,70.5 Q 625,686 585,703 q -40,17 -85,17 z"
       id="path6"
       inkscape:connector-curvature="0"
       style="fill:currentColor" />
  </g>
  <path
     style="fill:#f9f9f9;fill-opacity:1;stroke:#000000;stroke-width:0;stroke-linecap:round;stroke-linejoin:miter;stroke-miterlimit:3.79999995;stroke-opacity:1;stroke-dasharray:none;stroke-dashoffset:0"
     d="M 458.47777,470.15864 C 403.91065,455.46498 365.79924,423.8297 341.5317,373.08475 328.39602,345.6172 326.77966,337.54648 326.77966,299.42563 c 0,-38.57596 1.5008,-45.85376 15.16908,-73.55931 66.47886,-134.752502 249.62366,-134.752502 316.10252,0 13.66828,27.70555 15.16908,34.98335 15.16908,73.55931 0,38.12085 -1.61636,46.19157 -14.75204,73.65912 -24.70775,51.66545 -62.54447,82.61072 -118.98165,97.31074 -32.95988,8.58496 -48.41557,8.53978 -81.00888,-0.23685 z M 567.56406,419.15266 C 611.58212,393.35635 634.76107,352.00699 634.62271,299.52542 634.47526,243.59154 609.8346,203.31335 560.76244,178.7917 458.68812,127.78456 343.8143,215.74355 366.95116,327.1932 c 9.55652,46.03355 42.4863,85.4798 84.39513,101.09606 11.51925,4.29235 31.3656,6.08597 56.20948,5.07993 31.28022,-1.26668 42.41051,-3.90356 60.00829,-14.21653 z"
     id="path2989"
     inkscape:connector-curvature="0" />
  <path
     style="fill:#ececec;fill-opacity:1;stroke:#000000;stroke-width:0;stroke-linecap:round;stroke-linejoin:miter;stroke-miterlimit:3.79999995;stroke-opacity:1;stroke-dasharray:none;stroke-dashoffset:0"
     d="m 471.52542,472.0008 c -11.74576,-2.50376 -23.49153,-5.01978 -26.10169,-5.59113 -11.35184,-2.4849 -60.90933,-33.74363 -71.64197,-45.18868 -6.46926,-6.89866 -19.15736,-27.24522 -28.19576,-45.21455 -15.15761,-30.135 -16.43316,-36.03016 -16.42971,-75.93221 0.003,-38.22927 1.62478,-46.57239 13.94172,-71.73525 15.5771,-31.82319 31.53146,-51.06666 59.61385,-71.90363 26.17896,-19.42462 55.38485,-27.75738 97.28814,-27.75738 41.90329,0 71.10918,8.33276 97.28814,27.75738 28.08239,20.83697 44.03675,40.08044 59.61385,71.90363 12.31694,25.16286 13.93842,33.50598 13.94172,71.73525 0.003,39.83032 -1.29348,45.8537 -16.35568,75.96126 -19.35306,38.68449 -36.13909,56.85792 -67.40983,72.98146 -12.65572,6.52542 -24.5794,14 -26.49705,16.61017 -1.91767,2.61016 -3.51936,3.19692 -3.55933,1.30391 -0.04,-1.89303 -4.87776,-1.65021 -10.75063,0.5396 -19.12768,7.13208 -52.92892,9.18071 -74.74577,4.53017 z M 547.635,427.59844 C 637.41821,395.92107 665.19019,272.82861 597.76611,205.40453 567.70381,175.34223 545.98775,166.75796 500,166.75796 c -45.98775,0 -67.70381,8.58427 -97.76611,38.64657 -40.39435,40.39435 -49.74598,104.04401 -22.97689,156.3868 14.98166,29.29428 47.38804,58.32692 75.05104,67.23768 22.70669,7.31423 70.62332,6.57974 93.32696,-1.43057 l 0,0 z"
     id="path2984"
     inkscape:connector-curvature="0" />
</svg>
