<?xml version="1.0" encoding="UTF-8" standalone="no"?>
<svg
   xmlns:dc="http://purl.org/dc/elements/1.1/"
   xmlns:cc="http://creativecommons.org/ns#"
   xmlns:rdf="http://www.w3.org/1999/02/22-rdf-syntax-ns#"
   xmlns:svg="http://www.w3.org/2000/svg"
   xmlns="http://www.w3.org/2000/svg"
   xmlns:sodipodi="http://sodipodi.sourceforge.net/DTD/sodipodi-0.dtd"
   xmlns:inkscape="http://www.inkscape.org/namespaces/inkscape"
   viewBox="0 -200 1000 1000"
   id="svg2"
   version="1.1"
   inkscape:version="0.48.2 r9819"
   width="100%"
   height="100%"
   sodipodi:docname="bq.svg">
  <metadata
     id="metadata12">
    <rdf:RDF>
      <cc:Work
         rdf:about="">
        <dc:format>image/svg+xml</dc:format>
        <dc:type
           rdf:resource="http://purl.org/dc/dcmitype/StillImage" />
      </cc:Work>
    </rdf:RDF>
  </metadata>
  <defs
     id="defs10" />
  <sodipodi:namedview
     pagecolor="#ffffff"
     bordercolor="#666666"
     borderopacity="1"
     objecttolerance="10"
     gridtolerance="10"
     guidetolerance="10"
     inkscape:pageopacity="0"
     inkscape:pageshadow="2"
     inkscape:window-width="696"
     inkscape:window-height="737"
     id="namedview8"
     showgrid="false"
     inkscape:zoom="0.236"
     inkscape:cx="500"
     inkscape:cy="500"
     inkscape:window-x="0"
     inkscape:window-y="0"
     inkscape:window-maximized="0"
     inkscape:current-layer="svg2" />
  <g
     transform="matrix(1.1,0,0,-1.1,-50,850)"
     id="g4">
    <path
       d="m 500,520 q 8,0 14,-6 6,-6 6,-14 0,-8 -6,-14 -6,-6 -14,-6 -8,0 -14,6 -6,6 -6,14 0,8 6,14 6,6 14,6 z M 240,780 q 8,0 14,-6 6,-6 6,-14 0,-8 -6,-14 -6,-6 -14,-6 -8,0 -14,6 -6,6 -6,14 0,8 6,14 6,6 14,6 z M 140,520 q 8,0 14,-6 6,-6 6,-14 0,-8 -6,-14 -6,-6 -14,-6 -8,0 -14,6 -6,6 -6,14 0,8 6,14 6,6 14,6 z M 240,260 q 8,0 14,-6 6,-6 6,-14 0,-8 -6,-14 -6,-6 -14,-6 -8,0 -14,6 -6,6 -6,14 0,8 6,14 6,6 14,6 z M 500,160 q 8,0 14,-6 6,-6 6,-14 0,-8 -6,-14 -6,-6 -14,-6 -8,0 -14,6 -6,6 -6,14 0,8 6,14 6,6 14,6 z m 260,100 q 8,0 14,-6 6,-6 6,-14 0,-8 -6,-14 -6,-6 -14,-6 -8,0 -14,6 -6,6 -6,14 0,8 6,14 6,6 14,6 z m 100,260 q 8,0 14,-6 6,-6 6,-14 0,-8 -6,-14 -6,-6 -14,-6 -8,0 -14,6 -6,6 -6,14 0,8 6,14 6,6 14,6 z M 760,780 q 8,0 14,-6 6,-6 6,-14 0,-8 -6,-14 -6,-6 -14,-6 -8,0 -14,6 -6,6 -6,14 0,8 6,14 6,6 14,6 z M 500,880 q 8,0 14,-6 6,-6 6,-14 0,-8 -6,-14 -6,-6 -14,-6 -8,0 -14,6 -6,6 -6,14 0,8 6,14 6,6 14,6 z M 960,500 q 0,41 -29.5,70.5 Q 901,600 860,600 838,600 818,590.5 798,581 784,565 l -62,26 30,69 h 8 q 41,0 70.5,29.5 Q 860,719 860,760 860,801 830.5,830.5 801,860 760,860 719,860 689.5,830.5 660,801 660,760 v -8 l -70,-30 -26,62 q 17,14 26.5,34 9.5,20 9.5,42 0,41 -29.5,70.5 Q 541,960 500,960 459,960 429.5,930.5 400,901 400,860 q 0,-22 9.5,-42 9.5,-20 26.5,-34 l -26,-62 -70,30 v 8 q 0,41 -29.5,70.5 Q 281,860 240,860 199,860 169.5,830.5 140,801 140,760 140,719 169.5,689.5 199,660 240,660 h 8 l 30,-69 -62,-26 Q 202,581 182,590.5 162,600 140,600 99,600 69.5,570.5 40,541 40,500 40,459 69.5,429.5 99,400 140,400 q 22,0 42,9.5 20,9.5 34,25.5 l 62,-26 -30,-69 h -8 Q 199,340 169.5,310.5 140,281 140,240 140,199 169.5,169.5 199,140 240,140 q 41,0 70.5,29.5 Q 340,199 340,240 v 8 l 70,30 26,-62 Q 419,202 409.5,182 400,162 400,140 400,99 429.5,69.5 459,40 500,40 541,40 570.5,69.5 600,99 600,140 q 0,22 -9.5,42 -9.5,20 -26.5,34 l 26,62 70,-30 v -8 q 0,-41 29.5,-70.5 Q 719,140 760,140 q 41,0 70.5,29.5 Q 860,199 860,240 860,281 830.5,310.5 801,340 760,340 h -8 l -30,69 62,26 q 14,-16 34,-25.5 20,-9.5 42,-9.5 41,0 70.5,29.5 Q 960,459 960,500 z M 500,640 q 58,0 99,-41 41,-41 41,-99 0,-58 -41,-99 -41,-41 -99,-41 -58,0 -99,41 -41,41 -41,99 0,58 41,99 41,41 99,41 z m 0,-40 Q 459,600 429.5,570.5 400,541 400,500 400,459 429.5,429.5 459,400 500,400 q 41,0 70.5,29.5 Q 600,459 600,500 600,541 570.5,570.5 541,600 500,600 z"
       id="path6"
       inkscape:connector-curvature="0"
       style="fill:currentColor" />
  </g>
  <path
     style="fill:#f9f9f9;fill-opacity:1;stroke:#000000;stroke-width:0;stroke-linecap:round;stroke-linejoin:miter;stroke-miterlimit:3.79999995;stroke-opacity:1;stroke-dasharray:none;stroke-dashoffset:0"
     d="m 774.06779,598.30508 c -7.70081,-7.70081 -8.55957,-11.35953 -4.46294,-19.01417 7.57302,-14.15031 18.04383,-16.08667 28.80381,-5.32669 10.75999,10.75998 8.82362,21.23079 -5.32668,28.80381 -7.65464,4.09664 -11.31337,3.23787 -19.01419,-4.46295 z"
     id="path2989"
     inkscape:connector-curvature="0" />
  <path
     style="fill:#f9f9f9;fill-opacity:1;stroke:#000000;stroke-width:0;stroke-linecap:round;stroke-linejoin:miter;stroke-miterlimit:3.79999995;stroke-opacity:1;stroke-dasharray:none;stroke-dashoffset:0"
     d="m 881.45702,311.87646 c -12.3818,-14.91915 5.80405,-37.83708 21.954,-27.6666 16.13798,10.16295 10.3886,34.43421 -8.15679,34.43421 -4.49933,0 -10.70807,-3.04543 -13.79721,-6.76761 z"
     id="path2991"
     inkscape:connector-curvature="0" />
  <path
     style="fill:#f9f9f9;fill-opacity:1;stroke:#000000;stroke-width:0;stroke-linecap:round;stroke-linejoin:miter;stroke-miterlimit:3.79999995;stroke-opacity:1;stroke-dasharray:none;stroke-dashoffset:0"
     d="m 772.3532,24.464905 c -12.88634,-18.397852 5.94297,-37.471632 24.29906,-24.614524 12.28435,8.604288 12.73845,16.604148 1.51887,26.757731 -11.31512,10.240032 -17.50423,9.726255 -25.81793,-2.143207 z"
     id="path2993"
     inkscape:connector-curvature="0" />
  <path
     style="fill:#f9f9f9;fill-opacity:1;stroke:#000000;stroke-width:0;stroke-linecap:round;stroke-linejoin:miter;stroke-miterlimit:3.79999995;stroke-opacity:1;stroke-dasharray:none;stroke-dashoffset:0"
     d="m 485.27057,-84.309981 c -12.38179,-14.919146 5.80406,-37.837079 21.95401,-27.666599 16.13798,10.16295 10.3886,34.434206 -8.15679,34.434206 -4.49933,0 -10.70808,-3.045427 -13.79722,-6.767607 z"
     id="path2995"
     inkscape:connector-curvature="0" />
  <path
     style="fill:#f9f9f9;fill-opacity:1;stroke:#000000;stroke-width:0;stroke-linecap:round;stroke-linejoin:miter;stroke-miterlimit:3.79999995;stroke-opacity:1;stroke-dasharray:none;stroke-dashoffset:0"
     d="m 200.97563,27.587057 c -8.9057,-10.730709 -4.14608,-27.995462 8.20042,-29.745705 20.61582,-2.922502 31.01531,15.030235 16.88932,29.156226 -9.12959,9.129604 -17.83237,9.334072 -25.08974,0.589479 z"
     id="path2997"
     inkscape:connector-curvature="0" />
  <path
     style="fill:#f9f9f9;fill-opacity:1;stroke:#000000;stroke-width:0;stroke-linecap:round;stroke-linejoin:miter;stroke-miterlimit:3.79999995;stroke-opacity:1;stroke-dasharray:none;stroke-dashoffset:0"
     d="m 89.084132,311.87646 c -12.381787,-14.91915 5.804062,-37.83708 21.954008,-27.6666 16.13797,10.16295 10.3886,34.43421 -8.15678,34.43421 -4.499335,0 -10.708087,-3.04543 -13.797228,-6.76761 z"
     id="path2999"
     inkscape:connector-curvature="0" />
  <path
     style="fill:#ececec;fill-opacity:1;stroke:#000000;stroke-width:0;stroke-linecap:round;stroke-linejoin:miter;stroke-miterlimit:3.79999995;stroke-opacity:1;stroke-dasharray:none;stroke-dashoffset:0"
     d="m 199.20904,599.85876 c -5.53903,-5.53903 -3.28948,-23.56617 3.66051,-29.33414 15.23897,-12.64723 38.32086,10.43465 25.67363,25.67362 -5.76797,6.95 -23.79511,9.19954 -29.33414,3.66052 z"
     id="path3001"
     inkscape:connector-curvature="0" />
  <path
     style="fill:#ececec;fill-opacity:1;stroke:#000000;stroke-width:0;stroke-linecap:round;stroke-linejoin:miter;stroke-miterlimit:3.79999995;stroke-opacity:1;stroke-dasharray:none;stroke-dashoffset:0"
     d="m 772.29165,593.02108 c -5.88894,-8.40764 -5.98128,-10.92952 -0.59724,-16.31356 3.5027,-3.5027 11.762,-6.36854 18.35402,-6.36854 10.11134,0 11.98547,2.1085 11.98547,13.48437 0,12.24887 -6.7564,19.14275 -18.76099,19.14275 -2.20852,0 -7.1501,-4.47526 -10.98126,-9.94502 z"
     id="path3003"
     inkscape:connector-curvature="0" />
  <path
     style="fill:#ececec;fill-opacity:1;stroke:#000000;stroke-width:0;stroke-linecap:round;stroke-linejoin:miter;stroke-miterlimit:3.79999995;stroke-opacity:1;stroke-dasharray:none;stroke-dashoffset:0"
     d="m 434.69354,434.87341 c -112.85639,-56.395 -112.85639,-213.35182 0,-269.74683 23.89913,-11.94253 34.03773,-14.27912 61.95791,-14.27912 44.9845,0 71.97095,10.08011 103.06324,38.49672 42.10565,38.48219 58.87352,86.2051 48.29664,137.45667 -7.80806,37.83482 -18.7722,56.87129 -48.29664,83.85497 -31.09229,28.41661 -58.07874,38.49672 -103.06324,38.49672 -27.92018,0 -38.05878,-2.33658 -61.95791,-14.27913 z m 123.18577,-39.63527 c 13.84289,-8.55841 27.94117,-22.70174 36.61611,-36.73313 12.48624,-20.196 14.10627,-26.91502 14.10627,-58.50501 0,-31.58999 -1.62003,-38.30901 -14.10627,-58.50501 -26.48163,-42.83304 -77.42071,-62.22543 -128.09132,-48.76408 -31.91491,8.47865 -67.10843,46.60647 -74.81788,81.05594 -8.94149,39.95481 -0.53706,70.93441 27.42466,101.09022 26.39979,28.47127 48.78174,37.57366 87.72046,35.67457 22.07371,-1.07657 33.7978,-4.58672 51.14797,-15.3135 l 0,0 z"
     id="path3005"
     inkscape:connector-curvature="0" />
  <path
     style="fill:#ececec;fill-opacity:1;stroke:#000000;stroke-width:0;stroke-linecap:round;stroke-linejoin:miter;stroke-miterlimit:3.79999995;stroke-opacity:1;stroke-dasharray:none;stroke-dashoffset:0"
     d="m 485.27057,311.87646 c -12.38179,-14.91915 5.80406,-37.83708 21.95401,-27.6666 16.13798,10.16295 10.3886,34.43421 -8.15679,34.43421 -4.49933,0 -10.70808,-3.04543 -13.79722,-6.76761 z"
     id="path3007"
     inkscape:connector-curvature="0" />
  <path
     style="fill:#ececec;fill-opacity:1;stroke:#000000;stroke-width:0;stroke-linecap:round;stroke-linejoin:miter;stroke-miterlimit:3.79999995;stroke-opacity:1;stroke-dasharray:none;stroke-dashoffset:0"
     d="m 92.244718,312.0026 c -13.818321,-13.81834 3.34642,-37.83844 18.218942,-25.49535 5.69617,4.7274 9.38172,27.4758 4.45145,27.4758 -1.07211,0 -4.99658,1.16935 -8.72105,2.59857 -3.72446,1.42921 -10.001662,-0.63136 -13.949342,-4.57902 z"
     id="path3009"
     inkscape:connector-curvature="0" />
  <path
     style="fill:#ececec;fill-opacity:1;stroke:#000000;stroke-width:0;stroke-linecap:round;stroke-linejoin:miter;stroke-miterlimit:3.79999995;stroke-opacity:1;stroke-dasharray:none;stroke-dashoffset:0"
     d="m 203.42615,26.997578 c -4.02845,-4.028453 -7.32446,-9.122278 -7.32446,-11.319616 0,-8.146039 14.10791,-17.738688 22.76053,-15.475977 12.34966,3.229512 15.2928,22.077759 4.49993,28.81802 -10.82393,6.759654 -11.19116,6.722408 -19.936,-2.022427 z"
     id="path3011"
     inkscape:connector-curvature="0" />
  <path
     style="fill:#ececec;fill-opacity:1;stroke:#000000;stroke-width:0;stroke-linecap:round;stroke-linejoin:miter;stroke-miterlimit:3.79999995;stroke-opacity:1;stroke-dasharray:none;stroke-dashoffset:0"
     d="m 488.43116,-84.183855 c -13.81832,-13.818321 3.34642,-37.838425 18.21893,-25.495335 5.69618,4.7274 9.38173,27.475797 4.45146,27.475797 -1.07211,0 -4.99658,1.169355 -8.72105,2.598563 -3.72446,1.429219 -10.00166,-0.631345 -13.94934,-4.579025 z"
     id="path3013"
     inkscape:connector-curvature="0" />
  <path
     style="fill:#ececec;fill-opacity:1;stroke:#000000;stroke-width:0;stroke-linecap:round;stroke-linejoin:miter;stroke-miterlimit:3.79999995;stroke-opacity:1;stroke-dasharray:none;stroke-dashoffset:0"
     d="M 776.31632,26.582658 C 767.95118,18.217521 767.50628,10.120839 775,2.627122 c 11.88392,-11.883916 32.8218,0.743281 28.51856,17.19894 -3.06346,11.714659 -18.42791,15.530933 -27.20224,6.756596 z"
     id="path3015"
     inkscape:connector-curvature="0" />
  <path
     style="fill:#ececec;fill-opacity:1;stroke:#000000;stroke-width:0;stroke-linecap:round;stroke-linejoin:miter;stroke-miterlimit:3.79999995;stroke-opacity:1;stroke-dasharray:none;stroke-dashoffset:0"
     d="m 884.61761,312.0026 c -13.81833,-13.81834 3.34641,-37.83844 18.21892,-25.49535 5.69618,4.7274 9.38173,27.4758 4.45146,27.4758 -1.07211,0 -4.99658,1.16935 -8.72104,2.59857 -3.72447,1.42921 -10.00167,-0.63136 -13.94934,-4.57902 z"
     id="path3017"
     inkscape:connector-curvature="0" />
  <path
     style="fill:#ececec;fill-opacity:1;stroke:#000000;stroke-width:0;stroke-linecap:round;stroke-linejoin:miter;stroke-miterlimit:3.79999995;stroke-opacity:1;stroke-dasharray:none;stroke-dashoffset:0"
     d=""
     id="path3019"
     inkscape:connector-curvature="0" />
  <path
     style="fill:#ececec;fill-opacity:1;stroke:#000000;stroke-width:0;stroke-linecap:round;stroke-linejoin:miter;stroke-miterlimit:3.79999995;stroke-opacity:1;stroke-dasharray:none;stroke-dashoffset:0"
     d="m 485.27057,708.0629 c -12.38179,-14.91915 5.80406,-37.83708 21.95401,-27.6666 16.13798,10.16295 10.3886,34.4342 -8.15679,34.4342 -4.49933,0 -10.70808,-3.04542 -13.79722,-6.7676 z"
     id="path3021"
     inkscape:connector-curvature="0" />
  <path
     style="fill:#ececec;fill-opacity:1;stroke:#000000;stroke-width:0;stroke-linecap:round;stroke-linejoin:miter;stroke-miterlimit:3.79999995;stroke-opacity:1;stroke-dasharray:none;stroke-dashoffset:0"
     d="m 201.00998,596.27252 c -8.25769,-9.94991 2.02468,-26.93117 15.16879,-25.05113 12.93769,1.85051 16.12105,17.60605 5.1745,25.61037 -10.63431,7.77598 -13.49084,7.69745 -20.34329,-0.55924 z"
     id="path3023"
     inkscape:connector-curvature="0" />
  <path
     style="fill:#ececec;fill-opacity:1;stroke:#000000;stroke-width:0;stroke-linecap:round;stroke-linejoin:miter;stroke-miterlimit:3.79999995;stroke-opacity:1;stroke-dasharray:none;stroke-dashoffset:0"
     d="m 486.89574,307.31843 c -4.64083,-12.0938 1.86386,-22.08942 13.31647,-20.46313 7.70341,1.09388 10.50813,4.60233 10.50813,13.1447 0,8.54237 -2.80472,12.05082 -10.50813,13.1447 -6.303,0.89504 -11.63197,-1.43651 -13.31647,-5.82627 z"
     id="path3025"
     inkscape:connector-curvature="0" />
</svg>
