<?xml version="1.0" encoding="UTF-8" standalone="no"?>
<svg
   xmlns:dc="http://purl.org/dc/elements/1.1/"
   xmlns:cc="http://creativecommons.org/ns#"
   xmlns:rdf="http://www.w3.org/1999/02/22-rdf-syntax-ns#"
   xmlns:svg="http://www.w3.org/2000/svg"
   xmlns="http://www.w3.org/2000/svg"
   xmlns:sodipodi="http://sodipodi.sourceforge.net/DTD/sodipodi-0.dtd"
   xmlns:inkscape="http://www.inkscape.org/namespaces/inkscape"
   viewBox="0 -200 1000 1000"
   id="svg2"
   version="1.1"
   inkscape:version="0.48.2 r9819"
   width="100%"
   height="100%"
   sodipodi:docname="br.svg">
  <metadata
     id="metadata12">
    <rdf:RDF>
      <cc:Work
         rdf:about="">
        <dc:format>image/svg+xml</dc:format>
        <dc:type
           rdf:resource="http://purl.org/dc/dcmitype/StillImage" />
      </cc:Work>
    </rdf:RDF>
  </metadata>
  <defs
     id="defs10" />
  <sodipodi:namedview
     pagecolor="#ffffff"
     bordercolor="#666666"
     borderopacity="1"
     objecttolerance="10"
     gridtolerance="10"
     guidetolerance="10"
     inkscape:pageopacity="0"
     inkscape:pageshadow="2"
     inkscape:window-width="696"
     inkscape:window-height="723"
     id="namedview8"
     showgrid="false"
     inkscape:zoom="0.236"
     inkscape:cx="500"
     inkscape:cy="500"
     inkscape:window-x="0"
     inkscape:window-y="0"
     inkscape:window-maximized="0"
     inkscape:current-layer="svg2" />
  <g
     transform="matrix(1.12,0,0,-1.12,-60,860)"
     id="g4">
    <path
       d="M 858,540 Q 851,601 824,656.5 797,712 754,755 711,798 656,824.5 601,851 540,858 v -61 q -19,3 -40,3 -20,0 -40,-3 v 61 Q 399,851 344,824.5 289,798 246,755 203,712 176,657 149,602 142,540 h 61 q -3,-19 -3,-40 0,-20 3,-40 h -61 q 7,-61 34,-116 27,-55 70,-98 43,-43 98,-70 55,-27 116,-34 v 61 q 20,-3 40,-3 21,0 40,3 v -61 q 61,7 116,34 55,27 98,70 43,43 70,98 27,55 34,116 h -61 q 3,20 3,40 0,21 -3,40 h 61 z M 420,727 Q 369,709 330.5,670 292,631 274,580 h -83 q 7,24 13,40 h 43 q 21,44 55,78 34,34 78,55 v 43 q 15,7 40,14 v -83 z m 0,-453 v -84 q -25,7 -40,14 v 44 q -43,20 -77.5,54 -34.5,34 -55.5,78 h -43 q -6,16 -13,40 h 83 Q 292,369 330.5,330.5 369,292 420,274 z m 160,0 q 51,18 89.5,56.5 Q 708,369 726,420 h 84 q -3,-14 -13,-40 H 753 Q 733,337 698.5,302.5 664,268 620,247 v -43 q -15,-7 -40,-14 v 84 z m 146,306 q -18,51 -56.5,90 -38.5,39 -89.5,57 v 83 q 24,-7 40,-13 V 753 Q 663,733 697.5,698.5 732,664 753,620 h 44 q 6,-16 13,-40 h -84 z"
       id="path6"
       inkscape:connector-curvature="0"
       style="fill:currentColor" />
  </g>
  <path
     style="fill:#ececec;fill-opacity:1;stroke:#000000;stroke-width:0;stroke-linecap:round;stroke-linejoin:miter;stroke-miterlimit:3.79999995;stroke-opacity:1;stroke-dasharray:none;stroke-dashoffset:0"
     d="m 590.43658,599.06557 0.2671,-44.21812 34.13968,-16.17474 c 44.61154,-21.13614 94.03232,-70.3084 116.2062,-115.62188 l 15.62584,-31.93219 42.50975,0 c 23.38037,0 42.50977,1.35392 42.50977,3.00872 0,1.6548 -2.47363,11.26498 -5.49696,21.35594 -5.48836,18.31849 -5.53659,18.34721 -30.80689,18.34721 l -25.30993,0 -14.5516,25.78402 c -18.85275,33.40525 -67.77983,82.6164 -104.03807,104.64212 l -28.61011,17.37973 0,23.50266 c 0,24.78375 -0.0713,24.8613 -32.03391,34.81824 -10.55961,3.28953 -10.675,2.83635 -10.41087,-40.89171 z"
     id="path2989"
     inkscape:connector-curvature="0" />
  <path
     style="fill:#ececec;fill-opacity:1;stroke:#000000;stroke-width:0;stroke-linecap:round;stroke-linejoin:miter;stroke-miterlimit:3.79999995;stroke-opacity:1;stroke-dasharray:none;stroke-dashoffset:0"
     d="M 745.13807,184.6963 C 724.74389,135.10436 667.35011,77.86732 613.70608,53.62324 l -23.53659,-10.6372 0,-43.9507264 0,-43.9507266 21.35593,7.276696 21.35594,7.276707 0.12144,24.4691332 0.12143,24.4691438 33.71963,21.355936 c 38.06945,24.110845 78.82391,66.228197 99.88019,103.220347 l 14.182,24.91525 25.13419,0 c 22.59321,0 25.42405,1.15487 28.00132,11.42352 1.57691,6.28294 4.1725,14.82531 5.76797,18.98304 2.52666,6.58435 -2.82757,7.55724 -41.50518,7.54175 l -44.40604,-0.0178 -8.76024,-21.30202 z"
     id="path2991"
     inkscape:connector-curvature="0" />
  <path
     style="fill:#ececec;fill-opacity:1;stroke:#000000;stroke-width:0;stroke-linecap:round;stroke-linejoin:miter;stroke-miterlimit:3.79999995;stroke-opacity:1;stroke-dasharray:none;stroke-dashoffset:0"
     d="m 160.19047,198.47436 c 1.59547,-4.15773 4.19106,-12.7001 5.76797,-18.98304 2.57727,-10.26865 5.40811,-11.42352 28.00132,-11.42352 l 25.13419,0 14.4032,-25.52107 c 20.66413,-36.61481 60.81921,-77.936749 99.7169,-102.614527 l 33.66172,-21.355936 0.12143,-23.8915934 0.12144,-23.8915936 21.35594,-7.915062 21.35593,-7.915063 0,44.0115314 0,44.0115536 -23.53659,10.6372 C 332.64989,77.86732 275.25611,135.10436 254.86193,184.6963 l -8.76024,21.30202 -44.40604,0.0176 c -38.67761,0.0157 -44.03184,-0.95741 -41.50518,-7.54175 l 0,2.3e-4 z"
     id="path2993"
     inkscape:connector-curvature="0" />
  <path
     style="fill:#ececec;fill-opacity:1;stroke:#000000;stroke-width:0;stroke-linecap:round;stroke-linejoin:miter;stroke-miterlimit:3.79999995;stroke-opacity:1;stroke-dasharray:none;stroke-dashoffset:0"
     d="m 386.10169,635.94801 c -15.88912,-5.71462 -16.67477,-7.08954 -18.09839,-31.67285 l -1.48823,-25.69889 -28.621,-16.48712 C 302.05323,541.44301 253.48846,493.31258 234.43964,459.55995 l -14.52078,-25.72944 -23.8057,0 c -25.12579,0 -25.14861,-0.0208 -35.1213,-32.0339 -3.28041,-10.53039 -2.73442,-10.67797 39.50318,-10.67797 l 42.82956,0 15.62584,31.93219 c 22.17388,45.31348 71.59466,94.48574 116.2062,115.62188 l 34.13968,16.17474 0.2671,43.89831 c 0.1469,24.14407 -1.33461,43.73584 -3.29223,43.53726 -1.95763,-0.19858 -11.03391,-3.04933 -20.1695,-6.33501 z"
     id="path2995"
     inkscape:connector-curvature="0" />
</svg>
