<?xml version="1.0" encoding="UTF-8" standalone="no"?>
<svg
   xmlns:dc="http://purl.org/dc/elements/1.1/"
   xmlns:cc="http://creativecommons.org/ns#"
   xmlns:rdf="http://www.w3.org/1999/02/22-rdf-syntax-ns#"
   xmlns:svg="http://www.w3.org/2000/svg"
   xmlns="http://www.w3.org/2000/svg"
   xmlns:sodipodi="http://sodipodi.sourceforge.net/DTD/sodipodi-0.dtd"
   xmlns:inkscape="http://www.inkscape.org/namespaces/inkscape"
   viewBox="0 -200 1000 1000"
   id="svg2"
   version="1.1"
   inkscape:version="0.48.2 r9819"
   width="100%"
   height="100%"
   sodipodi:docname="wb.svg">
  <metadata
     id="metadata12">
    <rdf:RDF>
      <cc:Work
         rdf:about="">
        <dc:format>image/svg+xml</dc:format>
        <dc:type
           rdf:resource="http://purl.org/dc/dcmitype/StillImage" />
      </cc:Work>
    </rdf:RDF>
  </metadata>
  <defs
     id="defs10" />
  <sodipodi:namedview
     pagecolor="#ffffff"
     bordercolor="#666666"
     borderopacity="1"
     objecttolerance="10"
     gridtolerance="10"
     guidetolerance="10"
     inkscape:pageopacity="0"
     inkscape:pageshadow="2"
     inkscape:window-width="696"
     inkscape:window-height="867"
     id="namedview8"
     showgrid="false"
     inkscape:zoom="0.236"
     inkscape:cx="500"
     inkscape:cy="500"
     inkscape:window-x="0"
     inkscape:window-y="0"
     inkscape:window-maximized="0"
     inkscape:current-layer="svg2" />
  <g
     transform="matrix(1.12,0,0,-1.12,-60,860)"
     id="g4">
    <path
       d="m 500,100 q -8,0 -14,6 -6,6 -6,14 0,8 6,14 6,6 14,6 8,0 14,-6 6,-6 6,-14 0,-8 -6,-14 -6,-6 -14,-6 z m 0,800 q 8,0 14,-6 6,-6 6,-14 0,-8 -6,-14 -6,-6 -14,-6 -8,0 -14,6 -6,6 -6,14 0,8 6,14 6,6 14,6 z m -20,-77 q 11,-3 20,-3 11,0 20,3 L 543,800 403,660 480,583 620,723 754,589 q 12,-12 12,-20 0,-9 -12,-9 H 532 l -32,-32 -32,32 H 246 q -12,0 -12,9 0,8 12,20 z m 40,-646 q -9,3 -20,3 -9,0 -20,-3 L 457,200 597,340 520,417 380,277 246,411 q -12,12 -12,20 0,9 12,9 h 222 l 32,32 32,-32 h 222 q 12,0 12,-9 0,-8 -12,-20 z M 237,520 h 215 l 20,-20 -20,-20 H 237 l -20,20 z M 763,480 H 548 l -20,20 20,20 h 215 l 20,-20 z M 449,151 q -9,-13 -9,-31 0,-25 17.5,-42.5 Q 475,60 500,60 525,60 542.5,77.5 560,95 560,120 q 0,18 -9,31 l 232,232 q 30,29 30,56 0,14 -9,25 l 36,36 -36,37 q 9,10 9,24 0,27 -30,56 L 620,780 480,640 l -20,20 140,140 -49,49 q 9,14 9,31 0,25 -17.5,42.5 Q 525,940 500,940 475,940 457.5,922.5 440,905 440,880 q 0,-17 9,-31 L 217,617 q -30,-30 -30,-56 0,-14 9,-25 l -36,-36 36,-36 q -9,-10 -9,-24 0,-27 30,-57 L 380,220 520,360 540,340 400,200 z"
       id="path6"
       inkscape:connector-curvature="0"
       style="fill:currentColor" />
  </g>
  <path
     style="fill:#f9f9f9;fill-opacity:1"
     d="m 467.72822,646.97579 -10.19748,-10.85472 75.8109,-75.69982 c 41.696,-41.63491 75.81091,-77.90497 75.81091,-80.60017 0,-2.69517 -19.23051,-24.04172 -42.73444,-47.43677 l -42.73443,-42.53643 -78.30091,78.19302 -78.3009,78.19303 -81.35077,-81.35078 c -58.08885,-58.08884 -80.51721,-83.52301 -78.43564,-88.94746 2.57401,-6.70777 18.03881,-7.59671 132.16017,-7.59671 l 129.24505,0 15.64966,-15.16825 L 500,338.00248 l 15.64966,15.16825 15.64966,15.16825 129.24505,0 c 114.05324,0 129.58726,0.89182 132.15647,7.58711 2.09707,5.4648 -35.43788,45.95354 -134.18603,144.74575 l -137.09751,137.15867 -21.74581,0 c -16.52,0 -24.19638,-2.60853 -31.94327,-10.85472 z"
     id="path2989"
     inkscape:connector-curvature="0" />
  <path
     style="fill:#f9f9f9;fill-opacity:1"
     d="m 481.01695,247.32203 -16.09921,-16.61017 -127.35358,0 c -112.32005,0 -127.69726,-0.89562 -130.26502,-7.58709 -2.09693,-5.4645 35.29042,-45.80601 133.63871,-144.198176 l 136.55016,-136.611082 22.80758,0 c 17.98521,0 25.08678,2.42611 33.58714,11.474322 l 10.77957,11.474321 -78.01738,78.125018 -78.01738,78.125007 42.53643,42.73444 c 23.39504,23.50394 44.693,42.73443 47.32877,42.73443 2.63579,0 39.00896,-34.16949 80.82928,-75.93218 l 76.03695,-75.932206 80.12078,80.224886 c 57.01659,57.09072 79.28289,82.40832 77.21521,87.7966 -2.5601,6.67149 -18.04699,7.57171 -130.25912,7.57171 l -127.35358,0 -16.09921,16.61017 c -8.85457,9.1356 -17.39694,16.61017 -18.98305,16.61017 -1.58611,0 -10.12848,-7.47457 -18.98305,-16.61017 z"
     id="path2991"
     inkscape:connector-curvature="0" />
  <path
     style="fill:#f9f9f9;fill-opacity:1;fill-rule:nonzero;stroke-linecap:butt;stroke-linejoin:round"
     d="m 198.64406,309.49153 c -8.2891,-9.15937 -8.2891,-9.8237 0,-18.98306 8.15666,-9.01299 14.6168,-9.49152 128.1356,-9.49152 113.51881,0 119.97894,0.47853 128.13559,9.49152 8.28911,9.15936 8.28911,9.82369 0,18.98306 -8.15665,9.01299 -14.61678,9.49152 -128.13559,9.49152 -113.5188,0 -119.97894,-0.47853 -128.1356,-9.49152 z"
     id="path2985"
     inkscape:connector-curvature="0" />
  <path
     style="fill:#f9f9f9;fill-opacity:1;fill-rule:nonzero;stroke-linecap:butt;stroke-linejoin:round"
     d="m 545.08475,309.49153 c -8.28911,-9.15937 -8.28911,-9.8237 0,-18.98306 8.15665,-9.01299 14.61678,-9.49152 128.13559,-9.49152 113.5188,0 119.97894,0.47853 128.1356,9.49152 8.28909,9.15936 8.28909,9.82369 0,18.98306 -8.15666,9.01299 -14.6168,9.49152 -128.1356,9.49152 -113.51881,0 -119.97894,-0.47853 -128.13559,-9.49152 z"
     id="path2987"
     inkscape:connector-curvature="0" />
  <path
     style="fill:#f9f9f9;fill-opacity:1;fill-rule:nonzero;stroke-linecap:butt;stroke-linejoin:round"
     d="m 486.71186,-113.83051 c -15.12634,-15.12634 3.62069,-37.77899 22.77967,-27.52543 16.16506,8.65129 9.14534,33.22035 -9.49153,33.22035 -4.17627,0 -10.15594,-2.56272 -13.28814,-5.69492 z"
     id="path2990"
     inkscape:connector-curvature="0" />
  <path
     style="fill:#f9f9f9;fill-opacity:1;fill-rule:nonzero;stroke-linecap:butt;stroke-linejoin:round"
     d="m 488.5266,739.85581 c -10.08145,-7.37173 -8.53402,-21.44481 3.16832,-28.8144 17.73477,-11.16854 36.69089,16.44776 19.77848,28.8144 -10.60325,7.7533 -12.34355,7.7533 -22.9468,0 l 0,0 z"
     id="path2992"
     inkscape:connector-curvature="0" />
</svg>
