<?xml version="1.0" encoding="UTF-8" standalone="no"?>
<svg
   xmlns:dc="http://purl.org/dc/elements/1.1/"
   xmlns:cc="http://creativecommons.org/ns#"
   xmlns:rdf="http://www.w3.org/1999/02/22-rdf-syntax-ns#"
   xmlns:svg="http://www.w3.org/2000/svg"
   xmlns="http://www.w3.org/2000/svg"
   xmlns:sodipodi="http://sodipodi.sourceforge.net/DTD/sodipodi-0.dtd"
   xmlns:inkscape="http://www.inkscape.org/namespaces/inkscape"
   viewBox="0 -200 1000 1000"
   id="svg2"
   version="1.1"
   inkscape:version="0.48.2 r9819"
   width="100%"
   height="100%"
   sodipodi:docname="wk.svg">
  <metadata
     id="metadata12">
    <rdf:RDF>
      <cc:Work
         rdf:about="">
        <dc:format>image/svg+xml</dc:format>
        <dc:type
           rdf:resource="http://purl.org/dc/dcmitype/StillImage" />
      </cc:Work>
    </rdf:RDF>
  </metadata>
  <defs
     id="defs10" />
  <sodipodi:namedview
     pagecolor="#ffffff"
     bordercolor="#666666"
     borderopacity="1"
     objecttolerance="10"
     gridtolerance="10"
     guidetolerance="10"
     inkscape:pageopacity="0"
     inkscape:pageshadow="2"
     inkscape:window-width="696"
     inkscape:window-height="688"
     id="namedview8"
     showgrid="false"
     inkscape:zoom="0.236"
     inkscape:cx="500"
     inkscape:cy="500"
     inkscape:window-x="0"
     inkscape:window-y="0"
     inkscape:window-maximized="0"
     inkscape:current-layer="svg2" />
  <g
     transform="matrix(1.12,0,0,-1.12,-60,860)"
     id="g4">
    <path
       d="m 500,560 q 25,0 42.5,-17.5 Q 560,525 560,500 560,475 542.5,457.5 525,440 500,440 475,440 457.5,457.5 440,475 440,500 q 0,25 17.5,42.5 Q 475,560 500,560 z m 0,40 Q 459,600 429.5,570.5 400,541 400,500 400,459 429.5,429.5 459,400 500,400 q 41,0 70.5,29.5 Q 600,459 600,500 600,541 570.5,570.5 541,600 500,600 z M 320,500 q 0,-18 5,-40 H 160 v 40 40 h 165 q -5,-22 -5,-40 z m 22,-85 q 25,-47 73,-74 -6,-50 -20.5,-95 Q 380,201 359,168.5 338,136 312.5,118 287,100 260,100 228,100 198.5,112.5 169,125 147,147 125,169 112.5,198.5 100,228 100,260 q 0,55 68.5,98 68.5,43 173.5,57 z m 316,0 q 106,-14 174,-57 68,-43 68,-98 0,-32 -12.5,-61.5 Q 875,169 853,147 831,125 801.5,112.5 772,100 740,100 713,100 687.5,118 662,136 641,168.5 620,201 605.5,245.5 591,290 585,341 q 49,27 73,74 z m 222,85 v 80 H 779 q 75,29 118,70.5 43,41.5 43,89.5 0,41 -15.5,77.5 -15.5,36.5 -43,64 -27.5,27.5 -64,43 Q 781,940 740,940 692,940 650,897 608,854 580,780 V 880 H 500 420 V 780 Q 393,854 350.5,897 308,940 260,940 219,940 183,924.5 147,909 119,881.5 91,854 75.5,817.5 60,781 60,740 60,692 103,650.5 146,609 221,580 H 120 V 500 420 H 221 Q 146,392 103,350 60,308 60,260 60,219 75.5,183 91,147 119,119 147,91 183,75.5 219,60 260,60 q 48,0 90.5,43 42.5,43 69.5,117 V 120 h 80 80 v 100 q 28,-74 70,-117 42,-43 90,-43 41,0 77.5,15.5 36.5,15.5 64,43.5 27.5,28 43,64 15.5,36 15.5,77 0,48 -43,90 -43,42 -118,70 h 101 v 80 z M 500,160 h -40 v 124 40 q 26,-4 40,-4 14,0 40,4 V 284 160 h -40 z m 180,340 q 0,18 -5,40 H 840 V 500 460 H 675 q 5,22 5,40 z m -320,0 q 0,58 41,99 41,41 99,41 58,0 99,-41 41,-41 41,-99 0,-58 -41,-99 -41,-41 -99,-41 -58,0 -99,41 -41,41 -41,99 z m 140,340 h 40 V 716 676 q -26,4 -40,4 -14,0 -40,-4 v 40 124 h 40 z M 658,585 q -24,47 -73,74 6,50 20.5,95 14.5,45 35.5,77.5 21,32.5 46.5,50.5 25.5,18 52.5,18 32,0 61.5,-12.5 Q 831,875 853,853 875,831 887.5,801.5 900,772 900,740 900,685 832,642 764,599 658,585 z m -316,0 q -105,14 -173.5,57 -68.5,43 -68.5,98 0,32 12.5,61.5 Q 125,831 147,853 169,875 198.5,887.5 228,900 260,900 287,900 312.5,882 338,864 359,831.5 380,799 394.5,754.5 409,710 415,659 367,632 342,585 z"
       id="path6"
       inkscape:connector-curvature="0"
       style="fill:currentColor" />
  </g>
  <path
     style="fill:#f9f9f9;fill-opacity:1"
     d="M 204.72087,742.30293 C 127.5056,728.80472 65.275013,663.27249 56.308517,586.01655 53.672272,563.30248 54.964147,554.1294 63.639331,533.96339 88.294328,476.65129 182.30414,422.23226 287.95413,404.1153 c 32.72867,-5.61234 33.13727,-5.5516 40.68886,6.04816 13.61267,20.90998 39.00373,46.9481 56.06205,57.49073 16.41797,10.14686 16.62157,10.66695 13.51036,34.5104 -6.03021,46.21388 -27.07669,110.15631 -49.36256,149.971 -19.75948,35.30119 -39.15397,57.36811 -64.88975,73.83109 -27.94386,17.87547 -47.44257,21.89525 -79.24222,16.33625 l 0,0 z"
     id="path2989"
     inkscape:connector-curvature="0" />
  <path
     style="fill:#f9f9f9;fill-opacity:1"
     d="m 120.33898,300.94916 0,-42.71188 88.98305,0 88.98305,0 0,42.71188 0,42.71186 -88.98305,0 -88.98305,0 0,-42.71186 z"
     id="path2991"
     inkscape:connector-curvature="0" />
  <path
     style="fill:#f9f9f9;fill-opacity:1"
     d="M 276.94916,193.937 C 135.26665,163.63892 46.876827,93.300898 55.738269,17.903886 65.912886,-68.666256 134.03877,-137.26622 216.40161,-143.87752 c 25.83704,-2.07396 33.55562,-0.6836 54.15529,9.75505 59.22373,30.01092 112.99971,127.46563 127.52739,231.109478 2.98064,21.264672 2.79205,21.634792 -20.55506,40.338982 -12.95982,10.38257 -30.74802,28.92144 -39.52932,41.19748 -17.69964,24.74363 -17.57163,24.71131 -61.05075,15.41353 z"
     id="path2993"
     inkscape:connector-curvature="0" />
  <path
     style="fill:#f9f9f9;fill-opacity:1"
     d="m 457.28814,10.271187 0,-88.983048 42.71186,0 42.71186,0 0,88.983048 0,88.983048 -42.71186,0 -42.71186,0 0,-88.983048 z"
     id="path2995"
     inkscape:connector-curvature="0" />
  <path
     style="fill:#f9f9f9;fill-opacity:1"
     d="m 663.72881,179.77888 c -7.8305,-11.89257 -25.63158,-30.47112 -39.55794,-41.28568 l -25.32066,-19.66282 3.03687,-21.652479 c 14.5668,-103.8590226 68.28344,-201.264681 127.55602,-231.300371 20.59967,-10.43865 28.31825,-11.82901 54.15529,-9.75505 82.36284,6.6113 150.48872,75.211264 160.66334,161.781406 3.96899,33.769882 -9.54738,64.243402 -42.01532,94.726204 -40.58755,38.10595 -126.73106,74.16191 -205.29725,85.92858 -18.38507,2.75348 -19.43156,2.1619 -33.22035,-18.77979 z"
     id="path2997"
     inkscape:connector-curvature="0" />
  <path
     style="fill:#f9f9f9;fill-opacity:1"
     d="m 701.69492,300.94916 0,-42.71188 88.98305,0 88.98305,0 0,42.71188 0,42.71186 -88.98305,0 -88.98305,0 0,-42.71186 z"
     id="path2999"
     inkscape:connector-curvature="0" />
  <path
     style="fill:#f9f9f9;fill-opacity:1"
     d="m 749.23453,743.56495 c -17.54094,-4.43899 -57.52813,-33.11751 -72.00331,-51.64026 -34.53339,-44.18964 -62.79393,-112.74007 -73.69784,-178.76575 -5.14989,-31.18379 -4.90618,-34.01283 3.33309,-38.68955 16.24098,-9.2186 55.2171,-47.26307 62.14439,-60.65898 8.64823,-16.72385 19.19065,-16.91632 80.11118,-1.46256 92.53389,23.47315 165.40088,70.8523 187.3161,121.79562 8.63999,20.0842 9.98938,29.41872 7.38878,51.1124 -5.81868,48.53826 -35.50979,99.76542 -72.80294,125.6096 -33.74357,23.3843 -94.32465,39.64984 -121.78945,32.69948 l 0,0 z"
     id="path3001"
     inkscape:connector-curvature="0" />
  <path
     style="fill:#f9f9f9;fill-opacity:1"
     d="m 457.28814,591.23164 0,-89.37853 42.71186,0 42.71186,0 0,89.37853 0,89.37853 -42.71186,0 -42.71186,0 0,-89.37853 z"
     id="path3003"
     inkscape:connector-curvature="0" />
  <path
     style="fill:#f9f9f9;fill-opacity:1"
     d="m 444.74294,442.93171 c -33.93915,-13.0521 -64.72078,-41.72179 -82.0686,-76.43786 -12.15968,-24.33366 -14.53875,-34.6566 -14.53875,-63.08441 0,-45.8024 10.26339,-73.27952 39.19667,-104.93713 27.47429,-30.06124 46.85688,-41.22473 85.3796,-49.17475 52.18342,-10.76919 100.77402,6.30355 139.95588,49.17475 28.93328,31.65761 39.19667,59.13473 39.19667,104.93713 0,28.42781 -2.37907,38.75075 -14.53876,63.08441 -35.791,71.62414 -119.1091,104.69386 -192.58271,76.43786 z m 87.29811,-33.62562 c 30.38184,-7.65024 69.32727,-45.54656 77.17838,-75.09935 13.7061,-51.5919 -6.03887,-103.45715 -49.6507,-130.42026 C 539.00553,191.07322 532.16435,189.42373 500,189.42373 c -32.16435,0 -39.00553,1.64949 -59.56873,14.36275 -43.61183,26.96311 -63.35681,78.82836 -49.6507,130.42026 4.08347,15.37082 12.61032,28.08716 30.56248,45.57867 33.53708,32.67651 64.92399,41.0467 110.698,29.52068 l 0,0 z"
     id="path3005"
     inkscape:connector-curvature="0" />
  <path
     style="fill:#f9f9f9;fill-opacity:1"
     d="m 459.94142,348.01636 c -28.3578,-24.89847 -31.72875,-57.93507 -9.0241,-88.43949 23.549,-31.63883 74.61636,-31.63883 98.16536,0 22.70465,30.50442 19.3337,63.54102 -9.0241,88.43949 -13.7916,12.10918 -20.68867,14.6277 -40.05858,14.6277 -19.36991,0 -26.26698,-2.51852 -40.05858,-14.6277 z"
     id="path3007"
     inkscape:connector-curvature="0" />
</svg>
