<?xml version="1.0" encoding="UTF-8" standalone="no"?>
<svg
   xmlns:dc="http://purl.org/dc/elements/1.1/"
   xmlns:cc="http://creativecommons.org/ns#"
   xmlns:rdf="http://www.w3.org/1999/02/22-rdf-syntax-ns#"
   xmlns:svg="http://www.w3.org/2000/svg"
   xmlns="http://www.w3.org/2000/svg"
   xmlns:sodipodi="http://sodipodi.sourceforge.net/DTD/sodipodi-0.dtd"
   xmlns:inkscape="http://www.inkscape.org/namespaces/inkscape"
   viewBox="0 -200 1000 1000"
   id="svg2"
   version="1.1"
   inkscape:version="0.48.2 r9819"
   width="100%"
   height="100%"
   sodipodi:docname="wn.svg">
  <metadata
     id="metadata12">
    <rdf:RDF>
      <cc:Work
         rdf:about="">
        <dc:format>image/svg+xml</dc:format>
        <dc:type
           rdf:resource="http://purl.org/dc/dcmitype/StillImage" />
      </cc:Work>
    </rdf:RDF>
  </metadata>
  <defs
     id="defs10" />
  <sodipodi:namedview
     pagecolor="#ffffff"
     bordercolor="#666666"
     borderopacity="1"
     objecttolerance="10"
     gridtolerance="10"
     guidetolerance="10"
     inkscape:pageopacity="0"
     inkscape:pageshadow="2"
     inkscape:window-width="696"
     inkscape:window-height="906"
     id="namedview8"
     showgrid="false"
     inkscape:zoom="0.236"
     inkscape:cx="500"
     inkscape:cy="500"
     inkscape:window-x="0"
     inkscape:window-y="0"
     inkscape:window-maximized="0"
     inkscape:current-layer="svg2" />
  <g
     transform="matrix(1.1,0,0,-1.1,-50,850)"
     id="g4">
    <path
       d="m 420,200 q 8,0 14,6 6,6 6,14 0,8 -6,14 -6,6 -14,6 -8,0 -14,-6 -6,-6 -6,-14 0,-8 6,-14 6,-6 14,-6 z m 160,600 q -8,0 -14,-6 -6,-6 -6,-14 0,-8 6,-14 6,-6 14,-6 8,0 14,6 6,6 6,14 0,8 -6,14 -6,6 -14,6 z m -112,-360 32,32 32,-32 H 700 L 596,375 q -34,16 -67,20.5 -33,4.5 -49,4.5 l -20,-40 q 10,0 32,-1.5 22,-1.5 52.5,-9.5 30.5,-8 53,-24.5 Q 620,308 620,280 h 60 q 45,-30 45,-60 0,-30 -45,-60 H 380 v -60 q -10,4 -32.5,16 Q 325,128 295,154.5 265,181 242.5,223 220,265 220,320 q 0,6 1,20.5 1,14.5 4.5,35 3.5,20.5 12,39 Q 246,433 260,440 h 208 z m 64,120 -32,-32 -32,32 H 300 l 104,65 q 34,-16 67,-20.5 33,-4.5 49,-4.5 l 20,40 q -10,0 -32,2 -22,2 -52.5,9.5 Q 425,659 402.5,676 380,693 380,720 h -60 q -45,30 -45,60 0,30 45,60 h 300 v 60 q 10,-4 32.5,-16 Q 675,872 705,845.5 735,819 757.5,777 780,735 780,680 q 0,-6 -1,-20.5 -1,-14.5 -4.5,-35 -3.5,-20.5 -12,-39 Q 754,567 740,560 H 532 z m 16,-80 -20,20 20,20 h 212 l 20,-20 -20,-20 H 548 z m -96,40 20,-20 -20,-20 H 240 l -20,20 20,20 H 452 z M 160,500 220,440 Q 206,433 197.5,414.5 189,396 185.5,375.5 182,355 181,340.5 180,326 180,320 180,264 204.5,215.5 229,167 267,130.5 305,94 346,71 387,48 420,40 v 80 h 280 q 36,15 55.5,42 19.5,27 19.5,58 0,31 -19.5,58.5 Q 736,306 700,320 h -60 q 0,14 -8,27 l 148,93 60,60 -60,60 q 14,7 22.5,25.5 8.5,18.5 12,39 3.5,20.5 4.5,35 1,14.5 1,20.5 0,56 -24.5,104.5 Q 771,833 733,869.5 695,906 654,929 613,952 580,960 V 880 H 300 Q 264,866 244.5,838.5 225,811 225,780 225,749 244.5,722 264,695 300,680 h 60 q 0,-14 8,-27 L 220,560 z"
       id="path6"
       inkscape:connector-curvature="0"
       style="fill:currentColor" />
  </g>
  <path
     style="fill:#f9f9f9;fill-opacity:1"
     d="m 334.80231,719.94218 c -43.59004,-26.27915 -76.78426,-57.36012 -101.19329,-94.75101 -32.74722,-50.1637 -43.50749,-98.01391 -36.01447,-160.15399 5.14529,-42.67031 14.72905,-71.84038 28.37547,-86.36634 9.85762,-10.49295 11.3449,-10.61999 124.32814,-10.61999 l 114.35117,0 17.67533,-17.25951 17.67534,-17.2595 17.67534,17.25951 17.67533,17.2595 88.19834,0 88.19833,0 -52.48426,32.74884 -52.48424,32.74882 -31.24958,-9.81493 c -17.18728,-5.39821 -46.98053,-10.9532 -66.20722,-12.34441 l -34.95763,-2.52947 -10.48729,21.66941 c -5.76801,11.91818 -10.48729,22.66204 -10.48729,23.87524 0,1.2132 8.91419,2.24224 19.80932,2.28676 29.90414,0.12216 81.91163,12.40628 109.341,25.82623 26.91786,13.16967 42.58322,29.90038 46.54528,49.71063 2.54983,12.74918 3.10101,12.94153 37.08598,12.94153 34.46257,0 34.51813,0.0205 54.64879,20.15113 11.08311,11.08312 21.2108,25.69448 22.50595,32.46965 3.31552,17.34388 -11.02629,46.46485 -30.01723,60.94996 l -16.09561,12.27671 -165.9872,0 -165.98721,0 -1.36944,32.81167 L 362.5,736.6403 334.80231,719.94218 z m 89.58432,-93.46919 c 5.75376,-4.03009 10.35914,-12.17071 10.35914,-18.31114 0,-11.78621 -10.97578,-25.70422 -20.27041,-25.70422 -11.21211,0 -26.33977,14.72323 -26.33977,25.6356 0,9.44885 14.71522,25.63558 23.30509,25.63558 1.42274,0 7.24842,-3.26512 12.94595,-7.25582 z"
     id="path2989"
     inkscape:connector-curvature="0" />
  <path
     style="fill:#f9f9f9;fill-opacity:1"
     d="m 483.77834,246.96033 -13.30469,-13.88711 -89.83001,-1.26119 -89.83,-1.26118 51.62734,-32.15398 51.62734,-32.15397 21.50397,7.47136 c 25.93827,9.01199 70.58405,17.21795 93.67701,17.21795 15.42967,0 17.74654,-1.82632 27.32329,-21.53818 5.75523,-11.846 9.84374,-21.98462 9.08556,-22.53029 -0.75816,-0.54566 -23.2134,-4.48701 -49.9005,-8.75855 C 421.49457,126.21863 379.06053,102.70246 371.74114,69.377476 368.78453,55.916116 368.38388,55.76271 336.18307,55.76271 c -28.30931,0 -34.75464,-1.668007 -49.29252,-12.75659 -19.46681,-14.848064 -33.56958,-42.93069 -30.25823,-60.252808 1.27231,-6.655704 11.09565,-21.267048 21.82965,-32.469668 l 19.51634,-20.368392 168.59559,0 168.5956,0 0,-32.900452 0,-32.90044 28.93919,15.42163 c 16.43599,8.75871 44.23338,30.525109 64.33819,50.379262 61.04058,60.279494 84.27123,124.961452 74.0671,206.227568 -5.33775,42.51006 -11.68227,62.42159 -25.99756,81.59023 l -11.31285,15.14831 -117.74671,0 -117.74668,0 -13.39662,13.98305 c -7.36814,7.69067 -14.70924,13.98305 -16.31356,13.98305 -1.60432,0 -8.90407,-6.2492 -16.22166,-13.88713 l 0,0 z M 606.27119,8.220336 c 8.51312,-8.51312 6.69075,-24.595846 -3.86996,-34.153152 -20.36231,-18.427629 -49.87468,11.802747 -32.25205,33.036707 6.76076,8.146226 28.42271,8.815741 36.12201,1.116445 z"
     id="path2991"
     inkscape:connector-curvature="0" />
  <path
     style="fill:#f9f9f9;fill-opacity:1;fill-rule:nonzero;stroke-linecap:butt;stroke-linejoin:round"
     d="m 204.02542,308.38983 c -8.14109,-8.9958 -8.14109,-9.64826 0,-18.64406 8.011,-8.85205 14.35578,-9.32204 125.84746,-9.32204 111.49169,0 117.83646,0.46999 125.84746,9.32204 8.14109,8.9958 8.14109,9.64826 0,18.64406 -8.011,8.85205 -14.35577,9.32203 -125.84746,9.32203 -111.49168,0 -117.83646,-0.46998 -125.84746,-9.32203 z"
     id="path2985"
     inkscape:connector-curvature="0" />
  <path
     style="fill:#f9f9f9;fill-opacity:1;fill-rule:nonzero;stroke-linecap:butt;stroke-linejoin:round"
     d="m 544.27966,308.38983 c -8.14108,-8.9958 -8.14108,-9.64826 0,-18.64406 8.011,-8.85205 14.35577,-9.32204 125.84746,-9.32204 111.49168,0 117.83646,0.46999 125.84746,9.32204 8.14108,8.9958 8.14108,9.64826 0,18.64406 -8.011,8.85205 -14.35578,9.32203 -125.84746,9.32203 -111.49169,0 -117.83646,-0.46998 -125.84746,-9.32203 z"
     id="path2987"
     inkscape:connector-curvature="0" />
</svg>
