<?xml version="1.0" encoding="UTF-8" standalone="no"?>
<svg
   xmlns:dc="http://purl.org/dc/elements/1.1/"
   xmlns:cc="http://creativecommons.org/ns#"
   xmlns:rdf="http://www.w3.org/1999/02/22-rdf-syntax-ns#"
   xmlns:svg="http://www.w3.org/2000/svg"
   xmlns="http://www.w3.org/2000/svg"
   xmlns:sodipodi="http://sodipodi.sourceforge.net/DTD/sodipodi-0.dtd"
   xmlns:inkscape="http://www.inkscape.org/namespaces/inkscape"
   viewBox="0 -200 1000 1000"
   id="svg2"
   version="1.1"
   inkscape:version="0.48.2 r9819"
   width="100%"
   height="100%"
   sodipodi:docname="wp.svg">
  <metadata
     id="metadata12">
    <rdf:RDF>
      <cc:Work
         rdf:about="">
        <dc:format>image/svg+xml</dc:format>
        <dc:type
           rdf:resource="http://purl.org/dc/dcmitype/StillImage" />
      </cc:Work>
    </rdf:RDF>
  </metadata>
  <defs
     id="defs10" />
  <sodipodi:namedview
     pagecolor="#ffffff"
     bordercolor="#666666"
     borderopacity="1"
     objecttolerance="10"
     gridtolerance="10"
     guidetolerance="10"
     inkscape:pageopacity="0"
     inkscape:pageshadow="2"
     inkscape:window-width="696"
     inkscape:window-height="733"
     id="namedview8"
     showgrid="false"
     inkscape:zoom="0.236"
     inkscape:cx="500"
     inkscape:cy="500"
     inkscape:window-x="0"
     inkscape:window-y="0"
     inkscape:window-maximized="0"
     inkscape:current-layer="svg2" />
  <g
     transform="matrix(1.12,0,0,-1.12,-60,860)"
     id="g4">
    <path
       d="m 500,680 q 37,0 69.5,-14 Q 602,652 627,627 652,602 666,569.5 680,537 680,500 680,463 666,430.5 652,398 627,373 602,348 569.5,334 537,320 500,320 q -37,0 -69.5,14 -32.5,14 -57.5,39 -25,25 -39,57.5 -14,32.5 -14,69.5 0,37 14,69.5 14,32.5 39,57.5 25,25 57.5,39 32.5,14 69.5,14 z m 0,-80 q 41,0 70.5,-29.5 Q 600,541 600,500 600,459 570.5,429.5 541,400 500,400 459,400 429.5,429.5 400,459 400,500 q 0,41 29.5,70.5 Q 459,600 500,600 z m 0,40 q -58,0 -99,-41 -41,-41 -41,-99 0,-58 41,-99 41,-41 99,-41 58,0 99,41 41,41 41,99 0,58 -41,99 -41,41 -99,41 z m 0,80 Q 455,720 415,703 375,686 344.5,655.5 314,625 297,585 q -17,-40 -17,-85 0,-45 17,-85 17,-40 47.5,-70.5 Q 375,314 415,297 q 40,-17 85,-17 45,0 85,17 40,17 70.5,47.5 30.5,30.5 47.5,70.5 17,40 17,85 0,45 -17,85 -17,40 -47.5,70.5 Q 625,686 585,703 q -40,17 -85,17 z"
       id="path6"
       inkscape:connector-curvature="0"
       style="fill:currentColor" />
  </g>
  <path
     style="fill:#f9f9f9;fill-opacity:1"
     d="m 466.07826,403.78398 c -30.74462,-11.48621 -55.07545,-35.30837 -68.23842,-66.81181 -20.79706,-49.77434 9.36088,-116.35915 62.85519,-138.77608 19.59894,-8.21298 59.011,-8.21298 78.60994,0 55.48145,23.24965 84.49749,91.40062 60.96788,143.19736 -9.97701,21.96283 -33.18795,46.69418 -53.85283,57.3804 -19.96465,10.32413 -59.51622,12.79057 -80.34176,5.01013 l 0,0 z"
     id="path2989"
     inkscape:connector-curvature="0" />
  <path
     style="fill:#f9f9f9;fill-opacity:1"
     d="M 464.8543,495.25495 C 362.90901,478.17807 286.41387,369.96608 304.88771,268.96209 c 13.98643,-76.46955 66.1638,-135.70692 139.7724,-158.68468 110.96326,-34.638453 228.74181,39.98518 250.45218,158.68468 18.89575,103.31079 -57.86085,209.19349 -164.26484,226.59684 -31.73833,5.1911 -33.22971,5.18424 -65.99315,-0.30398 z m 91.90523,-46.67849 c 30.67503,-11.65561 57.46865,-33.15837 75.79766,-60.8301 18.62897,-28.12463 24.73853,-51.00948 24.60842,-92.17686 C 656.72987,157.70009 488.23152,90.496787 387.65389,188.07837 c -51.69663,50.15667 -60.6507,138.61527 -20.21108,199.66799 17.98424,27.15123 44.86499,49.00183 74.56676,60.61321 30.48324,11.91688 83.69339,12.01745 114.74996,0.21689 z"
     id="path2991"
     inkscape:connector-curvature="0" />
</svg>
