<?xml version="1.0" encoding="UTF-8" standalone="no"?>
<svg
   xmlns:dc="http://purl.org/dc/elements/1.1/"
   xmlns:cc="http://creativecommons.org/ns#"
   xmlns:rdf="http://www.w3.org/1999/02/22-rdf-syntax-ns#"
   xmlns:svg="http://www.w3.org/2000/svg"
   xmlns="http://www.w3.org/2000/svg"
   xmlns:sodipodi="http://sodipodi.sourceforge.net/DTD/sodipodi-0.dtd"
   xmlns:inkscape="http://www.inkscape.org/namespaces/inkscape"
   viewBox="0 -200 1000 1000"
   id="svg2"
   version="1.1"
   inkscape:version="0.48.2 r9819"
   width="100%"
   height="100%"
   sodipodi:docname="wq.svg">
  <metadata
     id="metadata12">
    <rdf:RDF>
      <cc:Work
         rdf:about="">
        <dc:format>image/svg+xml</dc:format>
        <dc:type
           rdf:resource="http://purl.org/dc/dcmitype/StillImage" />
      </cc:Work>
    </rdf:RDF>
  </metadata>
  <defs
     id="defs10" />
  <sodipodi:namedview
     pagecolor="#ffffff"
     bordercolor="#666666"
     borderopacity="1"
     objecttolerance="10"
     gridtolerance="10"
     guidetolerance="10"
     inkscape:pageopacity="0"
     inkscape:pageshadow="2"
     inkscape:window-width="696"
     inkscape:window-height="729"
     id="namedview8"
     showgrid="false"
     inkscape:zoom="0.236"
     inkscape:cx="500"
     inkscape:cy="500"
     inkscape:window-x="0"
     inkscape:window-y="0"
     inkscape:window-maximized="0"
     inkscape:current-layer="svg2" />
  <g
     transform="matrix(1.1,0,0,-1.1,-50,850)"
     id="g4">
    <path
       d="m 500,520 q 8,0 14,-6 6,-6 6,-14 0,-8 -6,-14 -6,-6 -14,-6 -8,0 -14,6 -6,6 -6,14 0,8 6,14 6,6 14,6 z m 0,40 Q 475,560 457.5,542.5 440,525 440,500 440,475 457.5,457.5 475,440 500,440 q 25,0 42.5,17.5 Q 560,475 560,500 560,525 542.5,542.5 525,560 500,560 z m 0,40 q 41,0 70.5,-29.5 Q 600,541 600,500 600,459 570.5,429.5 541,400 500,400 459,400 429.5,429.5 400,459 400,500 q 0,41 29.5,70.5 Q 459,600 500,600 z m 0,40 q -58,0 -99,-41 -41,-41 -41,-99 0,-58 41,-99 41,-41 99,-41 58,0 99,41 41,41 41,99 0,58 -41,99 -41,41 -99,41 z m -227,70 q -17,-10 -33,-10 -25,0 -42.5,17.5 Q 180,735 180,760 q 0,25 17.5,42.5 Q 215,820 240,820 265,820 282.5,802.5 300,785 300,760 q 0,-16 -10,-33 l 140,-57 54,132 q -19,5 -31.5,21 -12.5,16 -12.5,37 0,25 17.5,42.5 Q 475,920 500,920 525,920 542.5,902.5 560,885 560,860 560,839 547.5,823 535,807 516,802 l 54,-132 140,57 q -10,17 -10,33 0,25 17.5,42.5 Q 735,820 760,820 785,820 802.5,802.5 820,785 820,760 820,735 802.5,717.5 785,700 760,700 q -16,0 -33,10 L 670,571 802,516 q 5,19 21,31.5 16,12.5 37,12.5 25,0 42.5,-17.5 Q 920,525 920,500 920,475 902.5,457.5 885,440 860,440 839,440 823,452.5 807,465 802,484 L 670,429 727,290 q 17,10 33,10 25,0 42.5,-17.5 Q 820,265 820,240 820,215 802.5,197.5 785,180 760,180 735,180 717.5,197.5 700,215 700,240 q 0,16 10,33 L 570,330 516,198 q 19,-5 31.5,-21 Q 560,161 560,140 560,115 542.5,97.5 525,80 500,80 475,80 457.5,97.5 440,115 440,140 q 0,21 12.5,37 12.5,16 31.5,21 L 430,330 327,288 290,273 q 10,-17 10,-33 0,-25 -17.5,-42.5 Q 265,180 240,180 215,180 197.5,197.5 180,215 180,240 q 0,25 17.5,42.5 17.5,17.5 42.5,17.5 16,0 33,-10 l 57,139 -132,55 Q 193,465 177,452.5 161,440 140,440 115,440 97.5,457.5 80,475 80,500 80,525 97.5,542.5 115,560 140,560 q 21,0 37,-12.5 16,-12.5 21,-31.5 l 132,55 z M 960,500 q 0,41 -29.5,70.5 Q 901,600 860,600 838,600 818,590.5 798,581 784,565 l -62,26 30,69 h 8 q 41,0 70.5,29.5 Q 860,719 860,760 860,801 830.5,830.5 801,860 760,860 719,860 689.5,830.5 660,801 660,760 v -8 l -70,-30 -26,62 q 17,14 26.5,34 9.5,20 9.5,42 0,41 -29.5,70.5 Q 541,960 500,960 459,960 429.5,930.5 400,901 400,860 q 0,-22 9.5,-42 9.5,-20 26.5,-34 l -26,-62 -70,30 v 8 q 0,41 -29.5,70.5 Q 281,860 240,860 199,860 169.5,830.5 140,801 140,760 140,719 169.5,689.5 199,660 240,660 h 8 l 30,-69 -62,-26 Q 202,581 182,590.5 162,600 140,600 99,600 69.5,570.5 40,541 40,500 40,459 69.5,429.5 99,400 140,400 q 22,0 42,9.5 20,9.5 34,25.5 l 62,-26 -30,-69 h -8 Q 199,340 169.5,310.5 140,281 140,240 140,199 169.5,169.5 199,140 240,140 q 41,0 70.5,29.5 Q 340,199 340,240 v 8 l 70,30 26,-62 Q 419,202 409.5,182 400,162 400,140 400,99 429.5,69.5 459,40 500,40 541,40 570.5,69.5 600,99 600,140 q 0,22 -9.5,42 -9.5,20 -26.5,34 l 26,62 70,-30 v -8 q 0,-41 29.5,-70.5 Q 719,140 760,140 q 41,0 70.5,29.5 Q 860,199 860,240 860,281 830.5,310.5 801,340 760,340 h -8 l -30,69 62,26 q 14,-16 34,-25.5 20,-9.5 42,-9.5 41,0 70.5,29.5 Q 960,459 960,500 z"
       id="path6"
       inkscape:connector-curvature="0"
       style="fill:currentColor" />
  </g>
  <path
     style="fill:#f9f9f9;fill-opacity:1"
     d="m 468.79138,749.52712 c -21.26002,-12.96304 -30.90386,-30.00129 -30.54167,-53.95947 0.35796,-23.67797 13.47872,-45.27913 33.92536,-55.8525 l 13.3893,-6.9239 -29.85723,-72.80681 c -16.42149,-40.04377 -30.58175,-73.53136 -31.46727,-74.41691 -0.88552,-0.8855 -36.11382,12.65135 -78.28512,30.08188 -65.334,27.0043 -76.39478,33.01351 -74.78004,40.62715 1.04227,4.91444 2.091,19.81025 2.33051,33.10188 0.37353,20.72937 -1.52178,26.20918 -13.32559,38.52774 -34.03837,35.52273 -90.35678,23.91172 -105.42135,-21.73437 -16.28894,-49.35598 30.08774,-95.8162 78.86799,-79.01002 l 18.60843,6.41114 31.11521,-75.94791 c 17.11337,-41.77134 29.95938,-77.81806 28.5467,-80.10383 -2.85638,-4.62171 -142.69853,-63.66827 -144.50813,-61.01671 -0.62814,0.92041 -4.81615,7.54161 -9.30667,14.7138 -33.85208,54.06793 -116.415144,31.59695 -116.415144,-31.68438 0,-23.55145 9.908825,-40.87194 30.938278,-54.07968 26.705877,-16.77284 71.155546,-4.70694 85.281276,23.14967 2.82259,5.56628 6.45056,11.43911 8.06216,13.05071 3.94196,3.94197 147.55732,-55.50823 147.58732,-61.0944 0.0308,-5.70374 -56.12154,-143.603141 -60.44161,-148.433483 -1.80939,-2.023087 -12.71372,-1.157838 -24.23186,1.922789 -18.35069,4.908068 -23.19405,4.498098 -39.14148,-3.313156 -21.53723,-10.549209 -39.29702,-35.109338 -39.29702,-54.344103 0,-20.259096 13.56898,-45.341934 29.92356,-55.31493 29.82196,-18.185398 73.31659,-6.359661 89.13806,24.235706 7.37721,14.265933 7.4142,35.750935 0.0997,57.864939 -2.766,8.362409 4.93894,12.558403 74.84715,40.760742 42.86181,17.291286 78.80671,30.562556 79.87754,29.491716 1.07084,-1.07084 15.25309,-34.095381 31.51612,-73.387854 25.9493,-62.695127 28.65771,-72.011467 22.12401,-76.101883 -43.05298,-26.953267 -53.47308,-71.765813 -23.98591,-103.153463 31.57142,-33.60624 94.05374,-19.47459 106.05385,23.98623 8.45611,30.625575 -4.8935,58.461229 -37.96757,79.167233 -6.53372,4.090416 -3.82534,13.406756 22.12398,76.101883 16.26303,39.292473 30.4453,72.317014 31.51612,73.387854 1.07087,1.07084 37.01574,-12.20043 79.87757,-29.491716 69.90822,-28.202339 77.61311,-32.398333 74.84713,-40.760742 -7.31454,-22.114004 -7.27758,-43.599006 0.0998,-57.864939 15.82148,-30.595367 59.31609,-42.421104 89.13807,-24.235706 16.35454,9.972996 29.92354,35.055834 29.92354,55.31493 0,19.234765 -17.75977,43.794894 -39.29703,54.344103 -15.94743,7.811254 -20.79079,8.221224 -39.14149,3.313156 -11.51813,-3.080627 -22.42243,-3.945876 -24.23184,-1.922789 -4.32006,4.830342 -60.47227,142.729743 -60.4416,148.433483 0.0279,5.58617 143.64537,65.03637 147.58733,61.0944 1.61159,-1.6116 5.23954,-7.48443 8.06217,-13.05071 14.12571,-27.85661 58.57537,-39.92251 85.28127,-23.14967 21.02943,13.20774 30.93825,30.52823 30.93825,54.07968 0,63.28132 -82.56307,85.75231 -116.41515,31.68438 -4.49052,-7.17219 -8.67849,-13.79339 -9.30666,-14.7138 -1.80959,-2.65156 -141.65175,56.395 -144.50811,61.01671 -1.41271,2.28577 11.43333,38.33249 28.54667,80.10383 l 31.11523,75.94791 18.60841,-6.41114 c 48.78029,-16.80618 95.15694,29.65404 78.868,79.01002 -15.06455,45.64609 -71.38297,57.2571 -105.42135,21.73437 -11.80379,-12.31856 -13.6991,-17.79837 -13.32556,-38.52774 0.23958,-13.29163 1.28821,-28.27946 2.3305,-33.30627 1.6335,-7.87833 -8.69382,-13.47813 -74.83136,-40.57588 -42.1995,-17.2899 -77.42779,-30.73475 -78.2851,-29.87744 -0.85729,0.8573 -14.99448,34.32182 -31.416,74.36559 l -29.85721,72.80681 13.38929,6.9239 c 30.82554,15.94049 44.22503,61.13081 26.25719,88.55326 -11.18473,17.06999 -34.83975,30.3408 -54.08212,30.3408 -8.97245,0 -23.01633,-4.08692 -31.20861,-9.08209 l -10e-5,0 z M 565.25423,441.13387 C 613.00319,418.837 646.60381,374.07861 653.1551,324.04371 660.23844,269.94556 646.33211,228.00256 608.41144,189.0917 577.60533,157.48117 549.058,146.16075 500,146.10121 c -46.46771,-0.0564 -75.26105,10.52754 -104.20116,38.30254 -36.44978,34.98232 -50.32458,67.12485 -50.1538,116.18685 0.23277,66.86457 34.66044,117.77467 97.50115,144.18031 36.05786,15.15152 84.99358,13.69392 122.10804,-3.63704 l 0,0 z"
     id="path2989"
     inkscape:connector-curvature="0" />
  <path
     style="fill:#f9f9f9;fill-opacity:1"
     d="M 473.64361,403.72122 C 449.2919,398.2532 413.10957,367.1067 401.5522,341.66347 385.19532,305.65425 391.92548,264.17959 419.31878,232.17667 441.06582,206.77016 466.80794,194.86575 500,194.86575 c 33.19206,0 58.93418,11.90441 80.68122,37.31092 27.3933,32.00292 34.12346,73.47758 17.76658,109.4868 -12.56121,27.65316 -47.33969,56.34519 -75.65962,62.41874 -12.78586,2.74207 -24.71688,4.76096 -26.51336,4.48643 -1.79649,-0.27453 -11.98053,-2.45587 -22.63121,-4.84742 l 0,0 z m 62.22602,-45.71951 c 21.2754,-12.97244 30.4099,-29.39329 30.80181,-55.3716 0.81953,-54.32504 -50.8234,-86.89068 -99.14,-62.51694 -21.89829,11.0468 -34.62833,34.3151 -34.20288,62.51694 0.58377,38.69674 27.22698,64.45369 66.67144,64.45369 12.58632,0 26.93148,-3.63216 35.86963,-9.08209 z"
     id="path2991"
     inkscape:connector-curvature="0" />
  <path
     style="fill:#f9f9f9;fill-opacity:1"
     d="m 488.551,314.24216 c -6.31278,-4.61602 -7.75152,-9.52611 -5.46307,-18.64406 2.48753,-9.91109 5.85781,-12.37776 16.91207,-12.37776 11.05426,0 14.42454,2.46667 16.91207,12.37776 2.28846,9.11795 0.84971,14.02804 -5.46308,18.64406 -10.6322,7.77445 -12.26578,7.77445 -22.89799,0 z"
     id="path2993"
     inkscape:connector-curvature="0" />
</svg>
