<?xml version="1.0" encoding="UTF-8" standalone="no"?>
<svg
   xmlns:dc="http://purl.org/dc/elements/1.1/"
   xmlns:cc="http://creativecommons.org/ns#"
   xmlns:rdf="http://www.w3.org/1999/02/22-rdf-syntax-ns#"
   xmlns:svg="http://www.w3.org/2000/svg"
   xmlns="http://www.w3.org/2000/svg"
   xmlns:sodipodi="http://sodipodi.sourceforge.net/DTD/sodipodi-0.dtd"
   xmlns:inkscape="http://www.inkscape.org/namespaces/inkscape"
   viewBox="0 -200 1000 1000"
   id="svg2"
   version="1.1"
   inkscape:version="0.48.2 r9819"
   width="100%"
   height="100%"
   sodipodi:docname="wr.svg">
  <metadata
     id="metadata12">
    <rdf:RDF>
      <cc:Work
         rdf:about="">
        <dc:format>image/svg+xml</dc:format>
        <dc:type
           rdf:resource="http://purl.org/dc/dcmitype/StillImage" />
      </cc:Work>
    </rdf:RDF>
  </metadata>
  <defs
     id="defs10" />
  <sodipodi:namedview
     pagecolor="#ffffff"
     bordercolor="#666666"
     borderopacity="1"
     objecttolerance="10"
     gridtolerance="10"
     guidetolerance="10"
     inkscape:pageopacity="0"
     inkscape:pageshadow="2"
     inkscape:window-width="696"
     inkscape:window-height="723"
     id="namedview8"
     showgrid="false"
     inkscape:zoom="0.236"
     inkscape:cx="500"
     inkscape:cy="500"
     inkscape:window-x="0"
     inkscape:window-y="0"
     inkscape:window-maximized="0"
     inkscape:current-layer="svg2" />
  <g
     transform="matrix(1.12,0,0,-1.12,-60,860)"
     id="g4">
    <path
       d="m 274,580 h -83 q 22,84 83.5,145.5 Q 336,787 420,810 V 727 Q 369,709 330.5,670 292,631 274,580 z m 0,-160 Q 292,369 330.5,330.5 369,292 420,274 V 190 Q 336,213 274.5,275 213,337 191,420 h 83 z m 422,120 h 61 q 3,-19 3,-40 0,-20 -3,-40 H 696 Q 684,402 641,359 598,316 540,304 v -61 q -19,-3 -40,-3 -20,0 -40,3 v 61 q -58,12 -101,55 -43,43 -55,101 h -61 q -3,20 -3,40 0,21 3,40 h 61 q 12,58 55,101 43,43 101,55 v 61 q 20,3 40,3 21,0 40,-3 v -61 q 58,-12 101,-55 43,-43 55,-101 z m 162,0 Q 851,601 824,656.5 797,712 754,755 711,798 656,824.5 601,851 540,858 v -61 q -19,3 -40,3 -20,0 -40,-3 v 61 Q 399,851 344,824.5 289,798 246,755 203,712 176,657 149,602 142,540 h 61 q -3,-19 -3,-40 0,-20 3,-40 h -61 q 7,-61 34,-116 27,-55 70,-98 43,-43 98,-70 55,-27 116,-34 v 61 q 20,-3 40,-3 21,0 40,3 v -61 q 61,7 116,34 55,27 98,70 43,43 70,98 27,55 34,116 h -61 q 3,20 3,40 0,21 -3,40 h 61 z M 580,274 q 51,18 89.5,56.5 Q 708,369 726,420 h 84 Q 788,336 726,274.5 664,213 580,190 v 84 z m 0,453 v 83 Q 664,787 726,725.5 788,664 810,580 h -84 q -18,51 -56.5,90 -38.5,39 -89.5,57 z"
       id="path6"
       inkscape:connector-curvature="0"
       style="fill:currentColor" />
  </g>
  <path
     style="fill:#f9f9f9;fill-opacity:1"
     d="m 475.08475,587.14265 -17.79661,-2.02069 -0.0403,-34.12033 -0.0403,-34.12027 -28.85075,-8.99621 C 370.96603,489.98978 314.97818,435.08813 293.47999,375.62552 l -10.6986,-29.59163 -33.50318,-1.38909 -33.50317,-1.38909 -3.17214,-21.15328 c -1.74468,-11.63431 -1.74468,-30.67226 0,-42.30656 l 3.17214,-21.15327 33.30367,-1.3891 33.30368,-1.38909 8.03786,-23.79079 C 313.29884,164.35656 368.85723,110.53769 439.49153,87.669672 l 17.79661,-5.761694 0,-32.344548 c 0,-37.38738 0.80527,-38.105804 42.71186,-38.105804 41.90659,0 42.71186,0.718424 42.71186,38.105804 l 0,32.344548 17.79661,5.761694 c 70.6343,22.868018 126.19269,76.686888 149.07129,144.403948 l 8.03785,23.79079 33.30367,1.38909 33.30368,1.3891 3.17211,21.15327 c 1.74469,11.6343 1.74469,30.67225 0,42.30656 l -3.17211,21.15328 -33.50318,1.38909 -33.50314,1.38909 -10.69861,29.59163 c -21.49821,59.46261 -77.48606,114.36426 -134.87627,132.25963 l -28.85076,8.99621 -0.0403,34.40678 c -0.0389,33.04242 -0.4875,34.40678 -11.31175,34.40678 -6.19915,0 -17.41101,0.78039 -24.91525,1.73424 -7.50424,0.9538 -21.65255,0.8249 -31.44068,-0.28664 l -2.3e-4,1.3e-4 z"
     id="path2989"
     inkscape:connector-curvature="0" />
  <path
     style="fill:#f9f9f9;fill-opacity:1"
     d="M 384.85755,635.41948 C 326.76705,614.08965 265.75465,570.87259 226.02224,522.91128 206.95265,499.89222 167.598,427.01338 160.6202,401.79661 c -2.90629,-10.50292 -2.25264,-10.67797 39.87484,-10.67797 l 42.82956,0 15.62584,31.93219 c 22.17388,45.31348 71.59466,94.48574 116.2062,115.62188 l 34.13968,16.17474 0.2671,43.89831 c 0.14687,24.14407 -1.33461,43.74783 -3.29223,43.56392 -1.95763,-0.18391 -11.59377,-3.28452 -21.41364,-6.8902 z"
     id="path2991"
     inkscape:connector-curvature="0" />
  <path
     style="fill:#f9f9f9;fill-opacity:1"
     d="m 160.77528,195.35594 c 5.93681,-20.38484 30.24322,-69.929 45.3538,-92.44536 40.87345,-60.905839 113.1052,-116.016862 185.56668,-141.582766 l 18.13475,-6.398302 0,44.028264 0,44.028264 -23.53659,10.6372 C 332.64989,77.86732 275.25611,135.10436 254.86193,184.6963 l -8.76024,21.30202 -44.2181,0.0176 c -43.61688,0.0178 -44.17583,-0.12718 -41.10831,-10.65995 z"
     id="path2993"
     inkscape:connector-curvature="0" />
  <path
     style="fill:#f9f9f9;fill-opacity:1"
     d="M 745.13807,184.6963 C 724.74389,135.10436 667.35011,77.86732 613.70608,53.62324 l -23.53659,-10.6372 0,-44.028264 0,-44.028264 19.16061,6.760253 c 52.30193,18.453198 97.29057,47.2871502 140.36743,89.963765 37.13121,36.786232 46.33479,49.23942 64.99219,87.93969 34.35176,71.25444 35.55205,66.44385 -16.57331,66.42289 l -44.2181,-0.0178 -8.76024,-21.30202 z"
     id="path2995"
     inkscape:connector-curvature="0" />
  <path
     style="fill:#f9f9f9;fill-opacity:1"
     d="m 590.43658,599.25351 0.2671,-44.40606 34.13968,-16.17474 c 44.61154,-21.13614 94.03232,-70.3084 116.2062,-115.62188 l 15.62584,-31.93219 43.02424,0 43.02424,0 -3.11223,13.05085 c -5.85756,24.56331 -34.50532,79.47796 -56.90849,109.08746 -37.26079,49.24631 -106.6666,101.69732 -156.05366,117.93209 -13.53858,4.45048 -27.28509,9.07698 -30.54781,10.28114 -4.49053,1.65731 -5.86729,-8.60237 -5.66511,-42.21667 z"
     id="path2997"
     inkscape:connector-curvature="0" />
</svg>
