<?xml version="1.0" encoding="UTF-8" standalone="no"?>
<svg
   xmlns:dc="http://purl.org/dc/elements/1.1/"
   xmlns:cc="http://creativecommons.org/ns#"
   xmlns:rdf="http://www.w3.org/1999/02/22-rdf-syntax-ns#"
   xmlns:svg="http://www.w3.org/2000/svg"
   xmlns="http://www.w3.org/2000/svg"
   xmlns:sodipodi="http://sodipodi.sourceforge.net/DTD/sodipodi-0.dtd"
   xmlns:inkscape="http://www.inkscape.org/namespaces/inkscape"
   version="1.1"
   width="45"
   height="45"
   id="svg3128"
   inkscape:version="0.48.2 r9819"
   sodipodi:docname="bb.svg">
  <metadata
     id="metadata14">
    <rdf:RDF>
      <cc:Work
         rdf:about="">
        <dc:format>image/svg+xml</dc:format>
        <dc:type
           rdf:resource="http://purl.org/dc/dcmitype/StillImage" />
      </cc:Work>
    </rdf:RDF>
  </metadata>
  <sodipodi:namedview
     pagecolor="#ffffff"
     bordercolor="#666666"
     borderopacity="1"
     objecttolerance="10"
     gridtolerance="10"
     guidetolerance="10"
     inkscape:pageopacity="0"
     inkscape:pageshadow="2"
     inkscape:window-width="640"
     inkscape:window-height="729"
     id="namedview12"
     showgrid="false"
     inkscape:zoom="5.2444444"
     inkscape:cx="22.5"
     inkscape:cy="22.5"
     inkscape:window-x="0"
     inkscape:window-y="0"
     inkscape:window-maximized="0"
     inkscape:current-layer="svg3128" />
  <defs
     id="defs3130" />
  <g
     style="display:inline"
     id="layer1">
    <path
       d="M 9,36 C 12.385,35.028 19.115,36.431 22.5,34 C 25.885,36.431 32.615,35.028 36,36 C 36,36 37.646,36.542 39,38 C 38.323,38.972 37.354,38.986 36,38.5 C 32.615,37.528 25.885,38.958 22.5,37.5 C 19.115,38.958 12.385,37.528 9,38.5 C 7.6459,38.986 6.6771,38.972 6,38 C 7.3541,36.055 9,36 9,36 z "
       style="fill:#000000;fill-opacity:1;fill-rule:evenodd;stroke:#000000;stroke-width:1.5;stroke-linecap:butt;stroke-linejoin:round;stroke-miterlimit:4;stroke-dasharray:none;stroke-opacity:1"
       id="path4582" />
    <path
       d="M 15,32 C 17.5,34.5 27.5,34.5 30,32 C 30.5,30.5 30,30 30,30 C 30,27.5 27.5,26 27.5,26 C 33,24.5 33.5,14.5 22.5,10.5 C 11.5,14.5 12,24.5 17.5,26 C 17.5,26 15,27.5 15,30 C 15,30 14.5,30.5 15,32 z "
       style="fill:#000000;fill-opacity:1;fill-rule:evenodd;stroke:#000000;stroke-width:1.5;stroke-linecap:butt;stroke-linejoin:round;stroke-miterlimit:4;stroke-dasharray:none;stroke-opacity:1"
       id="path4584" />
    <path
       d="M 25 10 A 2.5 2.5 0 1 1  20,10 A 2.5 2.5 0 1 1  25 10 z"
       transform="translate(0,-2)"
       style="opacity:1;fill:#000000;fill-opacity:1;stroke:#000000;stroke-width:1.5;stroke-linecap:butt;stroke-linejoin:round;stroke-miterlimit:4;stroke-dasharray:none;stroke-opacity:1"
       id="path4586" />
    <path
       d="M 17.5,26 L 27.5,26"
       style="fill:none;fill-opacity:0.75;fill-rule:evenodd;stroke:#ffffff;stroke-width:1.5;stroke-linecap:round;stroke-linejoin:miter;stroke-miterlimit:4;stroke-dasharray:none;stroke-opacity:1"
       id="path4588" />
    <path
       d="M 15,30 L 30,30"
       style="fill:none;fill-opacity:0.75;fill-rule:evenodd;stroke:#ffffff;stroke-width:1.5;stroke-linecap:round;stroke-linejoin:miter;stroke-miterlimit:4;stroke-dasharray:none;stroke-opacity:1"
       id="path4590" />
    <path
       d="M 22.5,15.5 L 22.5,20.5"
       style="fill:none;fill-opacity:0.75;fill-rule:evenodd;stroke:#ffffff;stroke-width:1.5;stroke-linecap:round;stroke-linejoin:miter;stroke-miterlimit:4;stroke-dasharray:none;stroke-opacity:1"
       id="path4592" />
    <path
       d="M 20,18 L 25,18"
       style="fill:none;fill-opacity:0.75;fill-rule:evenodd;stroke:#ffffff;stroke-width:1.5;stroke-linecap:round;stroke-linejoin:miter;stroke-miterlimit:4;stroke-dasharray:none;stroke-opacity:1"
       id="path4594" />
  </g>
  <path
     style="fill:#ececec;fill-opacity:1;stroke:#000000;stroke-width:0;stroke-linecap:round;stroke-linejoin:miter;stroke-miterlimit:3.79999995;stroke-opacity:1;stroke-dasharray:none;stroke-dashoffset:0"
     d="m 14.512667,30.242894 c -0.46929,-0.876878 -0.330214,-0.894076 7.694924,-0.951566 7.961921,-0.05704 8.378614,-0.01761 8.264785,0.781955 l -0.05924,0.416124 -7.857629,0.04978 c -7.424048,0.04703 -7.867849,0.03068 -8.04284,-0.296291 z"
     id="path2991"
     inkscape:connector-curvature="0" />
  <path
     style="fill:#ececec;fill-opacity:1;stroke:#000000;stroke-width:0;stroke-linecap:round;stroke-linejoin:miter;stroke-miterlimit:3.79999995;stroke-opacity:1;stroke-dasharray:none;stroke-dashoffset:0"
     d="m 17.040436,26.297469 c -0.06099,-0.158947 -0.06099,-0.419042 0,-0.577989 0.09611,-0.250459 0.829813,-0.282241 5.502392,-0.238348 l 5.391494,0.05065 0,0.476695 0,0.476694 -5.391494,0.05065 c -4.672579,0.04389 -5.406282,0.01211 -5.502392,-0.238348 l 0,0 z"
     id="path2993"
     inkscape:connector-curvature="0" />
  <path
     style="fill:#ececec;fill-opacity:1;stroke:#000000;stroke-width:0;stroke-linecap:round;stroke-linejoin:miter;stroke-miterlimit:3.79999995;stroke-opacity:1;stroke-dasharray:none;stroke-dashoffset:0"
     d="m 22.028087,20.825874 c -0.04887,-0.138447 -0.112839,-0.680747 -0.142156,-1.205111 l -0.0533,-0.95339 -1.144068,-0.09534 C 19.620763,18.483051 19.544492,18.444915 19.544492,18 c 0,-0.444915 0.07627,-0.483051 1.144067,-0.572034 l 1.144068,-0.09534 0.09534,-1.144068 c 0.08898,-1.067796 0.127119,-1.144067 0.572034,-1.144067 0.444915,0 0.483051,0.07627 0.572034,1.144067 l 0.09534,1.144068 1.144068,0.09534 c 1.067796,0.08898 1.144067,0.127119 1.144067,0.572034 0,0.444915 -0.07627,0.483051 -1.144067,0.572034 l -1.144068,0.09534 -0.09534,1.144068 c -0.08397,1.007623 -0.146607,1.151348 -0.525217,1.205111 -0.236433,0.03357 -0.469861,-0.05223 -0.51873,-0.190678 l 0,0 z"
     id="path2995"
     inkscape:connector-curvature="0" />
</svg>
