<?xml version="1.0" encoding="UTF-8" standalone="no"?>
<svg
   xmlns:dc="http://purl.org/dc/elements/1.1/"
   xmlns:cc="http://creativecommons.org/ns#"
   xmlns:rdf="http://www.w3.org/1999/02/22-rdf-syntax-ns#"
   xmlns:svg="http://www.w3.org/2000/svg"
   xmlns="http://www.w3.org/2000/svg"
   xmlns:sodipodi="http://sodipodi.sourceforge.net/DTD/sodipodi-0.dtd"
   xmlns:inkscape="http://www.inkscape.org/namespaces/inkscape"
   version="1.1"
   width="45"
   height="45"
   id="svg3128"
   inkscape:version="0.48.2 r9819"
   sodipodi:docname="bk.svg">
  <metadata
     id="metadata15">
    <rdf:RDF>
      <cc:Work
         rdf:about="">
        <dc:format>image/svg+xml</dc:format>
        <dc:type
           rdf:resource="http://purl.org/dc/dcmitype/StillImage" />
      </cc:Work>
    </rdf:RDF>
  </metadata>
  <sodipodi:namedview
     pagecolor="#ffffff"
     bordercolor="#666666"
     borderopacity="1"
     objecttolerance="10"
     gridtolerance="10"
     guidetolerance="10"
     inkscape:pageopacity="0"
     inkscape:pageshadow="2"
     inkscape:window-width="640"
     inkscape:window-height="735"
     id="namedview13"
     showgrid="false"
     inkscape:zoom="5.2444444"
     inkscape:cx="22.5"
     inkscape:cy="22.5"
     inkscape:window-x="0"
     inkscape:window-y="0"
     inkscape:window-maximized="0"
     inkscape:current-layer="svg3128" />
  <defs
     id="defs3130" />
  <g
     id="layer1">
    <path
       d="M 22.5,11.625 L 22.5,6"
       style="fill:none;fill-opacity:0.75;fill-rule:evenodd;stroke:#000000;stroke-width:1.5;stroke-linecap:round;stroke-linejoin:miter;stroke-miterlimit:4;stroke-dasharray:none;stroke-opacity:1"
       id="path6570" />
    <path
       d="M 22.5,25 C 22.5,25 27,17.5 25.5,14.5 C 25.5,14.5 24.5,12 22.5,12 C 20.5,12 19.5,14.5 19.5,14.5 C 18,17.5 22.5,25 22.5,25"
       style="fill:#000000;fill-opacity:1;fill-rule:evenodd;stroke:#000000;stroke-width:1.5;stroke-linecap:butt;stroke-linejoin:miter;stroke-miterlimit:4;stroke-dasharray:none;stroke-opacity:1"
       id="path5683" />
    <path
       d="M 11.5,37 C 17,40.5 27,40.5 32.5,37 L 32.5,30 C 32.5,30 41.5,25.5 38.5,19.5 C 34.5,13 25,16 22.5,23.5 L 22.5,27 L 22.5,23.5 C 19,16 9.5,13 6.5,19.5 C 3.5,25.5 11.5,29.5 11.5,29.5 L 11.5,37 z "
       style="fill:#000000;fill-opacity:1;fill-rule:evenodd;stroke:#000000;stroke-width:1.5;stroke-linecap:round;stroke-linejoin:round;stroke-miterlimit:4;stroke-dasharray:none;stroke-opacity:1"
       id="path5681" />
    <path
       d="M 20,8 L 25,8"
       style="fill:none;fill-opacity:0.75;fill-rule:evenodd;stroke:#000000;stroke-width:1.5;stroke-linecap:round;stroke-linejoin:miter;stroke-miterlimit:4;stroke-dasharray:none;stroke-opacity:1"
       id="path6572" />
    <path
       d="M 11.5,29.5 C 17,27 27,27 32.5,30"
       style="fill:none;fill-opacity:0.75;fill-rule:evenodd;stroke:#ffffff;stroke-width:1.5;stroke-linecap:round;stroke-linejoin:miter;stroke-miterlimit:4;stroke-dasharray:none;stroke-opacity:1"
       id="path6574" />
    <path
       d="M 11.5,37 C 17,34.5 27,34.5 32.5,37"
       style="fill:none;fill-opacity:0.75;fill-rule:evenodd;stroke:#ffffff;stroke-width:1.5;stroke-linecap:round;stroke-linejoin:round;stroke-miterlimit:4;stroke-dasharray:none;stroke-opacity:1"
       id="path6576" />
    <path
       d="M 11.5,33.5 C 17,31.5 27,31.5 32.5,33.5"
       style="fill:none;fill-opacity:0.75;fill-rule:evenodd;stroke:#ffffff;stroke-width:1.5;stroke-linecap:round;stroke-linejoin:round;stroke-miterlimit:4;stroke-dasharray:none;stroke-opacity:1"
       id="path6578" />
    <path
       d="M 32,29.5 C 32,29.5 40.5,25.5 38.026,19.847 C 34.147,13.997 25,18 22.5,24.5 L 22.512,26.597 L 22.5,24.5 C 20,18 9.9064,13.997 6.9975,19.847 C 4.5,25.5 11.846,28.847 11.846,28.847"
       style="fill:none;fill-opacity:1;fill-rule:evenodd;stroke:#ffffff;stroke-width:1.5;stroke-linecap:round;stroke-linejoin:round;stroke-miterlimit:4;stroke-dasharray:none;stroke-opacity:1"
       id="path5638" />
  </g>
  <path
     style="fill:#ececec;fill-opacity:1;stroke:#000000;stroke-width:0;stroke-linecap:round;stroke-linejoin:miter;stroke-miterlimit:3.79999995;stroke-opacity:1;stroke-dasharray:none;stroke-dashoffset:0"
     d="m 11.143436,37.403117 c -0.570727,-0.423806 -0.147812,-0.893231 1.269144,-1.408717 5.410752,-1.96842 13.967436,-1.962625 19.228651,0.01302 1.420713,0.533494 1.787465,0.929499 1.306381,1.410584 -0.298522,0.298521 -0.409637,0.286834 -1.71287,-0.180158 -5.324986,-1.908122 -13.713878,-1.886874 -18.620567,0.04716 -1.185085,0.467117 -1.018729,0.453758 -1.470739,0.118107 z"
     id="path2992"
     inkscape:connector-curvature="0" />
  <path
     style="fill:#ececec;fill-opacity:1;stroke:#000000;stroke-width:0;stroke-linecap:round;stroke-linejoin:miter;stroke-miterlimit:3.79999995;stroke-opacity:1;stroke-dasharray:none;stroke-dashoffset:0"
     d="m 10.956428,33.649923 c -0.157004,-0.494673 0.0279,-0.627319 1.532979,-1.099738 2.625216,-0.824009 4.734251,-1.057657 9.533898,-1.056207 4.790731,0.0014 6.58868,0.200431 9.464118,1.047412 1.499835,0.441788 1.909091,0.804833 1.438154,1.275769 -0.292839,0.29284 -0.432355,0.286136 -1.985739,-0.09543 -3.328801,-0.817664 -4.213798,-0.90618 -9.011872,-0.901356 -4.747031,0.0048 -6.366213,0.176592 -9.044142,0.959722 -1.314758,0.384485 -1.773892,0.353476 -1.927396,-0.130174 z"
     id="path2994"
     inkscape:connector-curvature="0" />
  <path
     style="fill:#ececec;fill-opacity:1;stroke:#000000;stroke-width:0;stroke-linecap:round;stroke-linejoin:miter;stroke-miterlimit:3.79999995;stroke-opacity:1;stroke-dasharray:none;stroke-dashoffset:0"
     d=""
     id="path2996"
     inkscape:connector-curvature="0" />
  <path
     style="fill:#ececec;fill-opacity:1;stroke:#000000;stroke-width:0;stroke-linecap:round;stroke-linejoin:miter;stroke-miterlimit:3.79999995;stroke-opacity:1;stroke-dasharray:none;stroke-dashoffset:0"
     d="m 31.271186,30.15877 c -2.807019,-1.460199 -9.119052,-2.181835 -13.588089,-1.553485 -1.233513,0.173433 -2.949615,0.53371 -3.813559,0.800615 -0.863945,0.266906 -1.849937,0.530625 -2.191094,0.586044 -0.564829,0.09175 -0.630275,0.05081 -0.732035,-0.457992 -0.07625,-0.381236 -0.321646,-0.671789 -0.77242,-0.914547 C 8.956858,27.963937 7.0689706,25.928422 6.4485821,24.602682 5.928501,23.491294 5.8784422,23.22186 5.9455243,21.895045 6.0971865,18.89532 7.8465589,16.988524 10.927678,16.464552 c 3.269732,-0.556047 8.335669,1.91489 10.647832,5.193535 0.444887,0.630849 0.875595,1.146998 0.95713,1.146998 0.08153,0 0.282192,-0.259025 0.445905,-0.575612 0.526011,-1.017193 2.772575,-3.216971 4.170437,-4.083585 1.961703,-1.216171 3.487352,-1.690594 5.45695,-1.696919 2.232786,-0.0072 3.540526,0.511529 4.972489,1.972278 1.254216,1.279429 1.616855,2.270311 1.460786,3.991475 -0.195949,2.160956 -2.095507,4.723859 -4.813898,6.49496 -0.678881,0.442309 -1.184871,0.884224 -1.124421,0.982034 0.15431,0.24968 -0.288762,0.734945 -0.661311,0.724287 -0.170687,-0.0049 -0.696463,-0.209738 -1.168391,-0.455233 z m 1.879012,-2.071627 c 1.723216,-1.030338 3.377173,-2.683601 4.048055,-4.046353 0.525371,-1.06718 0.591641,-1.372869 0.524698,-2.420315 -0.08951,-1.400546 -0.549629,-2.155618 -1.830629,-3.004116 -3.536611,-2.342555 -9.669184,0.141472 -12.235277,4.955955 -0.502371,0.942543 -0.586242,1.294509 -0.563074,2.362937 l 0.02722,1.255427 0.88114,0.0033 c 1.686139,0.0064 6.332418,0.984391 7.257088,1.527585 0.366936,0.215555 0.599911,0.137381 1.890776,-0.634448 l 0,-1e-6 z m -20.244179,0.224871 c 1.156634,-0.45985 3.711353,-0.927769 6.304786,-1.154776 l 2.717161,-0.237838 0,-1.155776 c 0,-0.993457 -0.10037,-1.325441 -0.714676,-2.363867 -1.875555,-3.170446 -6.071012,-5.742977 -9.366033,-5.742977 -2.7002807,0 -4.6632221,1.959101 -4.6258112,4.616761 0.018839,1.338319 0.4761032,2.310856 1.7104412,3.63787 0.6566762,0.70598 2.875829,2.402406 3.402098,2.600727 0.01939,0.0073 0.276807,-0.08275 0.572034,-0.200124 l 0,0 z"
     id="path2998"
     inkscape:connector-curvature="0" />
</svg>
