<?xml version="1.0" encoding="UTF-8" standalone="no"?>
<svg
   xmlns:dc="http://purl.org/dc/elements/1.1/"
   xmlns:cc="http://creativecommons.org/ns#"
   xmlns:rdf="http://www.w3.org/1999/02/22-rdf-syntax-ns#"
   xmlns:svg="http://www.w3.org/2000/svg"
   xmlns="http://www.w3.org/2000/svg"
   xmlns:sodipodi="http://sodipodi.sourceforge.net/DTD/sodipodi-0.dtd"
   xmlns:inkscape="http://www.inkscape.org/namespaces/inkscape"
   version="1.1"
   width="45"
   height="45"
   id="svg3128"
   inkscape:version="0.48.2 r9819"
   sodipodi:docname="bq.svg">
  <metadata
     id="metadata18">
    <rdf:RDF>
      <cc:Work
         rdf:about="">
        <dc:format>image/svg+xml</dc:format>
        <dc:type
           rdf:resource="http://purl.org/dc/dcmitype/StillImage" />
      </cc:Work>
    </rdf:RDF>
  </metadata>
  <sodipodi:namedview
     pagecolor="#ffffff"
     bordercolor="#666666"
     borderopacity="1"
     objecttolerance="10"
     gridtolerance="10"
     guidetolerance="10"
     inkscape:pageopacity="0"
     inkscape:pageshadow="2"
     inkscape:window-width="640"
     inkscape:window-height="715"
     id="namedview16"
     showgrid="false"
     inkscape:zoom="5.2444444"
     inkscape:cx="22.5"
     inkscape:cy="22.5"
     inkscape:window-x="0"
     inkscape:window-y="0"
     inkscape:window-maximized="0"
     inkscape:current-layer="svg3128" />
  <defs
     id="defs3" />
  <g
     id="layer1">
    <path
       d="M 8 12 A 2 2 0 1 1  4,12 A 2 2 0 1 1  8 12 z"
       style="opacity:1;fill:#000000;fill-opacity:1;stroke:#000000;stroke-width:1;stroke-linecap:round;stroke-linejoin:round;stroke-miterlimit:4;stroke-dasharray:none;stroke-opacity:1"
       id="path5571" />
    <path
       d="M 9 13 A 2 2 0 1 1  5,13 A 2 2 0 1 1  9 13 z"
       transform="translate(15.5,-5.5)"
       style="opacity:1;fill:#000000;fill-opacity:1;stroke:#000000;stroke-width:1;stroke-linecap:round;stroke-linejoin:round;stroke-miterlimit:4;stroke-dasharray:none;stroke-opacity:1"
       id="path5573" />
    <path
       d="M 9 13 A 2 2 0 1 1  5,13 A 2 2 0 1 1  9 13 z"
       transform="translate(32,-1)"
       style="opacity:1;fill:#000000;fill-opacity:1;stroke:#000000;stroke-width:1;stroke-linecap:round;stroke-linejoin:round;stroke-miterlimit:4;stroke-dasharray:none;stroke-opacity:1"
       id="path5575" />
    <path
       d="M 9 13 A 2 2 0 1 1  5,13 A 2 2 0 1 1  9 13 z"
       transform="translate(7,-4.5)"
       style="opacity:1;fill:#000000;fill-opacity:1;stroke:#000000;stroke-width:1;stroke-linecap:round;stroke-linejoin:round;stroke-miterlimit:4;stroke-dasharray:none;stroke-opacity:1"
       id="path5577" />
    <path
       d="M 9 13 A 2 2 0 1 1  5,13 A 2 2 0 1 1  9 13 z"
       transform="translate(24,-4)"
       style="opacity:1;fill:#000000;fill-opacity:1;stroke:#000000;stroke-width:1;stroke-linecap:round;stroke-linejoin:round;stroke-miterlimit:4;stroke-dasharray:none;stroke-opacity:1"
       id="path5579" />
    <path
       d="M 9,26 C 17.5,24.5 30,24.5 36,26 L 38,14 L 31,25 L 31,11 L 25.5,24.5 L 22.5,9.5 L 19.5,24.5 L 14,10.5 L 14,25 L 7,14 L 9,26 z "
       style="fill:#000000;fill-opacity:1;fill-rule:evenodd;stroke:#000000;stroke-width:1px;stroke-linecap:butt;stroke-linejoin:round;stroke-opacity:1"
       id="path5581" />
    <path
       d="M 9,26 C 9,28 10.5,28 11.5,30 C 12.5,31.5 12.5,31 12,33.5 C 10.5,34.5 10.5,36 10.5,36 C 9,37.5 11,38.5 11,38.5 C 17.5,39.5 27.5,39.5 34,38.5 C 34,38.5 35.5,37.5 34,36 C 34,36 34.5,34.5 33,33.5 C 32.5,31 32.5,31.5 33.5,30 C 34.5,28 36,28 36,26 C 27.5,24.5 17.5,24.5 9,26 z "
       style="fill:#000000;fill-opacity:1;fill-rule:evenodd;stroke:#000000;stroke-width:1px;stroke-linecap:butt;stroke-linejoin:round;stroke-opacity:1"
       id="path5583" />
    <path
       d="M 11.5,30 C 15,29 30,29 33.5,30"
       style="fill:none;fill-opacity:0.75;fill-rule:evenodd;stroke:#ffffff;stroke-width:1px;stroke-linecap:round;stroke-linejoin:round;stroke-opacity:1"
       id="path5585" />
    <path
       d="M 12,33.5 C 18,32.5 27,32.5 33,33.5"
       style="fill:none;fill-opacity:0.75;fill-rule:evenodd;stroke:#ffffff;stroke-width:1px;stroke-linecap:round;stroke-linejoin:round;stroke-opacity:1"
       id="path5587" />
    <path
       d="M 10.5,36 C 15.5,35 29,35 34,36"
       style="fill:none;fill-opacity:0.75;fill-rule:evenodd;stroke:#ffffff;stroke-width:1px;stroke-linecap:round;stroke-linejoin:round;stroke-opacity:1"
       id="path5589" />
  </g>
  <path
     style="fill:#ececec;fill-opacity:1;stroke:#000000;stroke-width:0;stroke-linecap:round;stroke-linejoin:miter;stroke-miterlimit:3.79999995;stroke-opacity:1;stroke-dasharray:none;stroke-dashoffset:0"
     d="m 10.215799,36.176049 c -0.2447668,-0.396041 0.06833,-0.549859 1.556033,-0.764438 3.916069,-0.564835 10.724402,-0.724836 16.462537,-0.386882 4.410521,0.259763 5.961816,0.519805 6.057252,1.015374 0.06388,0.331688 -0.01895,0.349737 -1.046508,0.228007 -3.637588,-0.430934 -5.722807,-0.531381 -11.03113,-0.531381 -5.258563,0 -7.519145,0.110353 -10.890533,0.531635 -0.639246,0.07988 -1.020887,0.04807 -1.107651,-0.09231 z"
     id="path2995"
     inkscape:connector-curvature="0" />
  <path
     style="fill:#ececec;fill-opacity:1;stroke:#000000;stroke-width:0;stroke-linecap:round;stroke-linejoin:miter;stroke-miterlimit:3.79999995;stroke-opacity:1;stroke-dasharray:none;stroke-dashoffset:0"
     d="m 11.716427,33.657115 c -0.251761,-0.407357 0.274815,-0.580292 2.699566,-0.886574 3.424929,-0.43262 12.743085,-0.43262 16.168015,0 2.478356,0.313054 3.057214,0.516204 2.645113,0.928303 -0.160606,0.160606 -0.588003,0.160435 -1.671204,-6.71e-4 -3.038448,-0.451913 -8.883988,-0.642977 -12.91708,-0.4222 -2.124812,0.116316 -4.378125,0.2958 -5.007362,0.398854 -1.462297,0.239489 -1.759788,0.236741 -1.917048,-0.01771 z"
     id="path2997"
     inkscape:connector-curvature="0" />
  <path
     style="fill:#ececec;fill-opacity:1;stroke:#000000;stroke-width:0;stroke-linecap:round;stroke-linejoin:miter;stroke-miterlimit:3.79999995;stroke-opacity:1;stroke-dasharray:none;stroke-dashoffset:0"
     d="M 11.185938,30.158935 C 10.852299,29.289486 13.662846,29.002119 22.5,29.002119 c 7.208297,0 10.158275,0.185147 11.115911,0.697658 0.311322,0.166615 0.328373,0.237465 0.108664,0.45157 -0.194488,0.189531 -0.478253,0.211769 -1.118643,0.08767 -3.89627,-0.755065 -17.100449,-0.687942 -20.807391,0.105772 -0.346752,0.07425 -0.534672,0.01723 -0.612603,-0.185851 z"
     id="path2999"
     inkscape:connector-curvature="0" />
</svg>
