<?xml version="1.0" encoding="UTF-8" standalone="no"?>
<svg
   xmlns:dc="http://purl.org/dc/elements/1.1/"
   xmlns:cc="http://creativecommons.org/ns#"
   xmlns:rdf="http://www.w3.org/1999/02/22-rdf-syntax-ns#"
   xmlns:svg="http://www.w3.org/2000/svg"
   xmlns="http://www.w3.org/2000/svg"
   xmlns:sodipodi="http://sodipodi.sourceforge.net/DTD/sodipodi-0.dtd"
   xmlns:inkscape="http://www.inkscape.org/namespaces/inkscape"
   version="1.1"
   width="45"
   height="45"
   id="svg3128"
   inkscape:version="0.48.2 r9819"
   sodipodi:docname="wb.svg">
  <metadata
     id="metadata15">
    <rdf:RDF>
      <cc:Work
         rdf:about="">
        <dc:format>image/svg+xml</dc:format>
        <dc:type
           rdf:resource="http://purl.org/dc/dcmitype/StillImage" />
      </cc:Work>
    </rdf:RDF>
  </metadata>
  <sodipodi:namedview
     pagecolor="#ffffff"
     bordercolor="#666666"
     borderopacity="1"
     objecttolerance="10"
     gridtolerance="10"
     guidetolerance="10"
     inkscape:pageopacity="0"
     inkscape:pageshadow="2"
     inkscape:window-width="675"
     inkscape:window-height="480"
     id="namedview13"
     showgrid="false"
     inkscape:zoom="5.2444444"
     inkscape:cx="22.5"
     inkscape:cy="22.5"
     inkscape:window-x="0"
     inkscape:window-y="0"
     inkscape:window-maximized="0"
     inkscape:current-layer="svg3128" />
  <defs
     id="defs3130" />
  <g
     style="display:inline;fill:#f9f9f9"
     id="layer1">
    <path
       d="M 9,36 C 12.385,35.028 19.115,36.431 22.5,34 C 25.885,36.431 32.615,35.028 36,36 C 36,36 37.646,36.542 39,38 C 38.323,38.972 37.354,38.986 36,38.5 C 32.615,37.528 25.885,38.958 22.5,37.5 C 19.115,38.958 12.385,37.528 9,38.5 C 7.6459,38.986 6.6771,38.972 6,38 C 7.3541,36.055 9,36 9,36 z "
       style="fill:#f9f9f9;fill-opacity:1;fill-rule:evenodd;stroke:#000000;stroke-width:1.50000000000000000;stroke-linecap:butt;stroke-linejoin:round;stroke-miterlimit:4;stroke-dasharray:none;stroke-opacity:1"
       id="path4582" />
    <path
       d="M 15,32 C 17.5,34.5 27.5,34.5 30,32 C 30.5,30.5 30,30 30,30 C 30,27.5 27.5,26 27.5,26 C 33,24.5 33.5,14.5 22.5,10.5 C 11.5,14.5 12,24.5 17.5,26 C 17.5,26 15,27.5 15,30 C 15,30 14.5,30.5 15,32 z "
       style="fill:#f9f9f9;fill-opacity:1;fill-rule:evenodd;stroke:#000000;stroke-width:1.50000000000000000;stroke-linecap:butt;stroke-linejoin:round;stroke-miterlimit:4;stroke-dasharray:none;stroke-opacity:1"
       id="path4584" />
    <path
       d="M 25 10 A 2.5 2.5 0 1 1  20,10 A 2.5 2.5 0 1 1  25 10 z"
       transform="translate(0,-2)"
       style="opacity:1;fill:#f9f9f9;fill-opacity:1;stroke:#000000;stroke-width:1.50000000000000000;stroke-linecap:butt;stroke-linejoin:round;stroke-miterlimit:4;stroke-dasharray:none;stroke-opacity:1"
       id="path4586" />
    <path
       d="M 17.5,26 L 27.5,26"
       style="fill:#f9f9f9;fill-opacity:0.75000000000000000;fill-rule:evenodd;stroke:#000000;stroke-width:1.50000000000000000;stroke-linecap:butt;stroke-linejoin:miter;stroke-miterlimit:4;stroke-dasharray:none;stroke-opacity:1"
       id="path4588" />
    <path
       d="M 15,30 L 30,30"
       style="fill:#f9f9f9;fill-opacity:0.75000000000000000;fill-rule:evenodd;stroke:#000000;stroke-width:1.50000000000000000;stroke-linecap:butt;stroke-linejoin:miter;stroke-miterlimit:4;stroke-dasharray:none;stroke-opacity:1"
       id="path4590" />
    <path
       d="M 22.5,15.5 L 22.5,20.5"
       style="fill:#f9f9f9;fill-opacity:0.75000000000000000;fill-rule:evenodd;stroke:#000000;stroke-width:1.50000000000000000;stroke-linecap:round;stroke-linejoin:miter;stroke-miterlimit:4;stroke-dasharray:none;stroke-opacity:1"
       id="path4592" />
    <path
       d="M 20,18 L 25,18"
       style="fill:#f9f9f9;fill-opacity:0.75000000000000000;fill-rule:evenodd;stroke:#000000;stroke-width:1.50000000000000000;stroke-linecap:round;stroke-linejoin:miter;stroke-miterlimit:4;stroke-dasharray:none;stroke-opacity:1"
       id="path4594" />
  </g>
  <g
     style="display:inline;fill:#f9f9f9"
     id="layer2" />
</svg>
