<?xml version="1.0" encoding="UTF-8" standalone="no"?>
<!-- Created with Inkscape (http://www.inkscape.org/) -->
<svg
   xmlns:dc="http://purl.org/dc/elements/1.1/"
   xmlns:cc="http://web.resource.org/cc/"
   xmlns:rdf="http://www.w3.org/1999/02/22-rdf-syntax-ns#"
   xmlns:svg="http://www.w3.org/2000/svg"
   xmlns="http://www.w3.org/2000/svg"
   xmlns:xlink="http://www.w3.org/1999/xlink"
   xmlns:sodipodi="http://sodipodi.sourceforge.net/DTD/sodipodi-0.dtd"
   xmlns:inkscape="http://www.inkscape.org/namespaces/inkscape"
   width="80"
   height="80"
   id="svg2295"
   sodipodi:version="0.32"
   inkscape:version="0.45.1"
   version="1.0"
   sodipodi:docbase="/home/fkling/2/v0.1.2reduced/PieceThemes/Neu"
   sodipodi:docname="bk.svg"
   inkscape:output_extension="org.inkscape.output.svg.inkscape">
  <defs
     id="defs2297">
    <linearGradient
       id="linearGradient2177">
      <stop
         style="stop-color:#ffffff;stop-opacity:1;"
         offset="0"
         id="stop2179" />
      <stop
         style="stop-color:#ffffff;stop-opacity:0.50196081;"
         offset="1"
         id="stop2181" />
    </linearGradient>
    <linearGradient
       inkscape:collect="always"
       xlink:href="#linearGradient2177"
       id="linearGradient2183"
       x1="40"
       y1="50.357143"
       x2="80.35714"
       y2="50.17857"
       gradientUnits="userSpaceOnUse" />
    <linearGradient
       inkscape:collect="always"
       xlink:href="#linearGradient2177"
       id="linearGradient2185"
       x1="40"
       y1="50.357143"
       x2="80.35714"
       y2="50.17857"
       gradientUnits="userSpaceOnUse" />
    <linearGradient
       inkscape:collect="always"
       xlink:href="#linearGradient2177"
       id="linearGradient2187"
       x1="40"
       y1="50.357143"
       x2="80.35714"
       y2="50.17857"
       gradientUnits="userSpaceOnUse" />
    <linearGradient
       inkscape:collect="always"
       xlink:href="#linearGradient2177"
       id="linearGradient2189"
       x1="40"
       y1="50.357143"
       x2="80.35714"
       y2="50.17857"
       gradientUnits="userSpaceOnUse" />
    <linearGradient
       inkscape:collect="always"
       xlink:href="#linearGradient2177"
       id="linearGradient2193"
       x1="40"
       y1="50.357143"
       x2="80.35714"
       y2="50.17857"
       gradientUnits="userSpaceOnUse" />
    <linearGradient
       inkscape:collect="always"
       xlink:href="#linearGradient2177"
       id="linearGradient2195"
       x1="40"
       y1="50.357143"
       x2="80.35714"
       y2="50.17857"
       gradientUnits="userSpaceOnUse" />
  </defs>
  <sodipodi:namedview
     id="base"
     pagecolor="#ffffff"
     bordercolor="#666666"
     borderopacity="1.0"
     inkscape:pageopacity="0.0"
     inkscape:pageshadow="2"
     inkscape:zoom="5.6"
     inkscape:cx="51.690147"
     inkscape:cy="36.090792"
     inkscape:document-units="px"
     inkscape:current-layer="layer1"
     width="80px"
     height="80px"
     showgrid="true"
     inkscape:window-width="944"
     inkscape:window-height="621"
     inkscape:window-x="231"
     inkscape:window-y="139" />
  <metadata
     id="metadata2300">
    <rdf:RDF>
      <cc:Work
         rdf:about="">
        <dc:format>image/svg+xml</dc:format>
        <dc:type
           rdf:resource="http://purl.org/dc/dcmitype/StillImage" />
      </cc:Work>
    </rdf:RDF>
  </metadata>
  <g
     inkscape:label="Ebene 1"
     inkscape:groupmode="layer"
     id="layer1">
    <path
       id="path30"
       d="M 29.41223,5.0662265 C 36.508582,5.0615756 43.605774,5.0614993 50.704383,5.0662646 C 50.705411,10.362082 50.70269,15.657651 50.703693,20.953641 C 54.842908,18.299282 59.584972,16.032468 64.650857,16.610444 C 71.018842,16.923921 76.981016,22.371835 76.892664,28.936353 C 76.821583,37.78382 71.097185,45.483046 64.482869,50.855535 C 64.084131,56.898517 63.769179,62.946628 63.426181,68.993305 C 57.778759,74.563076 49.360136,74.585755 41.960435,74.744495 C 35.057269,74.665948 27.833532,75.001453 21.340405,72.274635 C 19.34936,71.268367 16.753284,69.918556 16.649641,67.38753 C 16.147474,61.879155 16.033824,56.342455 15.625553,50.826883 C 8.8993795,45.585095 3.4437625,37.737828 3.1644706,28.991799 C 2.9928959,22.348352 9.129679,16.941088 15.508289,16.600032 C 20.552449,16.068086 25.279574,18.315034 29.412594,20.957812 C 29.411,15.660425 29.40838,10.363461 29.41223,5.0662265 z "
       style="fill:none;stroke:#000000;stroke-width:0.12542887;stroke-linecap:butt;stroke-linejoin:miter;stroke-miterlimit:10" />
    <path
       style="fill:#1f1a17;fill-rule:nonzero;stroke:none;fill-opacity:1"
       d="M 29.40625 5.0625 C 29.4024 10.359734 29.404656 15.671364 29.40625 20.96875 C 25.27323 18.325972 20.54416 16.061803 15.5 16.59375 C 9.12139 16.934806 2.9846752 22.356554 3.15625 29 C 3.4355419 37.746029 8.8988264 45.570714 15.625 50.8125 C 16.033271 56.328072 16.154083 61.866628 16.65625 67.375 C 16.759893 69.906026 19.352705 71.274982 21.34375 72.28125 C 27.836877 75.008068 35.065585 74.671456 41.96875 74.75 C 49.368451 74.59126 57.790077 74.569775 63.4375 69 C 63.780498 62.953323 64.070009 56.886733 64.46875 50.84375 C 71.083066 45.471261 76.835171 37.784966 76.90625 28.9375 C 76.994602 22.372982 71.024236 16.938478 64.65625 16.625 C 59.590365 16.047024 54.857965 18.31439 50.71875 20.96875 C 50.717747 15.67276 50.719777 10.358317 50.71875 5.0625 C 43.620141 5.0577347 36.502602 5.0578491 29.40625 5.0625 z M 39.5625 25.03125 C 41.89001 24.836983 44.445166 26.409855 44.5 28.90625 C 45.016729 32.590549 39.971448 34.784897 37.28125 32.53125 C 34.954318 31.09518 35.044412 27.210863 37.40625 25.84375 C 38.033739 25.353076 38.786663 25.096006 39.5625 25.03125 z "
       id="path32" />
    <path
       id="path34"
       d="M 32.065527,9.7774833 C 32.896694,8.7216652 33.733756,7.667839 34.576713,6.6160005 C 36.430991,8.1549616 38.248556,9.7402771 40.053352,11.34278 C 41.857558,9.7413307 43.677143,8.1563403 45.539447,6.6168052 C 46.373524,7.667839 47.208994,8.7209006 48.045842,9.7759902 C 46.464059,11.213975 44.877096,12.646333 43.295663,14.077809 C 44.95303,15.590704 46.60918,17.108381 48.246065,18.650845 C 47.589733,19.404881 46.277044,20.91297 45.620713,21.667025 C 43.74658,20.102361 41.897106,18.509026 40.062194,16.905394 C 38.214301,18.504261 36.363347,20.096791 34.49087,21.661494 C 33.834952,20.908894 32.523104,19.403733 31.867199,18.651131 C 33.496796,17.10798 35.152646,15.590283 36.818378,14.080049 C 35.227451,12.648304 33.644489,11.215256 32.065527,9.7774833 z "
       style="fill:none;stroke:#ffffff;stroke-width:0.12542887;stroke-linecap:butt;stroke-linejoin:miter;stroke-miterlimit:10" />
    <path
       id="path36"
       d="M 32.065527,9.7774833 C 32.896694,8.7216652 33.733756,7.667839 34.576713,6.6160005 C 36.430991,8.1549616 38.248556,9.7402771 40.053352,11.34278 C 41.857558,9.7413307 43.677143,8.1563403 45.539447,6.6168052 C 46.373524,7.667839 47.208994,8.7209006 48.045842,9.7759902 C 46.464059,11.213975 44.877096,12.646333 43.295663,14.077809 C 44.95303,15.590704 46.60918,17.108381 48.246065,18.650845 C 47.589733,19.404881 46.277044,20.91297 45.620713,21.667025 C 43.74658,20.102361 41.897106,18.509026 40.062194,16.905394 C 38.214301,18.504261 36.363347,20.096791 34.49087,21.661494 C 33.834952,20.908894 32.523104,19.403733 31.867199,18.651131 C 33.496796,17.10798 35.152646,15.590283 36.818378,14.080049 C 35.227451,12.648304 33.644489,11.215256 32.065527,9.7774833 z "
       style="fill:url(#linearGradient2193);fill-rule:nonzero;stroke:none;fill-opacity:1.0" />
    <path
       id="path62"
       d="M 12.587314,32.755316 C 12.760155,27.691366 19.085609,26.30588 22.99135,27.955962 C 30.234842,30.267982 33.818947,37.632565 36.343529,44.220949 C 38.840216,44.192623 41.341995,44.168757 43.845544,44.123035 C 46.238889,37.506765 50.096429,30.469917 57.113447,27.961091 C 60.999171,26.271506 67.356006,27.711309 67.522864,32.761632 C 67.316195,38.409299 63.814296,43.24783 59.567362,46.695 C 60.616864,48.205654 61.359102,49.856042 61.297089,51.744538 C 54.885454,50.390611 48.51521,48.590232 41.918065,48.464068 C 34.066758,48.046284 26.418092,50.051221 18.830436,51.744154 C 18.746449,49.853765 19.466247,48.201022 20.573646,46.714522 C 16.29104,43.282128 12.753194,38.431385 12.587314,32.755316 z "
       style="fill:none;stroke:#ffffff;stroke-width:0.12542887;stroke-linecap:butt;stroke-linejoin:miter;stroke-miterlimit:10" />
    <path
       id="path64"
       d="M 12.587314,32.755316 C 12.760155,27.691366 19.085609,26.30588 22.99135,27.955962 C 30.234842,30.267982 33.818947,37.632565 36.343529,44.220949 C 38.840216,44.192623 41.341995,44.168757 43.845544,44.123035 C 46.238889,37.506765 50.096429,30.469917 57.113447,27.961091 C 60.999171,26.271506 67.356006,27.711309 67.522864,32.761632 C 67.316195,38.409299 63.814296,43.24783 59.567362,46.695 C 60.616864,48.205654 61.359102,49.856042 61.297089,51.744538 C 54.885454,50.390611 48.51521,48.590232 41.918065,48.464068 C 34.066758,48.046284 26.418092,50.051221 18.830436,51.744154 C 18.746449,49.853765 19.466247,48.201022 20.573646,46.714522 C 16.29104,43.282128 12.753194,38.431385 12.587314,32.755316 z "
       style="fill:url(#linearGradient2195);fill-rule:nonzero;stroke:none;fill-opacity:1.0" />
    <path
       id="path70"
       d="M 18.094093,35.18707 C 17.7963,33.025882 19.815278,32.146297 21.618632,32.864216 C 26.907077,34.18484 29.307722,39.678362 31.329348,44.191686 C 29.216736,44.541489 27.1039,44.878084 24.991151,45.187638 C 22.53642,41.987494 19.391504,39.10186 18.094093,35.18707 z "
       style="fill:none;stroke:#000000;stroke-width:0.12542887;stroke-linecap:butt;stroke-linejoin:miter;stroke-miterlimit:10" />
    <path
       id="path72"
       d="M 18.094093,35.18707 C 17.7963,33.025882 19.815278,32.146297 21.618632,32.864216 C 26.907077,34.18484 29.307722,39.678362 31.329348,44.191686 C 29.216736,44.541489 27.1039,44.878084 24.991151,45.187638 C 22.53642,41.987494 19.391504,39.10186 18.094093,35.18707 z "
       style="fill:#000000;fill-rule:nonzero;stroke:none" />
    <path
       id="path74"
       d="M 48.779024,44.168565 C 50.84993,39.39281 53.51128,33.186133 59.478985,32.662836 C 61.613007,32.018026 62.550475,34.604768 61.691363,36.152246 C 60.128594,39.59063 57.393392,42.294865 55.059097,45.204919 C 52.958716,44.876133 50.869321,44.514866 48.779024,44.168565 z "
       style="fill:none;stroke:#000000;stroke-width:0.12542887;stroke-linecap:butt;stroke-linejoin:miter;stroke-miterlimit:10" />
    <path
       id="path76"
       d="M 48.779024,44.168565 C 50.84993,39.39281 53.51128,33.186133 59.478985,32.662836 C 61.613007,32.018026 62.550475,34.604768 61.691363,36.152246 C 60.128594,39.59063 57.393392,42.294865 55.059097,45.204919 C 52.958716,44.876133 50.869321,44.514866 48.779024,44.168565 z "
       style="fill:#000000;fill-rule:nonzero;stroke:none" />
    <path
       id="path102"
       d="M 36.145315,53.309661 C 38.426025,51.808903 41.584198,51.828482 43.908471,53.238197 C 45.985949,57.923445 34.335125,58.009761 36.145315,53.309661 z "
       style="fill:none;stroke:#ffffff;stroke-width:0.12542887;stroke-linecap:butt;stroke-linejoin:miter;stroke-miterlimit:10" />
    <path
       id="path104"
       d="M 36.145315,53.309661 C 38.426025,51.808903 41.584198,51.828482 43.908471,53.238197 C 45.985949,57.923445 34.335125,58.009761 36.145315,53.309661 z "
       style="fill:url(#linearGradient2189);fill-rule:nonzero;stroke:none;fill-opacity:1.0" />
    <path
       id="path114"
       d="M 19.052608,59.049446 C 19.485764,55.760038 22.861732,56.039237 25.294601,56.348139 C 23.76408,58.32873 21.452965,58.991838 19.052608,59.049446 z "
       style="fill:none;stroke:#ffffff;stroke-width:0.12542887;stroke-linecap:butt;stroke-linejoin:miter;stroke-miterlimit:10" />
    <path
       id="path116"
       d="M 19.052608,59.049446 C 19.485764,55.760038 22.861732,56.039237 25.294601,56.348139 C 23.76408,58.32873 21.452965,58.991838 19.052608,59.049446 z "
       style="fill:url(#linearGradient2183);fill-rule:nonzero;stroke:none;fill-opacity:1.0" />
    <path
       id="path118"
       d="M 54.975926,57.625471 C 56.717355,55.126176 61.065422,55.847829 60.77656,59.31182 C 58.815881,58.829252 56.879271,58.278472 54.975926,57.625471 z "
       style="fill:none;stroke:#ffffff;stroke-width:0.12542887;stroke-linecap:butt;stroke-linejoin:miter;stroke-miterlimit:10" />
    <path
       id="path120"
       d="M 54.975926,57.625471 C 56.717355,55.126176 61.065422,55.847829 60.77656,59.31182 C 58.815881,58.829252 56.879271,58.278472 54.975926,57.625471 z "
       style="fill:url(#linearGradient2187);fill-rule:nonzero;stroke:none;fill-opacity:1.0" />
    <path
       id="path138"
       d="M 20.005115,64.092801 C 25.098769,61.128028 31.255457,61.476319 36.941286,61.048888 C 44.848961,61.046133 53.19589,60.726723 60.544617,64.122045 C 59.917835,64.658165 58.664274,65.730404 58.037494,66.266524 C 47.531358,63.831172 36.429398,63.408201 25.840216,65.545253 C 23.656412,65.864128 20.315125,67.523702 20.005115,64.092801 z "
       style="fill:none;stroke:#ffffff;stroke-width:0.12542887;stroke-linecap:butt;stroke-linejoin:miter;stroke-miterlimit:10" />
    <path
       id="path140"
       d="M 20.005115,64.092801 C 25.098769,61.128028 31.255457,61.476319 36.941286,61.048888 C 44.848961,61.046133 53.19589,60.726723 60.544617,64.122045 C 59.917835,64.658165 58.664274,65.730404 58.037494,66.266524 C 47.531358,63.831172 36.429398,63.408201 25.840216,65.545253 C 23.656412,65.864128 20.315125,67.523702 20.005115,64.092801 z "
       style="fill:url(#linearGradient2185);fill-rule:nonzero;stroke:none;fill-opacity:1.0" />
  </g>
</svg>
