<?xml version="1.0" encoding="UTF-8" standalone="no"?>
<!-- Created with Inkscape (http://www.inkscape.org/) -->
<svg
   xmlns:dc="http://purl.org/dc/elements/1.1/"
   xmlns:cc="http://web.resource.org/cc/"
   xmlns:rdf="http://www.w3.org/1999/02/22-rdf-syntax-ns#"
   xmlns:svg="http://www.w3.org/2000/svg"
   xmlns="http://www.w3.org/2000/svg"
   xmlns:xlink="http://www.w3.org/1999/xlink"
   xmlns:sodipodi="http://sodipodi.sourceforge.net/DTD/sodipodi-0.dtd"
   xmlns:inkscape="http://www.inkscape.org/namespaces/inkscape"
   width="80"
   height="80"
   id="svg2295"
   sodipodi:version="0.32"
   inkscape:version="0.45.1"
   version="1.0"
   sodipodi:docbase="/home/fkling/2/1/v0.1.2/PieceThemes/Neu"
   sodipodi:docname="bn.svg"
   inkscape:output_extension="org.inkscape.output.svg.inkscape">
  <defs
     id="defs2297">
    <linearGradient
       id="linearGradient2169">
      <stop
         style="stop-color:#ffffff;stop-opacity:1;"
         offset="0"
         id="stop2323" />
      <stop
         style="stop-color:#ffffff;stop-opacity:0.50373137;"
         offset="1"
         id="stop2173" />
    </linearGradient>
    <linearGradient
       id="linearGradient2167">
      <stop
         style="stop-color:#ffffff;stop-opacity:1;"
         offset="0"
         id="stop2169" />
      <stop
         style="stop-color:#ffffff;stop-opacity:0.50196081;"
         offset="1"
         id="stop2171" />
    </linearGradient>
    <linearGradient
       inkscape:collect="always"
       xlink:href="#linearGradient2167"
       id="linearGradient2173"
       x1="39.82143"
       y1="50.17857"
       x2="80.35714"
       y2="50.17857"
       gradientUnits="userSpaceOnUse" />
    <linearGradient
       inkscape:collect="always"
       xlink:href="#linearGradient2167"
       id="linearGradient2175"
       x1="39.82143"
       y1="50.17857"
       x2="80.35714"
       y2="50.17857"
       gradientUnits="userSpaceOnUse"
       gradientTransform="matrix(0.7776246,-5.1345738e-2,5.1345738e-2,0.7776246,6.758675,0.9756541)" />
    <linearGradient
       inkscape:collect="always"
       xlink:href="#linearGradient2167"
       id="linearGradient2177"
       x1="39.82143"
       y1="50.17857"
       x2="80.35714"
       y2="50.17857"
       gradientUnits="userSpaceOnUse"
       gradientTransform="matrix(0.603183,-0.3052501,0.3052501,0.603183,-10.026755,24.270377)" />
    <linearGradient
       inkscape:collect="always"
       xlink:href="#linearGradient2167"
       id="linearGradient2338"
       gradientUnits="userSpaceOnUse"
       gradientTransform="matrix(0.7793179,0,0,0.7793179,26.110179,-2.0901826)"
       x1="39.82143"
       y1="50.17857"
       x2="80.35714"
       y2="50.17857" />
  </defs>
  <sodipodi:namedview
     id="base"
     pagecolor="#ffffff"
     bordercolor="#666666"
     borderopacity="1.0"
     inkscape:pageopacity="0.0"
     inkscape:pageshadow="2"
     inkscape:zoom="3.959798"
     inkscape:cx="20.446429"
     inkscape:cy="23.986909"
     inkscape:document-units="px"
     inkscape:current-layer="layer2"
     width="80px"
     height="80px"
     showgrid="false"
     inkscape:window-width="944"
     inkscape:window-height="629"
     inkscape:window-x="273"
     inkscape:window-y="248" />
  <metadata
     id="metadata2300">
    <rdf:RDF>
      <cc:Work
         rdf:about="">
        <dc:format>image/svg+xml</dc:format>
        <dc:type
           rdf:resource="http://purl.org/dc/dcmitype/StillImage" />
      </cc:Work>
    </rdf:RDF>
  </metadata>
  <g
     inkscape:groupmode="layer"
     id="layer2">
    <path
       style="opacity:1;fill:#ffffff;fill-opacity:1;stroke:#201917;stroke-width:1.94799995;stroke-linecap:butt;stroke-linejoin:miter;stroke-miterlimit:4;stroke-dasharray:none;stroke-dashoffset:0;stroke-opacity:1"
       d="M 12.445179,56.719953 C 13.71198,57.99326 16.876181,58.02461 18.445169,56.891847 C 19.68844,55.360942 21.498957,54.571102 21.984766,52.543663 C 22.830501,49.869914 19.357453,48.319474 17.571012,50.213301 C 15.529711,52.145309 11.051286,55.490416 12.445179,56.719953 z "
       id="path2197"
       sodipodi:nodetypes="ccccc" />
  </g>
  <g
     inkscape:label="Ebene 1"
     inkscape:groupmode="layer"
     id="layer1">
    <path
       id="path16"
       d="M 26.892665,13.18375 C 27.174827,10.473076 27.351436,7.7527883 27.483404,5.0307317 C 30.207048,9.1425529 33.650483,13.53295 38.957735,14.047522 C 49.614157,15.654502 59.67741,21.781241 65.222386,31.137188 C 73.171483,44.193815 73.806749,60.413882 70.013812,74.929131 C 55.899113,74.920079 41.784769,74.951546 27.672093,74.926353 C 25.996201,74.87962 22.941729,75.009312 23.363013,72.431613 C 24.389941,66.988783 28.576092,62.611906 33.358812,60.069675 C 39.419257,56.438686 41.086097,48.954602 41.168609,42.381953 C 37.778689,45.521075 32.119378,49.143838 27.039946,49.037571 C 24.091027,53.781089 23.241362,56.757027 16.981232,58.368917 C 16.14403,57.438149 17.079115,56.312986 18.267517,53.006349 C 16.877949,54.460571 14.847887,56.383308 11.945145,57.573502 C 8.9524362,54.941998 7.2886056,51.233275 8.8456286,46.828466 C 10.130891,44.895355 9.6213996,44.47804 11.363716,42.84538 C 13.625294,40.726141 16.848973,35.597356 17.503618,31.748859 C 18.137625,27.42363 20.495894,23.685287 23.040855,20.237543 C 21.390881,16.402956 20.682789,12.266776 20.78591,8.1022969 C 22.826897,9.7868556 24.79759,11.557676 26.892665,13.18375 z "
       style="fill:#1f1a17;fill-rule:nonzero;stroke:none;fill-opacity:1"
       sodipodi:nodetypes="ccccccccccccccscccc" />
    <path
       id="path44"
       d="M 29.784073,12.300978 C 30.862159,13.769674 32.539909,15.281615 34.08457,16.294829 C 34.152866,17.649432 34.891999,20.078406 32.68355,19.979532 C 28.606357,20.381636 29.235685,14.75465 29.784073,12.300978 z "
       style="fill:url(#linearGradient2175);fill-opacity:1;fill-rule:nonzero;stroke:none"
       sodipodi:nodetypes="cccc" />
    <path
       id="path48"
       d="M 40.31432,17.639992 C 48.991251,17.599261 58.282273,26.5873 60.875492,30.234996 C 69.878732,41.066115 70.179156,56.483964 68.147755,70.091544 C 68.599105,72.575135 65.892047,72.259656 64.31495,72.7927 C 64.471357,61.592958 65.480337,49.888454 60.635077,39.399969 C 56.455583,30.68073 48.759562,23.896869 39.892667,20.185778 C 39.99808,19.549342 40.208906,18.276448 40.31432,17.639992 z "
       style="fill:url(#linearGradient2173);fill-rule:nonzero;stroke:none;fill-opacity:1.0"
       sodipodi:nodetypes="ccccccc" />
    <path
       id="path84"
       d="M 11.321199,49.212628 C 12.186551,47.838746 14.031723,47.856657 15.400471,47.335002 C 14.512148,49.145244 14.094282,51.712287 11.952792,52.431109 C 11.333398,51.553493 10.478448,50.235149 11.321199,49.212628 z "
       style="fill:url(#linearGradient2177);fill-opacity:1;fill-rule:nonzero;stroke:none" />
    <path
       id="path124"
       d="M 24.413062,32.251652 C 26.887195,30.385522 29.306026,31.5459 31.949418,32.337237 C 29.024794,33.974374 25.520765,36.919321 23.177251,35.508536 C 22.228031,34.93711 23.02595,33.297889 24.413062,32.251652 z "
       style="fill:#ffffff;fill-opacity:1;fill-rule:nonzero;stroke:none"
       sodipodi:nodetypes="ccss" />
  </g>
</svg>
