<?xml version="1.0" encoding="UTF-8" standalone="no"?>
<!-- Created with Inkscape (http://www.inkscape.org/) -->
<svg
   xmlns:dc="http://purl.org/dc/elements/1.1/"
   xmlns:cc="http://web.resource.org/cc/"
   xmlns:rdf="http://www.w3.org/1999/02/22-rdf-syntax-ns#"
   xmlns:svg="http://www.w3.org/2000/svg"
   xmlns="http://www.w3.org/2000/svg"
   xmlns:xlink="http://www.w3.org/1999/xlink"
   xmlns:sodipodi="http://sodipodi.sourceforge.net/DTD/sodipodi-0.dtd"
   xmlns:inkscape="http://www.inkscape.org/namespaces/inkscape"
   width="80"
   height="80"
   id="svg2339"
   sodipodi:version="0.32"
   inkscape:version="0.45.1"
   version="1.0"
   sodipodi:docbase="/home/fkling/2/v0.1.2reduced/PieceThemes/Neu"
   sodipodi:docname="wb.svg"
   inkscape:output_extension="org.inkscape.output.svg.inkscape">
  <defs
     id="defs2341">
    <linearGradient
       id="linearGradient2178">
      <stop
         style="stop-color:#ffffff;stop-opacity:1;"
         offset="0"
         id="stop2180" />
      <stop
         style="stop-color:#ffffff;stop-opacity:0.50196081;"
         offset="1"
         id="stop2182" />
    </linearGradient>
    <linearGradient
       inkscape:collect="always"
       xlink:href="#linearGradient2178"
       id="linearGradient2184"
       x1="39.821426"
       y1="49.634228"
       x2="80"
       y2="49.634228"
       gradientUnits="userSpaceOnUse" />
    <linearGradient
       inkscape:collect="always"
       xlink:href="#linearGradient2178"
       id="linearGradient2186"
       x1="39.821426"
       y1="49.634228"
       x2="80"
       y2="49.634228"
       gradientUnits="userSpaceOnUse" />
    <linearGradient
       inkscape:collect="always"
       xlink:href="#linearGradient2178"
       id="linearGradient2188"
       x1="39.821426"
       y1="49.634228"
       x2="80"
       y2="49.634228"
       gradientUnits="userSpaceOnUse" />
    <linearGradient
       inkscape:collect="always"
       xlink:href="#linearGradient2178"
       id="linearGradient2190"
       x1="39.821426"
       y1="49.634228"
       x2="80"
       y2="49.634228"
       gradientUnits="userSpaceOnUse" />
    <linearGradient
       inkscape:collect="always"
       xlink:href="#linearGradient2178"
       id="linearGradient2192"
       x1="39.821426"
       y1="49.634228"
       x2="80"
       y2="49.634228"
       gradientUnits="userSpaceOnUse" />
    <linearGradient
       inkscape:collect="always"
       xlink:href="#linearGradient2178"
       id="linearGradient2194"
       x1="39.821426"
       y1="49.634228"
       x2="80"
       y2="49.634228"
       gradientUnits="userSpaceOnUse" />
  </defs>
  <sodipodi:namedview
     id="base"
     pagecolor="#ffffff"
     bordercolor="#666666"
     borderopacity="1.0"
     inkscape:pageopacity="0.0"
     inkscape:pageshadow="2"
     inkscape:zoom="5.6"
     inkscape:cx="67.438352"
     inkscape:cy="36.018862"
     inkscape:document-units="px"
     inkscape:current-layer="layer1"
     width="80px"
     height="80px"
     showgrid="true"
     inkscape:window-width="944"
     inkscape:window-height="621"
     inkscape:window-x="184"
     inkscape:window-y="142" />
  <metadata
     id="metadata2344">
    <rdf:RDF>
      <cc:Work
         rdf:about="">
        <dc:format>image/svg+xml</dc:format>
        <dc:type
           rdf:resource="http://purl.org/dc/dcmitype/StillImage" />
      </cc:Work>
    </rdf:RDF>
  </metadata>
  <g
     inkscape:label="Ebene 1"
     inkscape:groupmode="layer"
     id="layer1">
    <path
       id="path18"
       d="M 31.325344,7.0906317 C 33.054956,4.0764555 38.077719,4.534403 39.221773,7.8325437 C 40.195892,10.010858 38.412961,11.961884 37.644599,13.880868 C 38.762905,14.941135 39.884288,16.000697 41.009869,17.059035 C 42.197098,15.833739 43.378701,14.602155 44.556458,13.363947 C 44.061096,11.44245 42.465845,9.3184459 43.713602,7.3653742 C 45.155325,4.4645306 49.843659,4.2217652 51.441745,7.1081042 C 52.918051,9.0827733 51.396064,11.358929 50.82323,13.349209 C 54.327885,18.043092 57.627946,23.065741 59.121988,28.799903 C 61.083469,35.948234 59.855856,43.56469 57.417122,50.436989 C 55.634861,54.71818 56.34208,59.463154 55.515344,63.94323 C 61.70326,63.164881 68.794371,61.797528 74.367067,65.427102 C 77.452217,67.491313 77.126129,71.507084 77.051074,74.744208 L 75.805362,74.744208 C 67.374285,72.290782 58.542879,72.895649 49.886528,73.112056 C 45.507567,67.459604 36.15659,67.51083 31.759398,73.111788 C 23.123189,72.904922 14.299728,72.280419 5.8951356,74.744208 L 4.3480933,74.744208 C 4.5745106,71.519308 4.207072,67.490976 7.2835294,65.43329 C 12.855225,61.803615 19.944436,63.160672 26.133779,63.943296 C 25.628439,60.473201 25.392802,56.972152 25.385813,53.467095 C 22.165674,47.625268 19.304908,40.955138 20.600995,34.147196 C 22.200564,26.395825 27.237107,20.011322 32.008738,13.926058 C 31.484838,11.743366 29.81362,9.2449691 31.325344,7.0906317 z "
       style="fill:none;stroke:#000000;stroke-width:0.10988996;stroke-linecap:butt;stroke-linejoin:miter;stroke-miterlimit:10" />
    <path
       id="path20"
       d="M 31.325344,7.0906317 C 33.054956,4.0764555 38.077719,4.534403 39.221773,7.8325437 C 40.195892,10.010858 38.412961,11.961884 37.644599,13.880868 C 38.762905,14.941135 39.884288,16.000697 41.009869,17.059035 C 42.197098,15.833739 43.378701,14.602155 44.556458,13.363947 C 44.061096,11.44245 42.465845,9.3184459 43.713602,7.3653742 C 45.155325,4.4645306 49.843659,4.2217652 51.441745,7.1081042 C 52.918051,9.0827733 51.396064,11.358929 50.82323,13.349209 C 54.327885,18.043092 57.627946,23.065741 59.121988,28.799903 C 61.083469,35.948234 59.855856,43.56469 57.417122,50.436989 C 55.634861,54.71818 56.34208,59.463154 55.515344,63.94323 C 61.70326,63.164881 68.794371,61.797528 74.367067,65.427102 C 77.452217,67.491313 77.126129,71.507084 77.051074,74.744208 L 75.805362,74.744208 C 67.374285,72.290782 58.542879,72.895649 49.886528,73.112056 C 45.507567,67.459604 36.15659,67.51083 31.759398,73.111788 C 23.123189,72.904922 14.299728,72.280419 5.8951356,74.744208 L 4.3480933,74.744208 C 4.5745106,71.519308 4.207072,67.490976 7.2835294,65.43329 C 12.855225,61.803615 19.944436,63.160672 26.133779,63.943296 C 25.628439,60.473201 25.392802,56.972152 25.385813,53.467095 C 22.165674,47.625268 19.304908,40.955138 20.600995,34.147196 C 22.200564,26.395825 27.237107,20.011322 32.008738,13.926058 C 31.484838,11.743366 29.81362,9.2449691 31.325344,7.0906317 z "
       style="fill:#000000;fill-rule:nonzero;stroke:none" />
    <path
       id="path38"
       d="M 33.336099,8.1516695 C 34.519339,7.0975741 36.851622,7.117226 36.692172,9.1667468 C 36.77816,12.248901 32.088354,10.940587 33.336099,8.1516695 z "
       style="fill:none;stroke:#ffffff;stroke-width:0.10988996;stroke-linecap:butt;stroke-linejoin:miter;stroke-miterlimit:10" />
    <path
       id="path40"
       d="M 33.336099,8.1516695 C 34.519339,7.0975741 36.851622,7.117226 36.692172,9.1667468 C 36.77816,12.248901 32.088354,10.940587 33.336099,8.1516695 z "
       style="fill:#ffffff;fill-rule:nonzero;stroke:none" />
    <path
       id="path42"
       d="M 46.003708,8.4314256 C 47.840409,5.7764155 49.965099,8.6862296 49.340001,10.882789 C 47.600102,11.059991 45.347083,10.70193 46.003708,8.4314256 z "
       style="fill:none;stroke:#ffffff;stroke-width:0.10988996;stroke-linecap:butt;stroke-linejoin:miter;stroke-miterlimit:10" />
    <path
       id="path44"
       d="M 46.003708,8.4314256 C 47.840409,5.7764155 49.965099,8.6862296 49.340001,10.882789 C 47.600102,11.059991 45.347083,10.70193 46.003708,8.4314256 z "
       style="fill:#ffffff;fill-rule:nonzero;stroke:none" />
    <path
       id="path82"
       d="M 42.518054,19.546415 C 44.269205,17.720158 46.005874,15.879347 47.734607,14.029616 C 51.574899,19.537965 55.485641,25.312889 56.715914,32.046315 C 57.626078,36.607447 56.997738,41.291302 55.83908,45.744599 C 54.737445,35.672067 49.583792,26.639396 42.518054,19.546415 z "
       style="fill:none;stroke:#ffffff;stroke-width:0.10988996;stroke-linecap:butt;stroke-linejoin:miter;stroke-miterlimit:10" />
    <path
       id="path84"
       d="M 42.518054,19.546415 C 44.269205,17.720158 46.005874,15.879347 47.734607,14.029616 C 51.574899,19.537965 55.485641,25.312889 56.715914,32.046315 C 57.626078,36.607447 56.997738,41.291302 55.83908,45.744599 C 54.737445,35.672067 49.583792,26.639396 42.518054,19.546415 z "
       style="fill:url(#linearGradient2184);fill-rule:nonzero;stroke:none;fill-opacity:1.0" />
    <path
       id="path86"
       d="M 34.874855,14.939307 C 41.952153,21.87544 48.46887,29.784177 51.992789,39.155007 C 53.346611,42.50917 53.248622,46.194296 52.289129,49.634226 C 44.387019,46.661416 35.451766,46.767591 27.508975,49.535882 C 24.247034,45.590602 22.04018,40.391135 23.42154,35.225992 C 25.365286,27.647094 29.153071,20.358618 34.874855,14.939307 z "
       style="fill:none;stroke:#ffffff;stroke-width:0.10988996;stroke-linecap:butt;stroke-linejoin:miter;stroke-miterlimit:10" />
    <path
       id="path88"
       d="M 34.874855,14.939307 C 41.952153,21.87544 48.46887,29.784177 51.992789,39.155007 C 53.346611,42.50917 53.248622,46.194296 52.289129,49.634226 C 44.387019,46.661416 35.451766,46.767591 27.508975,49.535882 C 24.247034,45.590602 22.04018,40.391135 23.42154,35.225992 C 25.365286,27.647094 29.153071,20.358618 34.874855,14.939307 z "
       style="fill:url(#linearGradient2194);fill-rule:nonzero;stroke:none;fill-opacity:1.0" />
    <path
       id="path142"
       d="M 28.44494,52.718712 C 33.951988,49.83519 40.482958,50.39683 46.482489,50.748452 C 48.8462,51.239432 52.25548,51.088085 53.314809,53.75002 C 52.847623,54.344156 51.913283,55.532428 51.446097,56.126564 C 52.443426,57.569558 52.96448,59.235514 53.428358,60.911748 C 45.106996,59.416858 36.540402,59.418619 28.220018,60.911714 C 28.67283,59.251812 29.192775,57.601115 30.183389,56.173314 C 29.224786,55.195058 28.645303,54.043525 28.44494,52.718712 z "
       style="fill:none;stroke:#ffffff;stroke-width:0.10988996;stroke-linecap:butt;stroke-linejoin:miter;stroke-miterlimit:10" />
    <path
       id="path144"
       d="M 28.44494,52.718712 C 33.951988,49.83519 40.482958,50.39683 46.482489,50.748452 C 48.8462,51.239432 52.25548,51.088085 53.314809,53.75002 C 52.847623,54.344156 51.913283,55.532428 51.446097,56.126564 C 52.443426,57.569558 52.96448,59.235514 53.428358,60.911748 C 45.106996,59.416858 36.540402,59.418619 28.220018,60.911714 C 28.67283,59.251812 29.192775,57.601115 30.183389,56.173314 C 29.224786,55.195058 28.645303,54.043525 28.44494,52.718712 z "
       style="fill:url(#linearGradient2192);fill-rule:nonzero;stroke:none;fill-opacity:1.0" />
    <path
       id="path154"
       d="M 38.957685,54.261172 C 40.695672,53.599578 43.307976,53.664218 43.795393,55.868556 C 42.025286,56.998611 39.820772,56.967121 37.974928,56.043831 C 38.220609,55.598158 38.711993,54.706845 38.957685,54.261172 z "
       style="fill:none;stroke:#000000;stroke-width:0.10988996;stroke-linecap:butt;stroke-linejoin:miter;stroke-miterlimit:10" />
    <path
       id="path156"
       d="M 38.957685,54.261172 C 40.695672,53.599578 43.307976,53.664218 43.795393,55.868556 C 42.025286,56.998611 39.820772,56.967121 37.974928,56.043831 C 38.220609,55.598158 38.711993,54.706845 38.957685,54.261172 z "
       style="fill:#000000;fill-rule:nonzero;stroke:none" />
    <path
       id="path170"
       d="M 29.542467,63.835177 C 36.725831,61.459537 44.918589,61.457525 52.101613,63.839922 C 49.032859,66.645842 44.659073,66.082911 40.834078,66.253088 C 36.998841,66.084152 32.610968,66.652331 29.542467,63.835177 z "
       style="fill:none;stroke:#ffffff;stroke-width:0.10988996;stroke-linecap:butt;stroke-linejoin:miter;stroke-miterlimit:10" />
    <path
       id="path172"
       d="M 29.542467,63.835177 C 36.725831,61.459537 44.918589,61.457525 52.101613,63.839922 C 49.032859,66.645842 44.659073,66.082911 40.834078,66.253088 C 36.998841,66.084152 32.610968,66.652331 29.542467,63.835177 z "
       style="fill:url(#linearGradient2190);fill-rule:nonzero;stroke:none;fill-opacity:1.0" />
    <path
       id="path174"
       d="M 6.3095527,70.968819 C 7.1829361,68.261964 9.3476252,66.284259 12.23671,66.116916 C 19.897413,65.190726 27.672128,66.528417 35.103888,68.380027 C 25.907329,71.636098 15.892605,70.520983 6.3095527,70.968819 z "
       style="fill:none;stroke:#ffffff;stroke-width:0.10988996;stroke-linecap:butt;stroke-linejoin:miter;stroke-miterlimit:10" />
    <path
       id="path176"
       d="M 6.3095527,70.968819 C 7.1829361,68.261964 9.3476252,66.284259 12.23671,66.116916 C 19.897413,65.190726 27.672128,66.528417 35.103888,68.380027 C 25.907329,71.636098 15.892605,70.520983 6.3095527,70.968819 z "
       style="fill:url(#linearGradient2188);fill-rule:nonzero;stroke:none;fill-opacity:1.0" />
    <path
       id="path178"
       d="M 46.551312,68.360978 C 54.298214,66.52684 62.437621,64.96052 70.38327,66.315666 C 72.969058,66.589217 74.431968,68.741558 75.345681,70.967176 C 65.765682,70.506395 55.731641,71.665726 46.551312,68.360978 z "
       style="fill:none;stroke:#ffffff;stroke-width:0.10988996;stroke-linecap:butt;stroke-linejoin:miter;stroke-miterlimit:10" />
    <path
       id="path180"
       d="M 46.551312,68.360978 C 54.298214,66.52684 62.437621,64.96052 70.38327,66.315666 C 72.969058,66.589217 74.431968,68.741558 75.345681,70.967176 C 65.765682,70.506395 55.731641,71.665726 46.551312,68.360978 z "
       style="fill:url(#linearGradient2186);fill-rule:nonzero;stroke:none;fill-opacity:1.0" />
    <path
       id="path182"
       d="M 31.759398,73.111788 C 36.15659,67.51083 45.507567,67.459604 49.886528,73.112056 C 58.542879,72.895649 67.374285,72.290782 75.805362,74.744208 L 5.8951356,74.744208 C 14.299728,72.280419 23.123189,72.904922 31.759398,73.111788 z "
       style="fill:none;stroke:#ffffff;stroke-width:0.10988996;stroke-linecap:butt;stroke-linejoin:miter;stroke-miterlimit:10" />
  </g>
</svg>
