<?xml version="1.0" encoding="UTF-8" standalone="no"?>
<!-- Created with Inkscape (http://www.inkscape.org/) -->
<svg
   xmlns:dc="http://purl.org/dc/elements/1.1/"
   xmlns:cc="http://web.resource.org/cc/"
   xmlns:rdf="http://www.w3.org/1999/02/22-rdf-syntax-ns#"
   xmlns:svg="http://www.w3.org/2000/svg"
   xmlns="http://www.w3.org/2000/svg"
   xmlns:xlink="http://www.w3.org/1999/xlink"
   xmlns:sodipodi="http://sodipodi.sourceforge.net/DTD/sodipodi-0.dtd"
   xmlns:inkscape="http://www.inkscape.org/namespaces/inkscape"
   width="80"
   height="80"
   id="svg2339"
   sodipodi:version="0.32"
   inkscape:version="0.45.1"
   version="1.0"
   sodipodi:docbase="/home/fkling/2/v0.1.2reduced/PieceThemes/Neu"
   sodipodi:docname="wk.svg"
   inkscape:output_extension="org.inkscape.output.svg.inkscape">
  <defs
     id="defs2341">
    <linearGradient
       id="linearGradient2179">
      <stop
         style="stop-color:#ffffff;stop-opacity:1;"
         offset="0"
         id="stop2181" />
      <stop
         style="stop-color:#ffffff;stop-opacity:0.50196081;"
         offset="1"
         id="stop2183" />
    </linearGradient>
    <linearGradient
       inkscape:collect="always"
       xlink:href="#linearGradient2179"
       id="linearGradient2185"
       x1="39.82143"
       y1="50"
       x2="80.178574"
       y2="50.17857"
       gradientUnits="userSpaceOnUse" />
    <linearGradient
       inkscape:collect="always"
       xlink:href="#linearGradient2179"
       id="linearGradient2187"
       x1="39.82143"
       y1="50"
       x2="80.178574"
       y2="50.17857"
       gradientUnits="userSpaceOnUse" />
    <linearGradient
       inkscape:collect="always"
       xlink:href="#linearGradient2179"
       id="linearGradient2189"
       x1="39.82143"
       y1="50"
       x2="80.178574"
       y2="50.17857"
       gradientUnits="userSpaceOnUse" />
    <linearGradient
       inkscape:collect="always"
       xlink:href="#linearGradient2179"
       id="linearGradient2191"
       x1="39.82143"
       y1="50"
       x2="80.178574"
       y2="50.17857"
       gradientUnits="userSpaceOnUse" />
    <linearGradient
       inkscape:collect="always"
       xlink:href="#linearGradient2179"
       id="linearGradient2193"
       x1="39.82143"
       y1="50"
       x2="80.178574"
       y2="50.17857"
       gradientUnits="userSpaceOnUse" />
    <linearGradient
       inkscape:collect="always"
       xlink:href="#linearGradient2179"
       id="linearGradient2195"
       x1="39.82143"
       y1="50"
       x2="80.178574"
       y2="50.17857"
       gradientUnits="userSpaceOnUse" />
    <linearGradient
       inkscape:collect="always"
       xlink:href="#linearGradient2179"
       id="linearGradient2197"
       x1="39.82143"
       y1="50"
       x2="80.178574"
       y2="50.17857"
       gradientUnits="userSpaceOnUse" />
    <linearGradient
       inkscape:collect="always"
       xlink:href="#linearGradient2179"
       id="linearGradient2199"
       x1="39.82143"
       y1="50"
       x2="80.178574"
       y2="50.17857"
       gradientUnits="userSpaceOnUse" />
  </defs>
  <sodipodi:namedview
     id="base"
     pagecolor="#ffffff"
     bordercolor="#666666"
     borderopacity="1.0"
     inkscape:pageopacity="0.0"
     inkscape:pageshadow="2"
     inkscape:zoom="5.6"
     inkscape:cx="67.438352"
     inkscape:cy="39.161068"
     inkscape:document-units="px"
     inkscape:current-layer="layer1"
     width="80px"
     height="80px"
     showgrid="true"
     inkscape:window-width="944"
     inkscape:window-height="621"
     inkscape:window-x="173"
     inkscape:window-y="235" />
  <metadata
     id="metadata2344">
    <rdf:RDF>
      <cc:Work
         rdf:about="">
        <dc:format>image/svg+xml</dc:format>
        <dc:type
           rdf:resource="http://purl.org/dc/dcmitype/StillImage" />
      </cc:Work>
    </rdf:RDF>
  </metadata>
  <g
     inkscape:label="Ebene 1"
     inkscape:groupmode="layer"
     id="layer1">
    <path
       id="path22"
       d="M 29.332178,5.1449014 C 36.427488,5.1437251 43.524045,5.14357 50.622438,5.1449876 C 50.614888,10.436535 50.655417,15.728185 50.582704,21.019523 C 54.566602,18.5376 59.020664,16.261439 63.870418,16.657345 C 69.995201,16.750997 76.328589,21.377269 76.698888,27.799795 C 77.419942,37.13741 71.314612,45.411649 64.388966,51.008872 C 63.970102,56.833276 63.922227,62.691082 63.276834,68.494606 C 61.904322,71.49226 58.351736,72.71812 55.394514,73.59571 C 47.657417,75.329803 39.63636,75.005141 31.770377,74.676669 C 26.554155,74.195979 20.486395,73.522403 16.940361,69.185378 C 15.754484,63.234697 16.119818,57.012209 15.546243,50.956252 C 8.7276704,45.711792 3.2413314,37.758904 3.045934,28.933992 C 2.9615099,22.090148 9.4931748,16.729981 16.046424,16.650857 C 20.903356,16.277924 25.372903,18.53433 29.374907,21.02018 C 29.292387,15.728652 29.33635,10.436691 29.332178,5.1449014 z "
       style="fill:none;stroke:#000000;stroke-width:0.11336606;stroke-linecap:butt;stroke-linejoin:miter;stroke-miterlimit:10" />
    <path
       style="fill:#000000;fill-rule:nonzero;stroke:none"
       d="M 29.34375 5.15625 C 29.347922 10.44804 29.29248 15.739722 29.375 21.03125 C 25.372996 18.5454 20.888181 16.283316 16.03125 16.65625 C 9.4780008 16.735374 2.9468259 22.093656 3.03125 28.9375 C 3.2266474 37.762412 8.7126777 45.724289 15.53125 50.96875 C 16.104825 57.024707 15.751623 63.236818 16.9375 69.1875 C 20.483534 73.524525 26.565029 74.206813 31.78125 74.6875 C 39.647233 75.015972 47.669155 75.327842 55.40625 73.59375 C 58.363472 72.71616 61.908739 71.497654 63.28125 68.5 C 63.926643 62.696476 63.956133 56.824403 64.375 51 C 71.300646 45.402777 77.408551 37.150115 76.6875 27.8125 C 76.317201 21.389974 69.999782 16.749902 63.875 16.65625 C 59.025246 16.260344 54.577649 18.549326 50.59375 21.03125 C 50.666463 15.739912 50.617451 10.447797 50.625 5.15625 C 43.526607 5.1548324 36.43906 5.1550738 29.34375 5.15625 z M 33.625 26 C 37.85436 26.026397 42.077724 26.028576 46.3125 26 C 43.78684 29.368927 41.710269 33.048221 39.96875 36.875 C 38.226958 33.044692 36.145639 29.370865 33.625 26 z "
       id="path24" />
    <path
       id="path54"
       d="M 33.700865,8.3252611 C 37.881918,8.3215934 42.065885,8.3210048 46.253197,8.3259703 C 44.159337,10.317522 42.066305,12.302622 39.974157,14.289364 C 37.880173,12.302172 35.784964,10.316207 33.700865,8.3252611 z "
       style="fill:none;stroke:#ffffff;stroke-width:0.11336606;stroke-linecap:butt;stroke-linejoin:miter;stroke-miterlimit:10" />
    <path
       id="path56"
       d="M 33.700865,8.3252611 C 37.881918,8.3215934 42.065885,8.3210048 46.253197,8.3259703 C 44.159337,10.317522 42.066305,12.302622 39.974157,14.289364 C 37.880173,12.302172 35.784964,10.316207 33.700865,8.3252611 z "
       style="fill:url(#linearGradient2193);fill-rule:nonzero;stroke:none;fill-opacity:1.0" />
    <path
       id="path70"
       d="M 32.21942,9.9213916 C 34.205843,11.931903 36.192458,13.942864 38.18286,15.955293 C 36.193399,17.980387 34.204788,20.003543 32.219442,22.027736 C 32.217503,17.992115 32.215531,13.95684 32.21942,9.9213916 z "
       style="fill:none;stroke:#ffffff;stroke-width:0.11336606;stroke-linecap:butt;stroke-linejoin:miter;stroke-miterlimit:10" />
    <path
       id="path72"
       d="M 32.21942,9.9213916 C 34.205843,11.931903 36.192458,13.942864 38.18286,15.955293 C 36.193399,17.980387 34.204788,20.003543 32.219442,22.027736 C 32.217503,17.992115 32.215531,13.95684 32.21942,9.9213916 z "
       style="fill:url(#linearGradient2195);fill-rule:nonzero;stroke:none;fill-opacity:1.0" />
    <path
       id="path74"
       d="M 41.766384,15.953927 C 43.752398,13.940805 45.742789,11.928443 47.735072,9.9158726 C 47.732714,13.954955 47.731921,17.993863 47.735266,22.033116 C 45.742812,20.006656 43.752205,17.98139 41.766384,15.953927 z "
       style="fill:none;stroke:#ffffff;stroke-width:0.11336606;stroke-linecap:butt;stroke-linejoin:miter;stroke-miterlimit:10" />
    <path
       id="path76"
       d="M 41.766384,15.953927 C 43.752398,13.940805 45.742789,11.928443 47.735072,9.9158726 C 47.732714,13.954955 47.731921,17.993863 47.735266,22.033116 C 45.742812,20.006656 43.752205,17.98139 41.766384,15.953927 z "
       style="fill:url(#linearGradient2191);fill-rule:nonzero;stroke:none;fill-opacity:1.0" />
    <path
       id="path94"
       d="M 33.865132,23.456696 C 35.893489,21.471389 37.933987,19.492344 39.974644,17.513609 C 42.01249,19.493797 44.049916,21.473188 46.090641,23.45718 C 42.012161,23.462198 37.93732,23.462525 33.865132,23.456696 z "
       style="fill:none;stroke:#ffffff;stroke-width:0.11336606;stroke-linecap:butt;stroke-linejoin:miter;stroke-miterlimit:10" />
    <path
       id="path96"
       d="M 33.865132,23.456696 C 35.893489,21.471389 37.933987,19.492344 39.974644,17.513609 C 42.01249,19.493797 44.049916,21.473188 46.090641,23.45718 C 42.012161,23.462198 37.93732,23.462525 33.865132,23.456696 z "
       style="fill:url(#linearGradient2197);fill-rule:nonzero;stroke:none;fill-opacity:1.0" />
    <path
       id="path98"
       d="M 6.2737601,31.287666 C 5.4771141,26.696579 8.4946692,21.779559 12.967845,20.458609 C 18.391696,18.868464 24.411117,20.747819 28.462605,24.561019 C 33.852537,29.496393 36.736128,36.427696 38.930124,43.248013 C 31.35031,43.545475 23.514335,44.229051 16.758851,47.996773 C 11.794234,43.599099 7.0915375,38.123015 6.2737601,31.287666 z "
       style="fill:none;stroke:#ffffff;stroke-width:0.11336606;stroke-linecap:butt;stroke-linejoin:miter;stroke-miterlimit:10" />
    <path
       id="path100"
       d="M 6.2737601,31.287666 C 5.4771141,26.696579 8.4946692,21.779559 12.967845,20.458609 C 18.391696,18.868464 24.411117,20.747819 28.462605,24.561019 C 33.852537,29.496393 36.736128,36.427696 38.930124,43.248013 C 31.35031,43.545475 23.514335,44.229051 16.758851,47.996773 C 11.794234,43.599099 7.0915375,38.123015 6.2737601,31.287666 z "
       style="fill:url(#linearGradient2199);fill-rule:nonzero;stroke:none;fill-opacity:1.0" />
    <path
       id="path102"
       d="M 51.504302,24.545261 C 55.496725,20.797534 61.383315,18.923403 66.748227,20.397286 C 71.304523,21.642262 74.417555,26.580836 73.691808,31.234007 C 72.996421,38.124002 68.207407,43.601988 63.21938,47.988419 C 56.404323,44.35846 48.600679,43.576681 41.017226,43.244796 C 43.213558,36.419445 46.097421,29.476604 51.504302,24.545261 z "
       style="fill:none;stroke:#ffffff;stroke-width:0.11336606;stroke-linecap:butt;stroke-linejoin:miter;stroke-miterlimit:10" />
    <path
       id="path104"
       d="M 51.504302,24.545261 C 55.496725,20.797534 61.383315,18.923403 66.748227,20.397286 C 71.304523,21.642262 74.417555,26.580836 73.691808,31.234007 C 72.996421,38.124002 68.207407,43.601988 63.21938,47.988419 C 56.404323,44.35846 48.600679,43.576681 41.017226,43.244796 C 43.213558,36.419445 46.097421,29.476604 51.504302,24.545261 z "
       style="fill:url(#linearGradient2189);fill-rule:nonzero;stroke:none;fill-opacity:1.0" />
    <path
       id="path138"
       d="M 18.76492,50.676002 C 32.08991,44.921744 47.855989,44.922298 61.183348,50.673372 C 61.061174,52.442364 60.943737,54.211703 60.832696,55.981975 C 59.281009,55.98419 57.735558,55.987389 56.196375,55.99161 C 57.478885,57.490404 58.774966,58.988591 60.06353,60.490999 C 60.100022,61.411631 60.173041,63.252913 60.209545,64.173561 C 54.161953,60.464049 46.877266,60.169527 39.986321,60.122287 C 33.086386,60.168023 25.800531,60.461783 19.7465,64.166695 C 19.782834,63.246876 19.855491,61.407255 19.891836,60.487453 C 21.174584,58.986238 22.461096,57.489382 23.754285,55.991298 C 22.203902,55.987165 20.659324,55.983946 19.120538,55.981682 C 18.996198,54.212378 18.876665,52.443991 18.76492,50.676002 z "
       style="fill:none;stroke:#ffffff;stroke-width:0.11336606;stroke-linecap:butt;stroke-linejoin:miter;stroke-miterlimit:10" />
    <path
       id="path140"
       d="M 18.76492,50.676002 C 32.08991,44.921744 47.855989,44.922298 61.183348,50.673372 C 61.061174,52.442364 60.943737,54.211703 60.832696,55.981975 C 59.281009,55.98419 57.735558,55.987389 56.196375,55.99161 C 57.478885,57.490404 58.774966,58.988591 60.06353,60.490999 C 60.100022,61.411631 60.173041,63.252913 60.209545,64.173561 C 54.161953,60.464049 46.877266,60.169527 39.986321,60.122287 C 33.086386,60.168023 25.800531,60.461783 19.7465,64.166695 C 19.782834,63.246876 19.855491,61.407255 19.891836,60.487453 C 21.174584,58.986238 22.461096,57.489382 23.754285,55.991298 C 22.203902,55.987165 20.659324,55.983946 19.120538,55.981682 C 18.996198,54.212378 18.876665,52.443991 18.76492,50.676002 z "
       style="fill:url(#linearGradient2187);fill-rule:nonzero;stroke:none;fill-opacity:1.0" />
    <path
       id="path150"
       d="M 36.839846,51.906931 C 39.556301,51.352642 43.713128,50.71738 45.122325,53.825674 C 42.715767,56.304935 38.710262,55.855231 35.729641,54.822557 C 34.725513,53.223434 35.095573,52.251565 36.839846,51.906931 z "
       style="fill:none;stroke:#000000;stroke-width:0.11336606;stroke-linecap:butt;stroke-linejoin:miter;stroke-miterlimit:10" />
    <path
       id="path152"
       d="M 36.839846,51.906931 C 39.556301,51.352642 43.713128,50.71738 45.122325,53.825674 C 42.715767,56.304935 38.710262,55.855231 35.729641,54.822557 C 34.725513,53.223434 35.095573,52.251565 36.839846,51.906931 z "
       style="fill:#000000;fill-rule:nonzero;stroke:none" />
    <path
       id="path166"
       d="M 29.231453,63.855222 C 37.898855,62.68091 46.82472,62.774061 55.364427,64.777325 C 57.129911,65.356885 59.811041,66.042314 59.232341,68.477445 C 56.671595,70.512883 53.32852,70.965942 50.199764,71.430696 C 42.584977,72.506233 34.813689,72.35899 27.24274,71.036208 C 24.934097,70.615549 22.583486,69.977639 20.72163,68.488862 C 20.594149,64.398162 26.32791,64.644768 29.231453,63.855222 z "
       style="fill:none;stroke:#ffffff;stroke-width:0.11336606;stroke-linecap:butt;stroke-linejoin:miter;stroke-miterlimit:10" />
    <path
       id="path168"
       d="M 29.231453,63.855222 C 37.898855,62.68091 46.82472,62.774061 55.364427,64.777325 C 57.129911,65.356885 59.811041,66.042314 59.232341,68.477445 C 56.671595,70.512883 53.32852,70.965942 50.199764,71.430696 C 42.584977,72.506233 34.813689,72.35899 27.24274,71.036208 C 24.934097,70.615549 22.583486,69.977639 20.72163,68.488862 C 20.594149,64.398162 26.32791,64.644768 29.231453,63.855222 z "
       style="fill:url(#linearGradient2185);fill-rule:nonzero;stroke:none;fill-opacity:1.0" />
  </g>
</svg>
