<?xml version="1.0" encoding="UTF-8" standalone="no"?>
<!-- Created with Inkscape (http://www.inkscape.org/) -->
<svg
   xmlns:dc="http://purl.org/dc/elements/1.1/"
   xmlns:cc="http://web.resource.org/cc/"
   xmlns:rdf="http://www.w3.org/1999/02/22-rdf-syntax-ns#"
   xmlns:svg="http://www.w3.org/2000/svg"
   xmlns="http://www.w3.org/2000/svg"
   xmlns:xlink="http://www.w3.org/1999/xlink"
   xmlns:sodipodi="http://sodipodi.sourceforge.net/DTD/sodipodi-0.dtd"
   xmlns:inkscape="http://www.inkscape.org/namespaces/inkscape"
   width="80"
   height="80"
   id="svg2339"
   sodipodi:version="0.32"
   inkscape:version="0.45.1"
   version="1.0"
   sodipodi:docbase="/home/fkling/2/v0.1.2reduced/PieceThemes/Neu"
   sodipodi:docname="wn.svg"
   inkscape:output_extension="org.inkscape.output.svg.inkscape">
  <defs
     id="defs2341">
    <linearGradient
       id="linearGradient2169">
      <stop
         style="stop-color:#ffffff;stop-opacity:1;"
         offset="0"
         id="stop2171" />
      <stop
         style="stop-color:#ffffff;stop-opacity:0.50373137;"
         offset="1"
         id="stop2173" />
    </linearGradient>
    <linearGradient
       inkscape:collect="always"
       xlink:href="#linearGradient2169"
       id="linearGradient2175"
       x1="40.260712"
       y1="49.792595"
       x2="80.180855"
       y2="49.844898"
       gradientUnits="userSpaceOnUse" />
  </defs>
  <sodipodi:namedview
     id="base"
     pagecolor="#ffffff"
     bordercolor="#666666"
     borderopacity="1.0"
     inkscape:pageopacity="0.0"
     inkscape:pageshadow="2"
     inkscape:zoom="3.959798"
     inkscape:cx="31.695445"
     inkscape:cy="37.946253"
     inkscape:document-units="px"
     inkscape:current-layer="layer1"
     width="80px"
     height="80px"
     showgrid="true"
     inkscape:window-width="944"
     inkscape:window-height="621"
     inkscape:window-x="273"
     inkscape:window-y="261" />
  <metadata
     id="metadata2344">
    <rdf:RDF>
      <cc:Work
         rdf:about="">
        <dc:format>image/svg+xml</dc:format>
        <dc:type
           rdf:resource="http://purl.org/dc/dcmitype/StillImage" />
      </cc:Work>
    </rdf:RDF>
  </metadata>
  <g
     inkscape:label="Ebene 1"
     inkscape:groupmode="layer"
     id="layer1">
    <path
       id="path14"
       d="M 25.760317,14.549105 C 26.221074,11.436265 27.070218,8.4000951 28.32127,5.5120257 C 30.343263,7.9683943 32.358818,10.433507 34.553694,12.740667 C 45.520477,12.352179 56.289561,17.648815 62.648708,26.581446 C 72.476999,40.300527 76.393955,58.543939 71.835755,74.923241 C 56.647996,74.929949 41.460599,74.903113 26.273248,74.9375 C 23.145627,72.034514 22.006204,67.005221 25.011081,63.589458 C 29.660058,58.707892 35.821493,55.156321 39.069435,49.022276 C 35.534897,49.403215 31.980652,49.664355 28.429013,49.386283 C 26.248363,52.869775 23.520379,57.49479 18.775933,57.159736 C 15.599198,56.760351 12.090772,57.768271 9.2539512,55.859436 C 6.4626796,54.160726 6.2932269,50.329284 6.9820665,47.474742 C 8.6706877,41.220072 15.635164,38.149988 17.101267,31.783724 C 17.65455,28.754196 19.950648,26.635285 22.043211,24.580403 C 21.394054,19.947467 20.850134,15.29165 20.818237,10.607415 C 22.477973,11.904537 24.129503,13.213866 25.760317,14.549105 z "
       style="fill:none;stroke:#000000;stroke-width:0.11019276;stroke-linecap:butt;stroke-linejoin:miter;stroke-miterlimit:10" />
    <path
       id="path16"
       d="M 25.760317,14.549105 C 26.221074,11.436265 27.070218,8.4000951 28.32127,5.5120257 C 30.343263,7.9683943 32.358818,10.433507 34.553694,12.740667 C 45.520477,12.352179 56.289561,17.648815 62.648708,26.581446 C 72.476999,40.300527 76.393955,58.543939 71.835755,74.923241 C 56.647996,74.929949 41.460599,74.903113 26.273248,74.9375 C 23.145627,72.034514 22.006204,67.005221 25.011081,63.589458 C 29.660058,58.707892 35.821493,55.156321 39.069435,49.022276 C 35.534897,49.403215 31.980652,49.664355 28.429013,49.386283 C 26.248363,52.869775 23.520379,57.49479 18.775933,57.159736 C 15.599198,56.760351 12.090772,57.768271 9.2539512,55.859436 C 6.4626796,54.160726 6.2932269,50.329284 6.9820665,47.474742 C 8.6706877,41.220072 15.635164,38.149988 17.101267,31.783724 C 17.65455,28.754196 19.950648,26.635285 22.043211,24.580403 C 21.394054,19.947467 20.850134,15.29165 20.818237,10.607415 C 22.477973,11.904537 24.129503,13.213866 25.760317,14.549105 z "
       style="fill:#000000;fill-rule:nonzero;stroke:none" />
    <path
       id="path68"
       d="M 28.769617,12.283459 C 31.018955,14.00924 33.222456,15.797551 35.578546,17.381236 C 37.475629,16.989316 39.371752,16.594791 41.271155,16.200669 C 41.731138,17.096271 42.192381,17.992041 42.654886,18.887962 L 46.718228,17.908555 L 48.165062,21.002501 C 48.468336,21.65103 50.136365,20.6222 50.793477,20.495422 C 51.154116,21.657494 51.516198,22.8198 51.879713,23.98231 C 53.424373,24.192704 54.972206,24.403351 56.520514,24.613627 C 56.792789,26.105928 57.067279,27.598413 57.342453,29.091419 C 58.942529,29.344555 60.544214,29.597742 62.147464,29.850996 C 61.760103,31.392443 61.374373,32.934244 60.990253,34.476398 C 62.75035,35.603395 64.511859,36.729721 66.275328,37.855658 C 65.588254,39.577151 64.899826,41.297938 64.21479,43.019868 C 66.059924,44.25999 67.907317,45.498011 69.756197,46.736604 C 68.792814,48.389611 67.827922,50.041444 66.867009,51.695295 C 68.109036,52.993577 69.353431,54.291052 70.600362,55.588359 C 69.462467,57.442902 68.325498,59.297596 67.190832,61.153669 C 68.244319,62.276563 69.300803,63.400215 70.358775,64.523832 C 69.67007,67.006263 68.983283,69.489501 68.296209,71.972891 C 54.231226,71.444139 40.154482,71.657778 26.083651,71.622468 C 25.790516,69.791028 24.844252,67.528189 26.452468,66.024926 C 31.036323,61.845686 36.4154,58.298671 39.69544,52.885983 C 41.427459,50.095754 42.055464,46.835134 42.872158,43.702972 C 37.336408,47.547377 31.435242,46.963755 25.236327,45.805213 C 27.153982,50.512859 22.661539,53.368177 18.332092,54.397905 C 18.349966,53.358258 18.385678,51.278944 18.403551,50.239279 C 16.668775,51.550845 14.986998,52.929834 13.316653,54.321082 C 9.8942478,53.062549 9.0821951,48.989472 10.775137,45.995118 C 12.997454,42.778889 16.403584,40.466011 18.190365,36.931371 C 19.295807,34.065478 19.781247,30.84802 21.901469,28.482229 C 23.975267,26.124575 25.610386,23.44705 27.108184,20.69825 C 28.722655,21.710055 30.337463,22.724313 32.010514,23.641135 C 31.020502,19.723791 27.290281,16.645182 28.769617,12.283459 z "
       style="fill:url(#linearGradient2175);fill-rule:nonzero;stroke:none;fill-opacity:1.0"
       sodipodi:nodetypes="ccccczcccccccccccccccccccccccccccc" />
    <path
       id="path78"
       d="M 23.510542,16.652261 C 25.754315,15.587023 26.750011,17.908895 26.622745,19.767575 C 24.536335,21.927242 22.216026,18.731391 23.510542,16.652261 z "
       style="fill:none;stroke:#ffffff;stroke-width:0.11019276;stroke-linecap:butt;stroke-linejoin:miter;stroke-miterlimit:10" />
    <path
       id="path80"
       d="M 23.510542,16.652261 C 25.754315,15.587023 26.750011,17.908895 26.622745,19.767575 C 24.536335,21.927242 22.216026,18.731391 23.510542,16.652261 z "
       style="fill:#ffffff;fill-rule:nonzero;stroke:none"
       sodipodi:nodetypes="ccc" />
    <path
       id="path124"
       d="M 26.502731,31.682247 C 28.569106,29.819018 31.838704,31.99489 34.305401,32.73333 C 31.576271,34.261035 27.658407,36.891301 25.471543,35.574818 C 24.585772,35.041589 25.555106,32.536711 26.502731,31.682247 z "
       style="fill:#000000;fill-rule:nonzero;stroke:none"
       sodipodi:nodetypes="ccss" />
    <path
       id="path130"
       d="M 13.66425,47.413453 C 14.592959,46.530849 17.372007,47.20237 16.03517,48.735982 C 14.797234,50.84672 10.683215,49.033558 13.66425,47.413453 z "
       style="fill:none;stroke:#000000;stroke-width:0.11019276;stroke-linecap:butt;stroke-linejoin:miter;stroke-miterlimit:10" />
    <path
       id="path132"
       d="M 13.66425,47.413453 C 14.592959,46.530849 17.372007,47.20237 16.03517,48.735982 C 14.797234,50.84672 10.683215,49.033558 13.66425,47.413453 z "
       style="fill:#000000;fill-rule:nonzero;stroke:none" />
  </g>
</svg>
