<?xml version="1.0" encoding="UTF-8" standalone="no"?>
<!-- Created with Inkscape (http://www.inkscape.org/) -->
<svg
   xmlns:dc="http://purl.org/dc/elements/1.1/"
   xmlns:cc="http://web.resource.org/cc/"
   xmlns:rdf="http://www.w3.org/1999/02/22-rdf-syntax-ns#"
   xmlns:svg="http://www.w3.org/2000/svg"
   xmlns="http://www.w3.org/2000/svg"
   xmlns:xlink="http://www.w3.org/1999/xlink"
   xmlns:sodipodi="http://sodipodi.sourceforge.net/DTD/sodipodi-0.dtd"
   xmlns:inkscape="http://www.inkscape.org/namespaces/inkscape"
   width="80"
   height="80"
   id="svg2427"
   sodipodi:version="0.32"
   inkscape:version="0.45.1"
   version="1.0"
   sodipodi:docbase="/home/fkling/2/v0.1.2reduced/PieceThemes/Neu"
   sodipodi:docname="wp.svg"
   inkscape:output_extension="org.inkscape.output.svg.inkscape">
  <defs
     id="defs2429">
    <linearGradient
       id="linearGradient2165">
      <stop
         style="stop-color:#ffffff;stop-opacity:1;"
         offset="0"
         id="stop2167" />
      <stop
         style="stop-color:#ffffff;stop-opacity:0.50196081;"
         offset="1"
         id="stop2169" />
    </linearGradient>
    <linearGradient
       inkscape:collect="always"
       xlink:href="#linearGradient2165"
       id="linearGradient2171"
       x1="40.128311"
       y1="49.771183"
       x2="80.256622"
       y2="49.771183"
       gradientUnits="userSpaceOnUse"
       gradientTransform="matrix(1.0471365,0,0,1.0471365,-1.8880947,-0.4711291)" />
    <linearGradient
       inkscape:collect="always"
       xlink:href="#linearGradient2165"
       id="linearGradient2173"
       x1="40.128311"
       y1="49.771183"
       x2="80.256622"
       y2="49.771183"
       gradientUnits="userSpaceOnUse"
       gradientTransform="matrix(1.0471365,0,0,1.0471365,-1.8880947,-0.4711291)" />
  </defs>
  <sodipodi:namedview
     id="base"
     pagecolor="#ffffff"
     bordercolor="#666666"
     borderopacity="1.0"
     inkscape:pageopacity="0.0"
     inkscape:pageshadow="2"
     inkscape:zoom="5.6568542"
     inkscape:cx="32"
     inkscape:cy="24.757101"
     inkscape:current-layer="layer1"
     showgrid="true"
     inkscape:document-units="px"
     inkscape:grid-bbox="true"
     width="80px"
     height="80px"
     units="px"
     inkscape:window-width="944"
     inkscape:window-height="621"
     inkscape:window-x="305"
     inkscape:window-y="205" />
  <metadata
     id="metadata2432">
    <rdf:RDF>
      <cc:Work
         rdf:about="">
        <dc:format>image/svg+xml</dc:format>
        <dc:type
           rdf:resource="http://purl.org/dc/dcmitype/StillImage" />
      </cc:Work>
    </rdf:RDF>
  </metadata>
  <g
     id="layer1"
     inkscape:label="Layer 1"
     inkscape:groupmode="layer">
    <path
       id="path34"
       d="M 34.18215,13.34084 C 36.529084,9.2776957 42.852671,8.8986686 45.623061,12.710476 C 48.033206,15.307299 46.889282,18.941498 46.167128,21.962647 C 50.015067,23.80206 54.521933,24.554341 57.713399,27.559676 C 60.064854,29.650937 60.328759,32.940427 60.822643,35.842068 C 55.860085,36.009384 50.894757,35.920911 45.93093,35.954471 C 45.962725,38.767538 46.193102,41.624009 47.679873,44.093275 C 50.061094,48.722933 51.895738,54.668546 48.31647,59.222459 C 48.286688,59.848619 48.227139,61.100954 48.197374,61.727114 C 52.580275,62.093064 57.471463,62.335546 60.891313,65.476338 C 62.99669,67.238589 63.364816,70.089636 63.994306,72.590101 C 48.661707,72.812383 33.325069,72.626597 17.990804,72.68753 L 17.990804,67.04398 C 21.388044,62.782252 27.014245,62.015573 32.095341,61.719132 C 32.117273,61.120085 32.161173,59.922019 32.183106,59.322988 C 31.183477,57.407998 29.675549,55.524441 29.88622,53.229235 C 29.878337,47.056196 35.069444,42.232689 34.36167,35.954735 C 29.471852,35.923813 24.581426,35.992235 19.692564,35.870119 C 20.35982,32.335476 21.540751,28.544992 24.666091,26.412552 C 27.676059,24.409897 31.096753,23.139107 34.243627,21.372867 C 33.590934,18.780745 32.340479,15.764607 34.18215,13.34084 z "
       style="fill:none;stroke:#000000;stroke-width:0.10807478;stroke-linecap:butt;stroke-linejoin:miter;stroke-miterlimit:10" />
    <path
       id="path36"
       d="M 34.18215,13.34084 C 36.529084,9.2776957 42.852671,8.8986686 45.623061,12.710476 C 48.033206,15.307299 46.889282,18.941498 46.167128,21.962647 C 50.015067,23.80206 54.521933,24.554341 57.713399,27.559676 C 60.064854,29.650937 60.328759,32.940427 60.822643,35.842068 C 55.860085,36.009384 50.894757,35.920911 45.93093,35.954471 C 45.962725,38.767538 46.193102,41.624009 47.679873,44.093275 C 50.061094,48.722933 51.895738,54.668546 48.31647,59.222459 C 48.286688,59.848619 48.227139,61.100954 48.197374,61.727114 C 52.580275,62.093064 58.123691,62.42415 60.891313,65.476338 C 63.696984,68.570486 63.364816,70.089636 63.994306,72.590101 C 48.661707,72.812383 31.386272,72.767493 16.052007,72.828427 C 16.44682,70.440613 16.324795,70.454771 18.005394,66.830131 C 19.671263,63.237262 27.014245,62.015573 32.095341,61.719132 C 32.117273,61.120085 32.161173,59.922019 32.183106,59.322988 C 31.183477,57.407998 29.675549,55.524441 29.88622,53.229235 C 29.878337,47.056196 35.069444,42.232689 34.36167,35.954735 C 29.471852,35.923813 24.581426,35.992235 19.692564,35.870119 C 20.35982,32.335476 21.540751,28.544992 24.666091,26.412552 C 27.676059,24.409897 31.096753,23.139107 34.243627,21.372867 C 33.590934,18.780745 32.340479,15.764607 34.18215,13.34084 z "
       style="fill:#000000;fill-rule:nonzero;stroke:none"
       sodipodi:nodetypes="ccccccccczcczcccccccc" />
    <path
       id="path62"
       d="M 38.144551,21.771468 C 35.451934,19.079774 35.757559,12.825944 40.585335,13.263069 C 44.821933,13.82503 44.319454,19.056473 42.397935,21.707566 C 46.480144,26.709488 55.066577,25.7576 57.296115,32.503633 C 45.983519,32.829823 34.641833,32.821694 23.329238,32.503896 C 25.682672,25.858097 34.033188,26.669432 38.144551,21.771468 z "
       style="fill:none;stroke:#ffffff;stroke-width:0.10807478;stroke-linecap:butt;stroke-linejoin:miter;stroke-miterlimit:10" />
    <path
       id="path64"
       d="M 38.144551,21.771468 C 35.451934,19.079774 35.757559,12.825944 40.585335,13.263069 C 44.821933,13.82503 44.319454,19.056473 42.397935,21.707566 C 46.480144,26.709488 55.066577,25.7576 57.296115,32.503633 C 45.983519,32.829823 34.641833,32.821694 23.329238,32.503896 C 25.682672,25.858097 34.033188,26.669432 38.144551,21.771468 z "
       style="fill:url(#linearGradient2171);fill-opacity:1;fill-rule:nonzero;stroke:none" />
    <path
       id="path126"
       d="M 37.500745,35.941904 C 39.264053,35.941772 41.027425,35.941772 42.791327,35.941707 C 41.51013,42.59445 47.562359,47.574324 47.113427,54.121081 C 47.061892,55.760195 46.064292,57.113819 45.302033,58.491054 C 45.593459,60.342423 45.88929,62.193131 46.181244,64.045604 C 51.030972,64.378984 57.17184,64.360234 59.789275,69.313325 C 46.644787,69.508199 33.482706,69.579308 20.340592,69.275645 C 23.182238,64.400751 29.352194,64.381473 34.296728,64.047897 C 34.604103,62.165952 34.915055,60.285563 35.232407,58.406787 C 34.107544,56.86314 32.740448,55.271387 32.885404,53.220231 C 32.78537,46.962034 38.870926,42.398225 37.500745,35.941904 z "
       style="fill:none;stroke:#ffffff;stroke-width:0.10807478;stroke-linecap:butt;stroke-linejoin:miter;stroke-miterlimit:10" />
    <path
       id="path128"
       d="M 37.500745,35.941904 C 39.264053,35.941772 41.027425,35.941772 42.791327,35.941707 C 41.51013,42.59445 47.562359,47.574324 47.113427,54.121081 C 47.061892,55.760195 46.064292,57.113819 45.302033,58.491054 C 45.593459,60.342423 45.88929,62.193131 46.181244,64.045604 C 51.030972,64.378984 57.17184,64.360234 59.789275,69.313325 C 46.644787,69.508199 33.482706,69.579308 20.340592,69.275645 C 23.182238,64.400751 29.352194,64.381473 34.296728,64.047897 C 34.604103,62.165952 34.915055,60.285563 35.232407,58.406787 C 34.107544,56.86314 32.740448,55.271387 32.885404,53.220231 C 32.78537,46.962034 38.870926,42.398225 37.500745,35.941904 z "
       style="fill:url(#linearGradient2173);fill-opacity:1;fill-rule:nonzero;stroke:none" />
  </g>
</svg>
