<?xml version="1.0" encoding="UTF-8" standalone="no"?>
<!-- Created with Inkscape (http://www.inkscape.org/) -->
<svg
   xmlns:dc="http://purl.org/dc/elements/1.1/"
   xmlns:cc="http://web.resource.org/cc/"
   xmlns:rdf="http://www.w3.org/1999/02/22-rdf-syntax-ns#"
   xmlns:svg="http://www.w3.org/2000/svg"
   xmlns="http://www.w3.org/2000/svg"
   xmlns:xlink="http://www.w3.org/1999/xlink"
   xmlns:sodipodi="http://sodipodi.sourceforge.net/DTD/sodipodi-0.dtd"
   xmlns:inkscape="http://www.inkscape.org/namespaces/inkscape"
   width="80"
   height="80"
   id="svg2339"
   sodipodi:version="0.32"
   inkscape:version="0.45.1"
   version="1.0"
   sodipodi:docbase="/home/fkling/2/v0.1.2reduced/PieceThemes/Neu"
   sodipodi:docname="wq.svg"
   inkscape:output_extension="org.inkscape.output.svg.inkscape">
  <defs
     id="defs2341">
    <linearGradient
       id="linearGradient2175">
      <stop
         style="stop-color:#ffffff;stop-opacity:1;"
         offset="0"
         id="stop2177" />
      <stop
         style="stop-color:#ffffff;stop-opacity:0.50196081;"
         offset="1"
         id="stop2179" />
    </linearGradient>
    <linearGradient
       inkscape:collect="always"
       xlink:href="#linearGradient2175"
       id="linearGradient2181"
       x1="40"
       y1="50"
       x2="80"
       y2="50"
       gradientUnits="userSpaceOnUse" />
    <linearGradient
       inkscape:collect="always"
       xlink:href="#linearGradient2175"
       id="linearGradient2183"
       x1="40"
       y1="50"
       x2="80"
       y2="50"
       gradientUnits="userSpaceOnUse" />
    <linearGradient
       inkscape:collect="always"
       xlink:href="#linearGradient2175"
       id="linearGradient2185"
       x1="40"
       y1="50"
       x2="80"
       y2="50"
       gradientUnits="userSpaceOnUse" />
    <linearGradient
       inkscape:collect="always"
       xlink:href="#linearGradient2175"
       id="linearGradient2187"
       x1="40"
       y1="50"
       x2="80"
       y2="50"
       gradientUnits="userSpaceOnUse" />
    <linearGradient
       inkscape:collect="always"
       xlink:href="#linearGradient2175"
       id="linearGradient2189"
       x1="40"
       y1="50"
       x2="80"
       y2="50"
       gradientUnits="userSpaceOnUse" />
    <linearGradient
       inkscape:collect="always"
       xlink:href="#linearGradient2175"
       id="linearGradient2191"
       x1="40"
       y1="50"
       x2="80"
       y2="50"
       gradientUnits="userSpaceOnUse" />
    <linearGradient
       inkscape:collect="always"
       xlink:href="#linearGradient2175"
       id="linearGradient2193"
       x1="40"
       y1="50"
       x2="80"
       y2="50"
       gradientUnits="userSpaceOnUse" />
  </defs>
  <sodipodi:namedview
     id="base"
     pagecolor="#ffffff"
     bordercolor="#666666"
     borderopacity="1.0"
     inkscape:pageopacity="0.0"
     inkscape:pageshadow="2"
     inkscape:zoom="5.6"
     inkscape:cx="67.438352"
     inkscape:cy="36.018862"
     inkscape:document-units="px"
     inkscape:current-layer="layer1"
     width="80px"
     height="80px"
     showgrid="true"
     inkscape:window-width="944"
     inkscape:window-height="621"
     inkscape:window-x="124"
     inkscape:window-y="100" />
  <metadata
     id="metadata2344">
    <rdf:RDF>
      <cc:Work
         rdf:about="">
        <dc:format>image/svg+xml</dc:format>
        <dc:type
           rdf:resource="http://purl.org/dc/dcmitype/StillImage" />
      </cc:Work>
    </rdf:RDF>
  </metadata>
  <g
     inkscape:label="Ebene 1"
     inkscape:groupmode="layer"
     id="layer1">
    <path
       id="path30"
       d="M 23.413292,9.6408886 C 23.753916,4.938984 30.612748,3.4129411 33.191672,7.1824634 C 34.943541,9.2721409 33.765753,11.952254 32.974245,14.16203 C 35.295937,18.97507 37.684415,23.755868 40.049835,28.548849 C 42.564949,23.728748 45.070162,18.903152 47.592409,14.085568 C 46.848251,12.033911 45.62901,9.7009904 47.007017,7.6115068 C 49.329148,3.3817373 56.884255,4.6613478 57.187037,9.6517358 C 57.698106,12.369499 55.384919,14.096732 53.573465,15.606768 C 55.30358,22.718953 57.044289,29.828672 58.785714,36.938762 C 62.120347,34.367001 65.475441,31.819717 68.780021,29.205217 C 68.760644,26.995988 68.325998,24.167811 70.619334,22.869674 C 73.49011,20.720635 78.035849,23.315888 77.638594,26.88082 C 77.754417,29.64009 74.955078,30.678095 72.961453,31.734521 C 70.291105,37.636847 67.365326,43.440294 64.993004,49.466645 C 63.959452,56.063057 63.719417,62.766115 62.894706,69.394314 C 54.071678,74.892162 43.255672,75.29583 33.185648,74.529736 C 27.681695,74.146055 22.169514,72.713872 17.63691,69.463573 C 16.676872,62.800913 16.278037,56.054323 15.099417,49.4294 C 12.833398,43.40437 10.060579,37.574104 7.4978933,31.669436 C 5.4919672,30.686513 2.8093157,29.633979 2.8686008,26.941539 C 2.3745769,23.097457 7.5515345,20.52117 10.325577,23.209596 C 12.307846,24.597418 11.64872,27.141514 11.60587,29.173555 C 14.846099,31.753856 18.073876,34.35057 21.310435,36.939432 C 23.183597,29.813335 25.07272,22.691517 26.934826,15.562163 C 25.123153,14.069578 22.898887,12.321125 23.413292,9.6408886 z "
       style="fill:none;stroke:#000000;stroke-width:0.11540716;stroke-linecap:butt;stroke-linejoin:miter;stroke-miterlimit:10" />
    <path
       id="path32"
       d="M 23.413292,9.6408886 C 23.753916,4.938984 30.612748,3.4129411 33.191672,7.1824634 C 34.943541,9.2721409 33.765753,11.952254 32.974245,14.16203 C 35.295937,18.97507 37.684415,23.755868 40.049835,28.548849 C 42.564949,23.728748 45.070162,18.903152 47.592409,14.085568 C 46.848251,12.033911 45.62901,9.7009904 47.007017,7.6115068 C 49.329148,3.3817373 56.884255,4.6613478 57.187037,9.6517358 C 57.698106,12.369499 55.384919,14.096732 53.573465,15.606768 C 55.30358,22.718953 57.044289,29.828672 58.785714,36.938762 C 62.120347,34.367001 65.475441,31.819717 68.780021,29.205217 C 68.760644,26.995988 68.325998,24.167811 70.619334,22.869674 C 73.49011,20.720635 78.035849,23.315888 77.638594,26.88082 C 77.754417,29.64009 74.955078,30.678095 72.961453,31.734521 C 70.291105,37.636847 67.365326,43.440294 64.993004,49.466645 C 63.959452,56.063057 63.719417,62.766115 62.894706,69.394314 C 54.071678,74.892162 43.255672,75.29583 33.185648,74.529736 C 27.681695,74.146055 22.169514,72.713872 17.63691,69.463573 C 16.676872,62.800913 16.278037,56.054323 15.099417,49.4294 C 12.833398,43.40437 10.060579,37.574104 7.4978933,31.669436 C 5.4919672,30.686513 2.8093157,29.633979 2.8686008,26.941539 C 2.3745769,23.097457 7.5515345,20.52117 10.325577,23.209596 C 12.307846,24.597418 11.64872,27.141514 11.60587,29.173555 C 14.846099,31.753856 18.073876,34.35057 21.310435,36.939432 C 23.183597,29.813335 25.07272,22.691517 26.934826,15.562163 C 25.123153,14.069578 22.898887,12.321125 23.413292,9.6408886 z "
       style="fill:#000000;fill-rule:nonzero;stroke:none" />
    <path
       id="path46"
       d="M 27.855833,7.7219734 C 31.488966,5.9365219 33.268752,12.448356 29.51113,12.957084 C 26.14993,14.004159 24.710123,8.8384131 27.855833,7.7219734 z "
       style="fill:none;stroke:#ffffff;stroke-width:0.11540716;stroke-linecap:butt;stroke-linejoin:miter;stroke-miterlimit:10" />
    <path
       id="path48"
       d="M 27.855833,7.7219734 C 31.488966,5.9365219 33.268752,12.448356 29.51113,12.957084 C 26.14993,14.004159 24.710123,8.8384131 27.855833,7.7219734 z "
       style="fill:url(#linearGradient2185);fill-rule:nonzero;stroke:none;fill-opacity:1.0" />
    <path
       id="path50"
       d="M 49.951193,8.0023205 C 51.935191,6.7286432 55.126257,8.0067406 54.546301,10.647003 C 54.507837,13.076619 51.521353,13.506402 49.795647,12.4943 C 48.918575,11.167917 48.679382,9.1718878 49.951193,8.0023205 z "
       style="fill:none;stroke:#ffffff;stroke-width:0.11540716;stroke-linecap:butt;stroke-linejoin:miter;stroke-miterlimit:10" />
    <path
       id="path52"
       d="M 49.951193,8.0023205 C 51.935191,6.7286432 55.126257,8.0067406 54.546301,10.647003 C 54.507837,13.076619 51.521353,13.506402 49.795647,12.4943 C 48.918575,11.167917 48.679382,9.1718878 49.951193,8.0023205 z "
       style="fill:url(#linearGradient2183);fill-rule:nonzero;stroke:none;fill-opacity:1.0" />
    <path
       id="path90"
       d="M 22.643815,41.427801 C 25.43009,32.648326 26.840885,23.379565 30.619477,14.953288 C 33.975021,21.272014 36.882301,27.81507 40.049061,34.229433 C 43.24689,27.857597 46.252335,21.387762 49.594792,15.088655 C 51.024098,16.587032 51.660499,18.54939 52.138389,20.513387 C 53.886531,27.495048 55.701827,34.459822 57.502571,41.428875 C 61.759261,38.088396 66.011184,34.740485 70.272386,31.402736 C 67.771431,36.74907 65.216721,42.069359 62.726777,47.419936 C 48.338296,41.505565 31.794345,41.74777 17.374693,47.428722 C 14.804714,41.797499 12.186922,36.188974 9.6075717,30.563244 C 13.958814,34.176358 18.297073,37.806428 22.643815,41.427801 z "
       style="fill:none;stroke:#ffffff;stroke-width:0.11540716;stroke-linecap:butt;stroke-linejoin:miter;stroke-miterlimit:10" />
    <path
       id="path92"
       d="M 22.643815,41.427801 C 25.43009,32.648326 26.840885,23.379565 30.619477,14.953288 C 33.975021,21.272014 36.882301,27.81507 40.049061,34.229433 C 43.24689,27.857597 46.252335,21.387762 49.594792,15.088655 C 51.024098,16.587032 51.660499,18.54939 52.138389,20.513387 C 53.886531,27.495048 55.701827,34.459822 57.502571,41.428875 C 61.759261,38.088396 66.011184,34.740485 70.272386,31.402736 C 67.771431,36.74907 65.216721,42.069359 62.726777,47.419936 C 48.338296,41.505565 31.794345,41.74777 17.374693,47.428722 C 14.804714,41.797499 12.186922,36.188974 9.6075717,30.563244 C 13.958814,34.176358 18.297073,37.806428 22.643815,41.427801 z "
       style="fill:url(#linearGradient2191);fill-rule:nonzero;stroke:none;fill-opacity:1.0" />
    <path
       id="path106"
       d="M 5.5839698,24.861741 C 8.2831236,23.484007 10.177475,25.686193 9.1432532,28.256 C 6.647516,30.075455 3.9190599,27.387611 5.5839698,24.861741 z "
       style="fill:none;stroke:#ffffff;stroke-width:0.11540716;stroke-linecap:butt;stroke-linejoin:miter;stroke-miterlimit:10" />
    <path
       id="path108"
       d="M 5.5839698,24.861741 C 8.2831236,23.484007 10.177475,25.686193 9.1432532,28.256 C 6.647516,30.075455 3.9190599,27.387611 5.5839698,24.861741 z "
       style="fill:url(#linearGradient2187);fill-rule:nonzero;stroke:none;fill-opacity:1.0" />
    <path
       id="path110"
       d="M 71.013957,28.950668 C 71.072446,27.318562 70.682323,24.140147 73.368817,24.811588 C 74.926272,24.329891 75.357572,26.484231 75.145072,27.553019 C 74.976243,29.544839 72.24279,28.558376 71.013957,28.950668 z "
       style="fill:none;stroke:#ffffff;stroke-width:0.11540716;stroke-linecap:butt;stroke-linejoin:miter;stroke-miterlimit:10" />
    <path
       id="path112"
       d="M 71.013957,28.950668 C 71.072446,27.318562 70.682323,24.140147 73.368817,24.811588 C 74.926272,24.329891 75.357572,26.484231 75.145072,27.553019 C 74.976243,29.544839 72.24279,28.558376 71.013957,28.950668 z "
       style="fill:url(#linearGradient2181);fill-rule:nonzero;stroke:none;fill-opacity:1.0" />
    <path
       id="path134"
       d="M 18.619971,50.231893 C 32.047836,44.261454 48.089652,44.238014 61.513801,50.233707 C 61.37612,52.04559 61.242422,53.857843 61.114423,55.671082 C 59.548394,55.673601 57.987801,55.677211 56.432655,55.681895 C 57.776537,57.203376 59.131082,58.724699 60.480722,60.248892 C 60.49643,61.225615 60.527844,63.179064 60.543573,64.155788 C 56.335412,62.107459 51.748798,60.948685 47.088252,60.619964 C 37.861634,59.891766 28.065678,59.813949 19.624521,64.149819 C 19.634077,63.177109 19.653235,61.231691 19.662801,60.258982 C 21.009926,58.731144 22.359694,57.206898 23.715659,55.681912 C 22.132342,55.677281 20.553929,55.673812 18.980388,55.67147 C 18.855794,53.857509 18.734963,52.044463 18.619971,50.231893 z "
       style="fill:none;stroke:#ffffff;stroke-width:0.11540716;stroke-linecap:butt;stroke-linejoin:miter;stroke-miterlimit:10" />
    <path
       id="path136"
       d="M 18.619971,50.231893 C 32.047836,44.261454 48.089652,44.238014 61.513801,50.233707 C 61.37612,52.04559 61.242422,53.857843 61.114423,55.671082 C 59.548394,55.673601 57.987801,55.677211 56.432655,55.681895 C 57.776537,57.203376 59.131082,58.724699 60.480722,60.248892 C 60.49643,61.225615 60.527844,63.179064 60.543573,64.155788 C 56.335412,62.107459 51.748798,60.948685 47.088252,60.619964 C 37.861634,59.891766 28.065678,59.813949 19.624521,64.149819 C 19.634077,63.177109 19.653235,61.231691 19.662801,60.258982 C 21.009926,58.731144 22.359694,57.206898 23.715659,55.681912 C 22.132342,55.677281 20.553929,55.673812 18.980388,55.67147 C 18.855794,53.857509 18.734963,52.044463 18.619971,50.231893 z "
       style="fill:url(#linearGradient2193);fill-rule:nonzero;stroke:none;fill-opacity:1.0" />
    <path
       id="path146"
       d="M 37.02986,51.850933 C 39.535719,51.189827 42.25088,51.397993 44.658377,52.360188 C 45.295321,55.336885 42.029576,55.129583 40.016275,55.238957 C 38.018772,55.134849 34.835704,55.292191 35.45371,52.373114 C 35.847745,52.242572 36.635825,51.981473 37.02986,51.850933 z "
       style="fill:none;stroke:#000000;stroke-width:0.11540716;stroke-linecap:butt;stroke-linejoin:miter;stroke-miterlimit:10" />
    <path
       id="path148"
       d="M 37.02986,51.850933 C 39.535719,51.189827 42.25088,51.397993 44.658377,52.360188 C 45.295321,55.336885 42.029576,55.129583 40.016275,55.238957 C 38.018772,55.134849 34.835704,55.292191 35.45371,52.373114 C 35.847745,52.242572 36.635825,51.981473 37.02986,51.850933 z "
       style="fill:#000000;fill-rule:nonzero;stroke:none" />
    <path
       id="path162"
       d="M 29.121734,63.637639 C 36.988337,62.470535 45.04146,62.552791 52.871328,63.974019 C 55.128138,64.439727 57.5487,64.940407 59.313391,66.545799 C 60.375771,68.955655 57.306795,69.719073 55.620719,70.328529 C 45.448986,72.707322 34.670546,72.687176 24.492303,70.362849 C 22.735632,69.730731 19.528849,68.989502 20.707605,66.47955 C 23.059177,64.53401 26.215228,64.145592 29.121734,63.637639 z "
       style="fill:none;stroke:#ffffff;stroke-width:0.11540716;stroke-linecap:butt;stroke-linejoin:miter;stroke-miterlimit:10" />
    <path
       id="path164"
       d="M 29.121734,63.637639 C 36.988337,62.470535 45.04146,62.552791 52.871328,63.974019 C 55.128138,64.439727 57.5487,64.940407 59.313391,66.545799 C 60.375771,68.955655 57.306795,69.719073 55.620719,70.328529 C 45.448986,72.707322 34.670546,72.687176 24.492303,70.362849 C 22.735632,69.730731 19.528849,68.989502 20.707605,66.47955 C 23.059177,64.53401 26.215228,64.145592 29.121734,63.637639 z "
       style="fill:url(#linearGradient2189);fill-rule:nonzero;stroke:none;fill-opacity:1.0" />
  </g>
</svg>
